SplineFontDB: 3.0
FontName: MontserratAlternates-Regular
FullName: MontserratAlternates-Regular
FamilyName: Montserrat Alternates
Weight: Book
Copyright: Copyright (c) 2011-2012, Julieta Ulanovsky (julieta.ulanovsky@gmail.com), with Reserved Font Names 'Montserrat'
Version: 2.001
ItalicAngle: 0
UnderlinePosition: -50
UnderlineWidth: 50
Ascent: 800
Descent: 200
sfntRevision: 0x00020042
LayerCount: 2
Layer: 0 1 "Back"  1
Layer: 1 1 "Fore"  0
XUID: [1021 764 1382813132 14538114]
FSType: 0
OS2Version: 3
OS2_WeightWidthSlopeOnly: 0
OS2_UseTypoMetrics: 1
CreationTime: 1321826100
ModificationTime: 1349104570
PfmFamily: 17
TTFWeight: 400
TTFWidth: 5
LineGap: 0
VLineGap: 0
Panose: 2 0 5 5 0 0 0 2 0 4
OS2TypoAscent: 968
OS2TypoAOffset: 0
OS2TypoDescent: -251
OS2TypoDOffset: 0
OS2TypoLinegap: 0
OS2WinAscent: 968
OS2WinAOffset: 0
OS2WinDescent: 251
OS2WinDOffset: 0
HheadAscent: 968
HheadAOffset: 0
HheadDescent: -251
HheadDOffset: 0
OS2SubXSize: 650
OS2SubYSize: 600
OS2SubXOff: 0
OS2SubYOff: 75
OS2SupXSize: 650
OS2SupYSize: 600
OS2SupXOff: 0
OS2SupYOff: 350
OS2StrikeYSize: 50
OS2StrikeYPos: 306
OS2Vendor: 'pyrs'
OS2CodePages: 20000001.00000000
OS2UnicodeRanges: 8000002f.4000204a.00000000.00000000
Lookup: 258 0 0 "'kern' Horizontal Kerning in Latin lookup 0"  {"'kern' Horizontal Kerning in Latin lookup 0 subtable"  } ['kern' ('latn' <'dflt' > ) ]
DEI: 91125
TtTable: prep
PUSHW_1
 511
SCANCTRL
PUSHB_1
 4
SCANTYPE
EndTTInstrs
ShortTable: maxp 16
  1
  0
  263
  54
  7
  0
  0
  2
  0
  1
  1
  0
  64
  0
  0
  0
EndShort
LangName: 1033 "" "" "" "JulietaUlanovsky: Montserrat: 2010" "" "Version 2.001" "" "Montserrat is a trademark of Julieta Ulanovsky." "Julieta Ulanovsky" "Julieta Ulanovsky" "" "" "" "This Font Software is licensed under the SIL Open Font License, Version 1.1. This license is available with a FAQ at: http://scripts.sil.org/OFL" "http://scripts.sil.org/OFL" 
GaspTable: 1 65535 15 1
Encoding: UnicodeBmp
UnicodeInterp: none
NameList: AGL For New Fonts
DisplaySize: -24

StartChar: exclam
Encoding: 33 33 6
Width: 295
GlyphClass: 2
Flags: W
LayerCount: 2
Fore
SplineSet
78 716 m 1,0,-1
 218 716 l 1,1,-1
 218 587 l 1,2,-1
 188 226 l 1,3,-1
 108 226 l 1,4,-1
 78 587 l 1,5,-1
 78 716 l 1,0,-1
96 14 m 128,-1,7
 74 36 74 36 74 66.5 c 128,-1,8
 74 97 74 97 96 119 c 128,-1,9
 118 141 118 141 148.5 141 c 128,-1,10
 179 141 179 141 201 119 c 128,-1,11
 223 97 223 97 223 66.5 c 128,-1,12
 223 36 223 36 201 14 c 128,-1,13
 179 -8 179 -8 148.5 -8 c 128,-1,6
 118 -8 118 -8 96 14 c 128,-1,7
EndSplineSet
EndChar

StartChar: quotedbl
Encoding: 34 34 7
Width: 374
GlyphClass: 2
Flags: W
LayerCount: 2
Fore
SplineSet
77 453 m 1,0,-1
 77 699 l 1,1,-1
 155 699 l 1,2,-1
 155 453 l 1,3,-1
 77 453 l 1,0,-1
219 453 m 1,4,-1
 219 699 l 1,5,-1
 297 699 l 1,6,-1
 297 453 l 1,7,-1
 219 453 l 1,4,-1
EndSplineSet
EndChar

StartChar: numbersign
Encoding: 35 35 8
Width: 735
GlyphClass: 2
Flags: W
LayerCount: 2
Fore
SplineSet
671 436 m 1,0,-1
 563 436 l 1,1,-1
 534 270 l 1,2,-1
 657 270 l 1,3,-1
 635 160 l 1,4,-1
 516 160 l 1,5,-1
 488 0 l 1,6,-1
 377 0 l 1,7,-1
 405 160 l 1,8,-1
 258 160 l 1,9,-1
 230 0 l 1,10,-1
 118 0 l 1,11,-1
 146 160 l 1,12,-1
 43 160 l 1,13,-1
 65 270 l 1,14,-1
 165 270 l 1,15,-1
 194 436 l 1,16,-1
 80 436 l 1,17,-1
 102 546 l 1,18,-1
 213 546 l 1,19,-1
 242 716 l 1,20,-1
 353 716 l 1,21,-1
 324 546 l 1,22,-1
 471 546 l 1,23,-1
 500 716 l 1,24,-1
 612 716 l 1,25,-1
 581 546 l 1,26,-1
 693 546 l 1,27,-1
 671 436 l 1,0,-1
453 436 m 1,28,-1
 306 436 l 1,29,-1
 276 270 l 1,30,-1
 423 270 l 1,31,-1
 453 436 l 1,28,-1
EndSplineSet
EndChar

StartChar: dollar
Encoding: 36 36 9
Width: 619
GlyphClass: 2
Flags: W
LayerCount: 2
Fore
SplineSet
283 -72 m 1,0,-1
 283 1 l 1,1,2
 146 15 146 15 37 110 c 1,3,-1
 110 197 l 1,4,5
 194 124 194 124 283 110 c 1,6,-1
 283 304 l 1,7,8
 170 331 170 331 117.5 375 c 128,-1,9
 65 419 65 419 65 505.5 c 128,-1,10
 65 592 65 592 125.5 647 c 128,-1,11
 186 702 186 702 283 707 c 1,12,-1
 283 757 l 1,13,-1
 347 757 l 1,14,-1
 347 706 l 1,15,16
 457 698 457 698 555 631 c 1,17,-1
 490 539 l 1,18,19
 424 586 424 586 347 597 c 1,20,-1
 347 409 l 1,21,-1
 350 409 l 1,22,23
 465 382 465 382 519 336 c 128,-1,24
 573 290 573 290 573 202.5 c 128,-1,25
 573 115 573 115 511 60 c 128,-1,26
 449 5 449 5 347 0 c 1,27,-1
 347 -72 l 1,28,-1
 283 -72 l 1,0,-1
423 135 m 128,-1,30
 451 158 451 158 451 193 c 128,-1,31
 451 228 451 228 429 248.5 c 128,-1,32
 407 269 407 269 347 287 c 1,33,-1
 347 107 l 1,34,29
 395 112 395 112 423 135 c 128,-1,30
212.5 573.5 m 128,-1,36
 187 551 187 551 187 517.5 c 128,-1,37
 187 484 187 484 207 464.5 c 128,-1,38
 227 445 227 445 283 427 c 1,39,-1
 283 600 l 1,40,35
 238 596 238 596 212.5 573.5 c 128,-1,36
EndSplineSet
EndChar

StartChar: percent
Encoding: 37 37 10
Width: 786
GlyphClass: 2
Flags: W
LayerCount: 2
Fore
SplineSet
346 557 m 128,-1,1
 346 491 346 491 302.5 444 c 128,-1,2
 259 397 259 397 194.5 397 c 128,-1,3
 130 397 130 397 87 443.5 c 128,-1,4
 44 490 44 490 44 556 c 128,-1,5
 44 622 44 622 87.5 669 c 128,-1,6
 131 716 131 716 195.5 716 c 128,-1,7
 260 716 260 716 303 669.5 c 128,-1,0
 346 623 346 623 346 557 c 128,-1,1
710 699 m 1,8,-1
 198 0 l 1,9,-1
 69 0 l 1,10,-1
 581 699 l 1,11,-1
 710 699 l 1,8,-1
252 555 m 128,-1,13
 252 585 252 585 235 605.5 c 128,-1,14
 218 626 218 626 193.5 626 c 128,-1,15
 169 626 169 626 153 605.5 c 128,-1,16
 137 585 137 585 137 555 c 128,-1,17
 137 525 137 525 154 504.5 c 128,-1,18
 171 484 171 484 195.5 484 c 128,-1,19
 220 484 220 484 236 504.5 c 128,-1,12
 252 525 252 525 252 555 c 128,-1,13
743 152 m 128,-1,21
 743 86 743 86 699.5 39 c 128,-1,22
 656 -8 656 -8 591.5 -8 c 128,-1,23
 527 -8 527 -8 484 38.5 c 128,-1,24
 441 85 441 85 441 151 c 128,-1,25
 441 217 441 217 484.5 264 c 128,-1,26
 528 311 528 311 592.5 311 c 128,-1,27
 657 311 657 311 700 264.5 c 128,-1,20
 743 218 743 218 743 152 c 128,-1,21
651 148 m 128,-1,29
 651 178 651 178 634 198.5 c 128,-1,30
 617 219 617 219 592.5 219 c 128,-1,31
 568 219 568 219 552 198.5 c 128,-1,32
 536 178 536 178 536 148 c 128,-1,33
 536 118 536 118 553 97.5 c 128,-1,34
 570 77 570 77 594.5 77 c 128,-1,35
 619 77 619 77 635 97.5 c 128,-1,28
 651 118 651 118 651 148 c 128,-1,29
EndSplineSet
EndChar

StartChar: ampersand
Encoding: 38 38 11
Width: 694
GlyphClass: 2
Flags: W
LayerCount: 2
Fore
SplineSet
285 -8 m 0,0,1
 187 -8 187 -8 118 46.5 c 128,-1,2
 49 101 49 101 49 196 c 0,3,4
 49 309 49 309 213 397 c 1,5,6
 172 444 172 444 155.5 474 c 128,-1,7
 139 504 139 504 139 550 c 0,8,9
 139 630 139 630 198 673 c 128,-1,10
 257 716 257 716 337 716 c 128,-1,11
 417 716 417 716 473 675 c 128,-1,12
 529 634 529 634 529 560 c 0,13,14
 529 461 529 461 369 373 c 1,15,16
 449 275 449 275 499 223 c 1,17,18
 530 269 530 269 547 330 c 1,19,-1
 629 272 l 1,20,21
 603 203 603 203 570 151 c 1,22,23
 610 110 610 110 672 52 c 1,24,-1
 597 -18 l 1,25,-1
 505 73 l 1,26,27
 417 -8 417 -8 285 -8 c 0,0,1
198 117.5 m 128,-1,29
 236 89 236 89 299 89 c 128,-1,30
 362 89 362 89 433 147 c 1,31,32
 332 253 332 253 273 325 c 1,33,34
 160 264 160 264 160 191 c 0,35,28
 160 146 160 146 198 117.5 c 128,-1,29
276.5 606 m 128,-1,37
 250 585 250 585 250 557 c 128,-1,38
 250 529 250 529 263.5 506.5 c 128,-1,39
 277 484 277 484 310 444 c 1,40,41
 423 500 423 500 423 548 c 0,42,43
 423 588 423 588 396.5 607.5 c 128,-1,44
 370 627 370 627 336.5 627 c 128,-1,36
 303 627 303 627 276.5 606 c 128,-1,37
EndSplineSet
EndChar

StartChar: quotesingle
Encoding: 39 39 12
Width: 232
GlyphClass: 2
Flags: W
LayerCount: 2
Fore
SplineSet
77 453 m 1,0,-1
 77 699 l 1,1,-1
 155 699 l 1,2,-1
 155 453 l 1,3,-1
 77 453 l 1,0,-1
EndSplineSet
EndChar

StartChar: parenleft
Encoding: 40 40 13
Width: 332
GlyphClass: 2
Flags: W
LayerCount: 2
Fore
SplineSet
161 312 m 128,-1,1
 161 197 161 197 201 72.5 c 128,-1,2
 241 -52 241 -52 299 -133 c 1,3,-1
 180 -133 l 1,4,5
 131 -65 131 -65 90.5 61 c 128,-1,6
 50 187 50 187 50 312 c 128,-1,7
 50 437 50 437 90.5 563 c 128,-1,8
 131 689 131 689 180 757 c 1,9,-1
 299 757 l 1,10,11
 241 676 241 676 201 551.5 c 128,-1,0
 161 427 161 427 161 312 c 128,-1,1
EndSplineSet
EndChar

StartChar: parenright
Encoding: 41 41 14
Width: 332
GlyphClass: 2
Flags: W
LayerCount: 2
Fore
SplineSet
171 312 m 128,-1,1
 171 427 171 427 131 551.5 c 128,-1,2
 91 676 91 676 33 757 c 1,3,-1
 152 757 l 1,4,5
 201 689 201 689 241.5 563 c 128,-1,6
 282 437 282 437 282 312 c 128,-1,7
 282 187 282 187 241.5 61 c 128,-1,8
 201 -65 201 -65 152 -133 c 1,9,-1
 33 -133 l 1,10,11
 91 -52 91 -52 131 72.5 c 128,-1,0
 171 197 171 197 171 312 c 128,-1,1
EndSplineSet
EndChar

StartChar: asterisk
Encoding: 42 42 15
Width: 432
GlyphClass: 2
Flags: W
LayerCount: 2
Fore
SplineSet
337 430 m 1,0,-1
 242 494 l 1,1,-1
 250 380 l 1,2,-1
 182 380 l 1,3,-1
 190 495 l 1,4,-1
 95 431 l 1,5,-1
 61 489 l 1,6,-1
 163 540 l 1,7,-1
 61 590 l 1,8,-1
 95 649 l 1,9,-1
 189 586 l 1,10,-1
 182 699 l 1,11,-1
 250 699 l 1,12,-1
 243 586 l 1,13,-1
 337 648 l 1,14,-1
 371 590 l 1,15,-1
 268 540 l 1,16,-1
 371 489 l 1,17,-1
 337 430 l 1,0,-1
EndSplineSet
EndChar

StartChar: plus
Encoding: 43 43 16
Width: 568
GlyphClass: 2
Flags: W
LayerCount: 2
Fore
SplineSet
239 150 m 1,0,-1
 239 340 l 1,1,-1
 48 340 l 1,2,-1
 48 434 l 1,3,-1
 239 434 l 1,4,-1
 239 622 l 1,5,-1
 329 622 l 1,6,-1
 329 434 l 1,7,-1
 520 434 l 1,8,-1
 520 340 l 1,9,-1
 329 340 l 1,10,-1
 329 150 l 1,11,-1
 239 150 l 1,0,-1
EndSplineSet
EndChar

StartChar: comma
Encoding: 44 44 17
Width: 281
GlyphClass: 2
Flags: W
LayerCount: 2
Fore
SplineSet
66 65 m 0,0,1
 66 97 66 97 88 118.5 c 128,-1,2
 110 140 110 140 140 140 c 128,-1,3
 170 140 170 140 192.5 118.5 c 128,-1,4
 215 97 215 97 215 67 c 128,-1,5
 215 37 215 37 188 -6 c 2,6,-1
 128 -105 l 1,7,-1
 70 -105 l 1,8,-1
 107 -1 l 1,9,10
 66 18 66 18 66 65 c 0,0,1
EndSplineSet
EndChar

StartChar: hyphen
Encoding: 45 45 18
Width: 476
GlyphClass: 2
Flags: W
LayerCount: 2
Fore
SplineSet
72 246 m 1,0,-1
 72 351 l 1,1,-1
 404 351 l 1,2,-1
 404 246 l 1,3,-1
 72 246 l 1,0,-1
EndSplineSet
EndChar

StartChar: period
Encoding: 46 46 19
Width: 280
GlyphClass: 2
Flags: W
LayerCount: 2
Fore
SplineSet
66 67 m 128,-1,1
 66 98 66 98 87.5 119.5 c 128,-1,2
 109 141 109 141 140 141 c 128,-1,3
 171 141 171 141 193 119.5 c 128,-1,4
 215 98 215 98 215 67 c 128,-1,5
 215 36 215 36 193 14 c 128,-1,6
 171 -8 171 -8 140 -8 c 128,-1,7
 109 -8 109 -8 87.5 14 c 128,-1,0
 66 36 66 36 66 67 c 128,-1,1
EndSplineSet
EndChar

StartChar: slash
Encoding: 47 47 20
Width: 587
GlyphClass: 2
Flags: W
LayerCount: 2
Fore
SplineSet
461 811 m 1,0,-1
 561 811 l 1,1,-1
 128 -117 l 1,2,-1
 28 -117 l 1,3,-1
 461 811 l 1,0,-1
EndSplineSet
EndChar

StartChar: zero
Encoding: 48 48 21
Width: 688
GlyphClass: 2
Flags: W
LayerCount: 2
Fore
SplineSet
173 304 m 128,-1,1
 173 208 173 208 219.5 150.5 c 128,-1,2
 266 93 266 93 343.5 93 c 128,-1,3
 421 93 421 93 467 150.5 c 128,-1,4
 513 208 513 208 513 304 c 128,-1,5
 513 400 513 400 467 457.5 c 128,-1,6
 421 515 421 515 343.5 515 c 128,-1,7
 266 515 266 515 219.5 457.5 c 128,-1,0
 173 400 173 400 173 304 c 128,-1,1
59 304 m 128,-1,9
 59 446 59 446 136.5 531 c 128,-1,10
 214 616 214 616 344 616 c 128,-1,11
 474 616 474 616 551.5 531 c 128,-1,12
 629 446 629 446 629 304 c 128,-1,13
 629 162 629 162 551.5 77 c 128,-1,14
 474 -8 474 -8 344 -8 c 128,-1,15
 214 -8 214 -8 136.5 77 c 128,-1,8
 59 162 59 162 59 304 c 128,-1,9
EndSplineSet
EndChar

StartChar: one
Encoding: 49 49 22
Width: 381
GlyphClass: 2
Flags: W
LayerCount: 2
Fore
SplineSet
29 599 m 1,0,-1
 283 599 l 1,1,-1
 283 0 l 1,2,-1
 171 0 l 1,3,-1
 171 494 l 1,4,-1
 29 494 l 1,5,-1
 29 599 l 1,0,-1
EndSplineSet
EndChar

StartChar: two
Encoding: 50 50 23
Width: 589
GlyphClass: 2
Flags: W
LayerCount: 2
Fore
SplineSet
363 366 m 128,-1,1
 395 403 395 403 395 436 c 128,-1,2
 395 469 395 469 369.5 489.5 c 128,-1,3
 344 510 344 510 298 510 c 0,4,5
 203 510 203 510 145 422 c 1,6,-1
 50 477 l 1,7,8
 100 550 100 550 159 583 c 128,-1,9
 218 616 218 616 306 616 c 128,-1,10
 394 616 394 616 454 568 c 128,-1,11
 514 520 514 520 514 445 c 0,12,13
 514 397 514 397 473 344.5 c 128,-1,14
 432 292 432 292 324 202 c 1,15,-1
 219 113 l 1,16,-1
 536 113 l 1,17,-1
 536 0 l 1,18,-1
 58 0 l 1,19,-1
 58 100 l 1,20,-1
 250 262 l 1,21,0
 331 329 331 329 363 366 c 128,-1,1
EndSplineSet
EndChar

StartChar: three
Encoding: 51 51 24
Width: 578
GlyphClass: 2
Flags: W
LayerCount: 2
Fore
SplineSet
77 494 m 1,0,-1
 77 599 l 1,1,-1
 486 599 l 1,2,-1
 486 507 l 1,3,-1
 317 318 l 1,4,5
 413 315 413 315 467 257.5 c 128,-1,6
 521 200 521 200 521 120 c 0,7,8
 521 13 521 13 448.5 -48 c 128,-1,9
 376 -109 376 -109 262 -109 c 128,-1,10
 148 -109 148 -109 39 -36 c 1,11,-1
 89 59 l 1,12,13
 175 -1 175 -1 269 -1 c 0,14,15
 330 -1 330 -1 369.5 27.5 c 128,-1,16
 409 56 409 56 409 109.5 c 128,-1,17
 409 163 409 163 365 195 c 128,-1,18
 321 227 321 227 243 227 c 0,19,20
 204 227 204 227 168 216 c 1,21,-1
 168 306 l 1,22,-1
 330 494 l 1,23,-1
 77 494 l 1,0,-1
EndSplineSet
EndChar

StartChar: four
Encoding: 52 52 25
Width: 572
GlyphClass: 2
Flags: W
LayerCount: 2
Fore
SplineSet
337 183 m 1,0,-1
 337 311 l 1,1,-1
 449 311 l 1,2,-1
 449 183 l 1,3,-1
 533 183 l 1,4,-1
 533 76 l 1,5,-1
 449 76 l 1,6,-1
 449 -100 l 1,7,-1
 337 -100 l 1,8,-1
 337 76 l 1,9,-1
 37 76 l 1,10,-1
 37 180 l 1,11,-1
 294 599 l 1,12,-1
 423 599 l 1,13,-1
 170 183 l 1,14,-1
 337 183 l 1,0,-1
EndSplineSet
EndChar

StartChar: five
Encoding: 53 53 26
Width: 579
GlyphClass: 2
Flags: W
LayerCount: 2
Fore
SplineSet
486 600 m 1,0,-1
 486 493 l 1,1,-1
 191 493 l 1,2,-1
 191 321 l 1,3,4
 235 345 235 345 291 345 c 0,5,6
 389 345 389 345 460 286 c 128,-1,7
 531 227 531 227 531 126 c 128,-1,8
 531 25 531 25 457 -41.5 c 128,-1,9
 383 -108 383 -108 275 -108 c 0,10,11
 134 -108 134 -108 50 -14 c 1,12,-1
 113 72 l 1,13,14
 121 64 121 64 134.5 53 c 128,-1,15
 148 42 148 42 190 23.5 c 128,-1,16
 232 5 232 5 282 5 c 128,-1,17
 332 5 332 5 373 35 c 128,-1,18
 414 65 414 65 414 122.5 c 128,-1,19
 414 180 414 180 370.5 211.5 c 128,-1,20
 327 243 327 243 260.5 243 c 128,-1,21
 194 243 194 243 134 210 c 1,22,-1
 84 264 l 1,23,-1
 84 600 l 1,24,-1
 486 600 l 1,0,-1
EndSplineSet
EndChar

StartChar: six
Encoding: 54 54 27
Width: 620
GlyphClass: 2
Flags: W
LayerCount: 2
Fore
SplineSet
354 606 m 0,0,1
 261 606 261 606 217 543 c 128,-1,2
 173 480 173 480 172 373 c 1,3,4
 197 401 197 401 244 425.5 c 128,-1,5
 291 450 291 450 348 450 c 0,6,7
 442 450 442 450 505.5 387.5 c 128,-1,8
 569 325 569 325 569 221.5 c 128,-1,9
 569 118 569 118 500.5 55 c 128,-1,10
 432 -8 432 -8 328 -8 c 0,11,12
 160 -8 160 -8 96 142 c 0,13,14
 60 228 60 228 60 336 c 128,-1,15
 60 444 60 444 83 516 c 128,-1,16
 106 588 106 588 146 630 c 0,17,18
 224 712 224 712 337.5 712 c 128,-1,19
 451 712 451 712 543 641 c 1,20,-1
 484 554 l 1,21,22
 461 574 461 574 422.5 590 c 128,-1,23
 384 606 384 606 354 606 c 0,0,1
231.5 312.5 m 128,-1,25
 191 279 191 279 191 225.5 c 128,-1,26
 191 172 191 172 230 133.5 c 128,-1,27
 269 95 269 95 328 95 c 128,-1,28
 387 95 387 95 426 129.5 c 128,-1,29
 465 164 465 164 465 217.5 c 128,-1,30
 465 271 465 271 429 308.5 c 128,-1,31
 393 346 393 346 332.5 346 c 128,-1,24
 272 346 272 346 231.5 312.5 c 128,-1,25
EndSplineSet
EndChar

StartChar: seven
Encoding: 55 55 28
Width: 566
GlyphClass: 2
Flags: W
LayerCount: 2
Fore
SplineSet
46 398 m 1,0,-1
 46 599 l 1,1,-1
 538 599 l 1,2,-1
 538 494 l 1,3,-1
 242 -100 l 1,4,-1
 112 -100 l 1,5,-1
 401 492 l 1,6,-1
 153 492 l 1,7,-1
 153 398 l 1,8,-1
 46 398 l 1,0,-1
EndSplineSet
EndChar

StartChar: eight
Encoding: 56 56 29
Width: 636
GlyphClass: 2
Flags: W
LayerCount: 2
Fore
SplineSet
318 713 m 128,-1,1
 419 713 419 713 486 660 c 128,-1,2
 553 607 553 607 553 526.5 c 128,-1,3
 553 446 553 446 478 384 c 1,4,5
 579 320 579 320 579 204 c 0,6,7
 579 114 579 114 507 53 c 128,-1,8
 435 -8 435 -8 318 -8 c 128,-1,9
 201 -8 201 -8 129 53 c 128,-1,10
 57 114 57 114 57 204 c 0,11,12
 57 320 57 320 158 384 c 1,13,14
 83 446 83 446 83 526.5 c 128,-1,15
 83 607 83 607 150 660 c 128,-1,0
 217 713 217 713 318 713 c 128,-1,1
318 94 m 128,-1,17
 370 94 370 94 416 123.5 c 128,-1,18
 462 153 462 153 462 208 c 128,-1,19
 462 263 462 263 418 293 c 128,-1,20
 374 323 374 323 318 323 c 128,-1,21
 262 323 262 323 218 293 c 128,-1,22
 174 263 174 263 174 208 c 128,-1,23
 174 153 174 153 220 123.5 c 128,-1,16
 266 94 266 94 318 94 c 128,-1,17
318 411 m 128,-1,25
 369 411 369 411 406.5 441.5 c 128,-1,26
 444 472 444 472 444 516.5 c 128,-1,27
 444 561 444 561 406.5 591 c 128,-1,28
 369 621 369 621 318 621 c 128,-1,29
 267 621 267 621 229.5 591 c 128,-1,30
 192 561 192 561 192 516.5 c 128,-1,31
 192 472 192 472 229.5 441.5 c 128,-1,24
 267 411 267 411 318 411 c 128,-1,25
EndSplineSet
EndChar

StartChar: nine
Encoding: 57 57 30
Width: 619
GlyphClass: 2
Flags: W
LayerCount: 2
Fore
SplineSet
266 -2 m 0,0,1
 359 -2 359 -2 403 61 c 128,-1,2
 447 124 447 124 448 231 c 1,3,4
 423 203 423 203 376 178.5 c 128,-1,5
 329 154 329 154 272 154 c 0,6,7
 178 154 178 154 114.5 216.5 c 128,-1,8
 51 279 51 279 51 382.5 c 128,-1,9
 51 486 51 486 119.5 549 c 128,-1,10
 188 612 188 612 292 612 c 0,11,12
 460 612 460 612 524 462 c 0,13,14
 560 376 560 376 560 268 c 128,-1,15
 560 160 560 160 537 88 c 128,-1,16
 514 16 514 16 474 -26 c 0,17,18
 396 -108 396 -108 282.5 -108 c 128,-1,19
 169 -108 169 -108 77 -37 c 1,20,-1
 136 50 l 1,21,22
 159 30 159 30 197.5 14 c 128,-1,23
 236 -2 236 -2 266 -2 c 0,0,1
388.5 291.5 m 128,-1,25
 429 325 429 325 429 378.5 c 128,-1,26
 429 432 429 432 390 470.5 c 128,-1,27
 351 509 351 509 292.5 509 c 128,-1,28
 234 509 234 509 196 474.5 c 128,-1,29
 158 440 158 440 158 386 c 128,-1,30
 158 332 158 332 192.5 295 c 128,-1,31
 227 258 227 258 287.5 258 c 128,-1,24
 348 258 348 258 388.5 291.5 c 128,-1,25
EndSplineSet
EndChar

StartChar: colon
Encoding: 58 58 31
Width: 293
GlyphClass: 2
Flags: W
LayerCount: 2
Fore
SplineSet
72 67 m 128,-1,1
 72 98 72 98 93.5 119.5 c 128,-1,2
 115 141 115 141 146 141 c 128,-1,3
 177 141 177 141 199 119.5 c 128,-1,4
 221 98 221 98 221 67 c 128,-1,5
 221 36 221 36 199 14 c 128,-1,6
 177 -8 177 -8 146 -8 c 128,-1,7
 115 -8 115 -8 93.5 14 c 128,-1,0
 72 36 72 36 72 67 c 128,-1,1
72 312 m 128,-1,9
 72 343 72 343 93.5 364.5 c 128,-1,10
 115 386 115 386 146 386 c 128,-1,11
 177 386 177 386 199 364.5 c 128,-1,12
 221 343 221 343 221 312 c 128,-1,13
 221 281 221 281 199 259 c 128,-1,14
 177 237 177 237 146 237 c 128,-1,15
 115 237 115 237 93.5 259 c 128,-1,8
 72 281 72 281 72 312 c 128,-1,9
EndSplineSet
EndChar

StartChar: semicolon
Encoding: 59 59 32
Width: 296
GlyphClass: 2
Flags: W
LayerCount: 2
Fore
SplineSet
73 66 m 0,0,1
 73 98 73 98 95 119.5 c 128,-1,2
 117 141 117 141 147.5 141 c 128,-1,3
 178 141 178 141 200.5 119.5 c 128,-1,4
 223 98 223 98 223 69 c 128,-1,5
 223 40 223 40 196 -6 c 1,6,-1
 135 -105 l 1,7,-1
 77 -105 l 1,8,-1
 114 -1 l 1,9,10
 73 20 73 20 73 66 c 0,0,1
73 312 m 128,-1,12
 73 343 73 343 94.5 364.5 c 128,-1,13
 116 386 116 386 147 386 c 128,-1,14
 178 386 178 386 200 364.5 c 128,-1,15
 222 343 222 343 222 312 c 128,-1,16
 222 281 222 281 200 259 c 128,-1,17
 178 237 178 237 147 237 c 128,-1,18
 116 237 116 237 94.5 259 c 128,-1,11
 73 281 73 281 73 312 c 128,-1,12
EndSplineSet
EndChar

StartChar: less
Encoding: 60 60 33
Width: 592
GlyphClass: 2
Flags: W
LayerCount: 2
Fore
SplineSet
45 334 m 1,0,-1
 45 460 l 1,1,-1
 516 678 l 1,2,-1
 516 564 l 1,3,-1
 164 405 l 1,4,-1
 164 394 l 1,5,-1
 516 231 l 1,6,-1
 516 117 l 1,7,-1
 45 334 l 1,0,-1
EndSplineSet
EndChar

StartChar: equal
Encoding: 61 61 34
Width: 624
GlyphClass: 2
Flags: W
LayerCount: 2
Fore
SplineSet
60 528 m 1,0,-1
 564 528 l 1,1,-1
 564 434 l 1,2,-1
 60 434 l 1,3,-1
 60 528 l 1,0,-1
60 340 m 1,4,-1
 564 340 l 1,5,-1
 564 246 l 1,6,-1
 60 246 l 1,7,-1
 60 340 l 1,4,-1
EndSplineSet
EndChar

StartChar: greater
Encoding: 62 62 35
Width: 592
GlyphClass: 2
Flags: W
LayerCount: 2
Fore
SplineSet
547 460 m 1,0,-1
 547 334 l 1,1,-1
 76 117 l 1,2,-1
 76 231 l 1,3,-1
 428 394 l 1,4,-1
 428 405 l 1,5,-1
 76 564 l 1,6,-1
 76 678 l 1,7,-1
 547 460 l 1,0,-1
EndSplineSet
EndChar

StartChar: question
Encoding: 63 63 36
Width: 508
GlyphClass: 2
Flags: W
LayerCount: 2
Fore
SplineSet
302 217 m 1,0,-1
 189 217 l 1,1,-1
 189 278 l 2,2,3
 189 318 189 318 198.5 337.5 c 128,-1,4
 208 357 208 357 240 389 c 2,5,-1
 313 462 l 1,6,7
 336 487 336 487 336 524 c 128,-1,8
 336 561 336 561 312 585.5 c 128,-1,9
 288 610 288 610 250 610 c 128,-1,10
 212 610 212 610 186.5 586.5 c 128,-1,11
 161 563 161 563 157 524 c 1,12,-1
 36 524 l 1,13,14
 46 613 46 613 105.5 663.5 c 128,-1,15
 165 714 165 714 254 714 c 128,-1,16
 343 714 343 714 399 665.5 c 128,-1,17
 455 617 455 617 455 530 c 0,18,19
 455 470 455 470 422 430 c 0,20,21
 403 406 403 406 393 396 c 128,-1,22
 383 386 383 386 366.5 370.5 c 128,-1,23
 350 355 350 355 338.5 343.5 c 128,-1,24
 327 332 327 332 320 324 c 0,25,26
 302 302 302 302 302 262 c 2,27,-1
 302 217 l 1,0,-1
193 16.5 m 128,-1,29
 170 38 170 38 170 68.5 c 128,-1,30
 170 99 170 99 192.5 121 c 128,-1,31
 215 143 215 143 246.5 143 c 128,-1,32
 278 143 278 143 301 121.5 c 128,-1,33
 324 100 324 100 324 69.5 c 128,-1,34
 324 39 324 39 301.5 17 c 128,-1,35
 279 -5 279 -5 247.5 -5 c 128,-1,28
 216 -5 216 -5 193 16.5 c 128,-1,29
EndSplineSet
EndChar

StartChar: at
Encoding: 64 64 37
Width: 904
GlyphClass: 2
Flags: W
LayerCount: 2
Fore
SplineSet
446 -126 m 0,0,1
 278 -126 278 -126 164.5 -14 c 128,-1,2
 51 98 51 98 51 266 c 128,-1,3
 51 434 51 434 170 553.5 c 128,-1,4
 289 673 289 673 457.5 673 c 128,-1,5
 626 673 626 673 741.5 553.5 c 128,-1,6
 857 434 857 434 857 262 c 0,7,8
 857 154 857 154 816 87.5 c 128,-1,9
 775 21 775 21 707 21 c 0,10,11
 658 21 658 21 629 54.5 c 128,-1,12
 600 88 600 88 598 150 c 1,13,14
 542 21 542 21 419 21 c 0,15,16
 333 21 333 21 267.5 90 c 128,-1,17
 202 159 202 159 202 265 c 128,-1,18
 202 371 202 371 264 443 c 128,-1,19
 326 515 326 515 428 515 c 0,20,21
 474 515 474 515 515 491 c 128,-1,22
 556 467 556 467 574 434 c 1,23,-1
 574 501 l 1,24,-1
 670 501 l 1,25,-1
 670 152 l 2,26,27
 670 82 670 82 725 82 c 0,28,29
 756 82 756 82 781.5 127.5 c 128,-1,30
 807 173 807 173 807 247 c 0,31,32
 807 407 807 407 710.5 518 c 128,-1,33
 614 629 614 629 461.5 629 c 128,-1,34
 309 629 309 629 202 522 c 128,-1,35
 95 415 95 415 95 266 c 128,-1,36
 95 117 95 117 196 17.5 c 128,-1,37
 297 -82 297 -82 446 -82 c 0,38,39
 566 -82 566 -82 630 -22 c 1,40,-1
 652 -59 l 1,41,42
 617 -89 617 -89 559 -107.5 c 128,-1,43
 501 -126 501 -126 446 -126 c 0,0,1
537 376 m 128,-1,45
 499 418 499 418 438 418 c 128,-1,46
 377 418 377 418 340 375 c 128,-1,47
 303 332 303 332 303 269.5 c 128,-1,48
 303 207 303 207 339.5 160.5 c 128,-1,49
 376 114 376 114 439 114 c 128,-1,50
 502 114 502 114 538.5 159.5 c 128,-1,51
 575 205 575 205 575 269.5 c 128,-1,44
 575 334 575 334 537 376 c 128,-1,45
EndSplineSet
EndChar

StartChar: A
Encoding: 65 65 38
Width: 767
GlyphClass: 2
Flags: W
LayerCount: 2
Fore
SplineSet
88 0 m 1,0,-1
 88 402 l 2,1,2
 88 556 88 556 166 636 c 128,-1,3
 244 716 244 716 383.5 716 c 128,-1,4
 523 716 523 716 600.5 637 c 128,-1,5
 678 558 678 558 678 408 c 2,6,-1
 678 0 l 1,7,-1
 559 0 l 1,8,-1
 559 173 l 1,9,-1
 206 173 l 1,10,-1
 206 0 l 1,11,-1
 88 0 l 1,0,-1
206 407 m 2,12,-1
 206 283 l 1,13,-1
 559 283 l 1,14,-1
 559 402 l 2,15,16
 559 499 559 499 512 552 c 128,-1,17
 465 605 465 605 382 605 c 128,-1,18
 299 605 299 605 252.5 554 c 128,-1,19
 206 503 206 503 206 407 c 2,12,-1
EndSplineSet
EndChar

StartChar: B
Encoding: 66 66 39
Width: 706
GlyphClass: 2
Flags: W
LayerCount: 2
Fore
SplineSet
403 0 m 2,0,-1
 97 0 l 1,1,-1
 97 699 l 1,2,-1
 369 699 l 2,3,4
 440 699 440 699 491.5 682 c 128,-1,5
 543 665 543 665 568 636 c 0,6,7
 616 582 616 582 616 514 c 0,8,9
 616 432 616 432 564 392 c 0,10,11
 545 378 545 378 538 374.5 c 128,-1,12
 531 371 531 371 513 363 c 1,13,14
 578 349 578 349 616.5 304.5 c 128,-1,15
 655 260 655 260 655 194 c 0,16,17
 655 121 655 121 605 65 c 0,18,19
 546 0 546 0 403 0 c 2,0,-1
215 409 m 1,20,-1
 365 409 l 2,21,22
 493 409 493 409 493 496 c 0,23,24
 493 546 493 546 462 568 c 128,-1,25
 431 590 431 590 366 590 c 2,26,-1
 215 590 l 1,27,-1
 215 409 l 1,20,-1
215 109 m 1,28,-1
 400 109 l 2,29,30
 465 109 465 109 499.5 129.5 c 128,-1,31
 534 150 534 150 534 207 c 0,32,33
 534 300 534 300 385 300 c 2,34,-1
 215 300 l 1,35,-1
 215 109 l 1,28,-1
EndSplineSet
EndChar

StartChar: C
Encoding: 67 67 40
Width: 736
GlyphClass: 2
Flags: W
LayerCount: 2
Fore
SplineSet
416 107 m 0,0,1
 477 107 477 107 521 127.5 c 128,-1,2
 565 148 565 148 613 193 c 1,3,-1
 689 115 l 1,4,5
 578 -8 578 -8 419.5 -8 c 128,-1,6
 261 -8 261 -8 156.5 94 c 128,-1,7
 52 196 52 196 52 352 c 128,-1,8
 52 508 52 508 158.5 612 c 128,-1,9
 265 716 265 716 427.5 716 c 128,-1,10
 590 716 590 716 699 596 c 1,11,-1
 624 514 l 1,12,13
 574 562 574 562 529.5 581 c 128,-1,14
 485 600 485 600 425 600 c 0,15,16
 319 600 319 600 247 531.5 c 128,-1,17
 175 463 175 463 175 356.5 c 128,-1,18
 175 250 175 250 246.5 178.5 c 128,-1,19
 318 107 318 107 416 107 c 0,0,1
EndSplineSet
EndChar

StartChar: D
Encoding: 68 68 41
Width: 782
GlyphClass: 2
Flags: W
LayerCount: 2
Fore
SplineSet
626 607.5 m 128,-1,1
 727 516 727 516 727 353 c 128,-1,2
 727 190 727 190 629 95 c 128,-1,3
 531 0 531 0 329 0 c 2,4,-1
 97 0 l 1,5,-1
 97 699 l 1,6,-1
 337 699 l 2,7,0
 525 699 525 699 626 607.5 c 128,-1,1
608 350 m 0,8,9
 608 590 608 590 333 590 c 2,10,-1
 215 590 l 1,11,-1
 215 111 l 1,12,-1
 346 111 l 2,13,14
 473 111 473 111 540.5 171.5 c 128,-1,15
 608 232 608 232 608 350 c 0,8,9
EndSplineSet
EndChar

StartChar: E
Encoding: 69 69 42
Width: 581
GlyphClass: 2
Flags: W
LayerCount: 2
Fore
SplineSet
341 600 m 0,0,1
 210 600 210 600 210 522 c 0,2,3
 210 421 210 421 377 421 c 2,4,-1
 472 421 l 1,5,-1
 472 315 l 1,6,7
 409 315 409 315 371.5 315 c 128,-1,8
 334 315 334 315 305.5 313 c 128,-1,9
 277 311 277 311 263 307.5 c 128,-1,10
 249 304 249 304 228.5 296 c 128,-1,11
 208 288 208 288 198 277 c 0,12,13
 172 248 172 248 172 208 c 0,14,15
 172 107 172 107 338 107 c 0,16,17
 390 107 390 107 439.5 119.5 c 128,-1,18
 489 132 489 132 517 149 c 1,19,-1
 549 43 l 1,20,21
 456 -7 456 -7 325.5 -7 c 128,-1,22
 195 -7 195 -7 122.5 48 c 128,-1,23
 50 103 50 103 50 205 c 0,24,25
 50 321 50 321 165 376 c 1,26,27
 84 433 84 433 84 533 c 0,28,29
 84 614 84 614 150.5 665 c 128,-1,30
 217 716 217 716 329 716 c 0,31,32
 375 716 375 716 427.5 706 c 128,-1,33
 480 696 480 696 513 680 c 1,34,-1
 489 568 l 1,35,36
 416 600 416 600 341 600 c 0,0,1
EndSplineSet
EndChar

StartChar: F
Encoding: 70 70 43
Width: 582
GlyphClass: 2
Flags: W
LayerCount: 2
Fore
SplineSet
538 568 m 1,0,1
 465 600 465 600 374.5 600 c 128,-1,2
 284 600 284 600 246 558.5 c 128,-1,3
 208 517 208 517 208 450 c 2,4,-1
 208 367 l 1,5,-1
 455 367 l 1,6,-1
 455 257 l 1,7,-1
 208 257 l 1,8,-1
 208 0 l 1,9,-1
 90 0 l 1,10,-1
 90 438 l 2,11,12
 90 575 90 575 164 645.5 c 128,-1,13
 238 716 238 716 358 716 c 0,14,15
 406 716 406 716 468 705.5 c 128,-1,16
 530 695 530 695 562 680 c 1,17,-1
 538 568 l 1,0,1
EndSplineSet
EndChar

StartChar: G
Encoding: 71 71 44
Width: 762
GlyphClass: 2
Flags: W
LayerCount: 2
Fore
SplineSet
426 600 m 0,0,1
 320 600 320 600 248 531.5 c 128,-1,2
 176 463 176 463 176 350.5 c 128,-1,3
 176 238 176 238 237 172 c 128,-1,4
 298 106 298 106 405.5 106 c 128,-1,5
 513 106 513 106 582 191 c 1,6,-1
 582 330 l 1,7,-1
 700 330 l 1,8,-1
 700 -7 l 1,9,-1
 582 -7 l 1,10,-1
 582 52 l 1,11,12
 498 -7 498 -7 397 -7 c 0,13,14
 244 -7 244 -7 148.5 93.5 c 128,-1,15
 53 194 53 194 53 351 c 128,-1,16
 53 508 53 508 159.5 612 c 128,-1,17
 266 716 266 716 417 716 c 128,-1,18
 568 716 568 716 668 628 c 1,19,-1
 605 538 l 1,20,21
 564 573 564 573 522.5 586.5 c 128,-1,22
 481 600 481 600 426 600 c 0,0,1
EndSplineSet
EndChar

StartChar: H
Encoding: 72 72 45
Width: 777
GlyphClass: 2
Flags: W
LayerCount: 2
Fore
SplineSet
97 0 m 1,0,-1
 97 699 l 1,1,-1
 215 699 l 1,2,-1
 215 396 l 1,3,-1
 562 396 l 1,4,-1
 562 699 l 1,5,-1
 680 699 l 1,6,-1
 680 0 l 1,7,-1
 562 0 l 1,8,-1
 562 286 l 1,9,-1
 215 286 l 1,10,-1
 215 0 l 1,11,-1
 97 0 l 1,0,-1
EndSplineSet
EndChar

StartChar: I
Encoding: 73 73 46
Width: 484
GlyphClass: 2
Flags: W
LayerCount: 2
Fore
SplineSet
432 99 m 1,0,-1
 432 -7 l 1,1,-1
 52 -7 l 1,2,-1
 52 99 l 1,3,-1
 180 99 l 1,4,-1
 180 593 l 1,5,-1
 52 593 l 1,6,-1
 52 699 l 1,7,-1
 432 699 l 1,8,-1
 432 593 l 1,9,-1
 298 593 l 1,10,-1
 298 99 l 1,11,-1
 432 99 l 1,0,-1
EndSplineSet
EndChar

StartChar: J
Encoding: 74 74 47
Width: 569
GlyphClass: 2
Flags: W
LayerCount: 2
Fore
SplineSet
114 593 m 1,0,-1
 114 699 l 1,1,-1
 474 699 l 1,2,-1
 474 128 l 2,3,4
 474 46 474 46 438 -11 c 0,5,6
 372 -116 372 -116 237 -116 c 128,-1,7
 102 -116 102 -116 11 -15 c 1,8,-1
 81 73 l 1,9,10
 148 -2 148 -2 225 -2 c 0,11,12
 274 -2 274 -2 315 30 c 128,-1,13
 356 62 356 62 356 122 c 2,14,-1
 356 593 l 1,15,-1
 114 593 l 1,0,-1
EndSplineSet
EndChar

StartChar: K
Encoding: 75 75 48
Width: 704
GlyphClass: 2
Flags: W
LayerCount: 2
Fore
SplineSet
97 699 m 1,0,-1
 215 699 l 1,1,-1
 215 358 l 1,2,-1
 535 699 l 1,3,-1
 685 699 l 1,4,-1
 404 393 l 1,5,-1
 689 0 l 1,6,-1
 549 0 l 1,7,-1
 317 306 l 1,8,-1
 215 196 l 1,9,-1
 215 0 l 1,10,-1
 97 0 l 1,11,-1
 97 699 l 1,0,-1
EndSplineSet
EndChar

StartChar: L
Encoding: 76 76 49
Width: 566
GlyphClass: 2
Flags: W
LayerCount: 2
Fore
SplineSet
97 0 m 1,0,-1
 97 699 l 1,1,-1
 215 699 l 1,2,-1
 215 112 l 1,3,-1
 534 112 l 1,4,-1
 534 0 l 1,5,-1
 97 0 l 1,0,-1
EndSplineSet
EndChar

StartChar: M
Encoding: 77 77 50
Width: 1077
GlyphClass: 2
Flags: W
LayerCount: 2
Fore
SplineSet
602 410 m 2,0,-1
 602 0 l 1,1,-1
 482 0 l 1,2,-1
 482 410 l 2,3,4
 482 600 482 600 351 600 c 0,5,6
 290 600 290 600 252.5 558 c 128,-1,7
 215 516 215 516 215 428 c 2,8,-1
 215 0 l 1,9,-1
 97 0 l 1,10,-1
 97 699 l 1,11,-1
 215 699 l 1,12,-1
 215 643 l 1,13,14
 241 679 241 679 283 697.5 c 128,-1,15
 325 716 325 716 374.5 716 c 128,-1,16
 424 716 424 716 471.5 682.5 c 128,-1,17
 519 649 519 649 542 589 c 1,18,19
 568 650 568 650 626 683 c 128,-1,20
 684 716 684 716 750 716 c 0,21,22
 863 716 863 716 925 647 c 128,-1,23
 987 578 987 578 987 462 c 2,24,-1
 987 0 l 1,25,-1
 869 0 l 1,26,-1
 869 423 l 2,27,28
 869 600 869 600 733 600 c 0,29,30
 671 600 671 600 636.5 547 c 128,-1,31
 602 494 602 494 602 410 c 2,0,-1
EndSplineSet
EndChar

StartChar: N
Encoding: 78 78 51
Width: 778
GlyphClass: 2
Flags: W
LayerCount: 2
Fore
SplineSet
527.5 550 m 128,-1,1
 484 605 484 605 402 605 c 128,-1,2
 320 605 320 605 267.5 548.5 c 128,-1,3
 215 492 215 492 215 397 c 2,4,-1
 215 0 l 1,5,-1
 97 0 l 1,6,-1
 97 699 l 1,7,-1
 215 699 l 1,8,-1
 215 633 l 1,9,10
 256 674 256 674 310.5 694.5 c 128,-1,11
 365 715 365 715 418 715 c 0,12,13
 534 715 534 715 611.5 634 c 128,-1,14
 689 553 689 553 689 411 c 2,15,-1
 689 0 l 1,16,-1
 571 0 l 1,17,-1
 571 397 l 2,18,0
 571 495 571 495 527.5 550 c 128,-1,1
EndSplineSet
EndChar

StartChar: O
Encoding: 79 79 52
Width: 840
GlyphClass: 2
Flags: W
LayerCount: 2
Fore
SplineSet
420 608 m 128,-1,1
 316 608 316 608 244.5 534 c 128,-1,2
 173 460 173 460 173 354.5 c 128,-1,3
 173 249 173 249 244.5 175 c 128,-1,4
 316 101 316 101 420 101 c 128,-1,5
 524 101 524 101 595.5 175 c 128,-1,6
 667 249 667 249 667 354.5 c 128,-1,7
 667 460 667 460 595.5 534 c 128,-1,0
 524 608 524 608 420 608 c 128,-1,1
420 -7 m 128,-1,9
 264 -7 264 -7 158 96.5 c 128,-1,10
 52 200 52 200 52 354.5 c 128,-1,11
 52 509 52 509 158 612.5 c 128,-1,12
 264 716 264 716 420 716 c 128,-1,13
 576 716 576 716 682 612.5 c 128,-1,14
 788 509 788 509 788 354.5 c 128,-1,15
 788 200 788 200 682 96.5 c 128,-1,8
 576 -7 576 -7 420 -7 c 128,-1,9
EndSplineSet
EndChar

StartChar: P
Encoding: 80 80 53
Width: 684
GlyphClass: 2
Flags: W
LayerCount: 2
Fore
SplineSet
569 638 m 128,-1,1
 642 577 642 577 642 450 c 128,-1,2
 642 323 642 323 567.5 264 c 128,-1,3
 493 205 493 205 339 205 c 2,4,-1
 215 205 l 1,5,-1
 215 0 l 1,6,-1
 97 0 l 1,7,-1
 97 699 l 1,8,-1
 337 699 l 2,9,0
 496 699 496 699 569 638 c 128,-1,1
485.5 349.5 m 128,-1,11
 521 387 521 387 521 459.5 c 128,-1,12
 521 532 521 532 476 562 c 128,-1,13
 431 592 431 592 335 592 c 2,14,-1
 215 592 l 1,15,-1
 215 312 l 1,16,-1
 352 312 l 2,17,10
 450 312 450 312 485.5 349.5 c 128,-1,11
EndSplineSet
EndChar

StartChar: Q
Encoding: 81 81 54
Width: 840
GlyphClass: 2
Flags: W
LayerCount: 2
Fore
SplineSet
682 612.5 m 128,-1,1
 788 509 788 509 788 362.5 c 128,-1,2
 788 216 788 216 700.5 117 c 128,-1,3
 613 18 613 18 479 -2 c 1,4,-1
 479 -122 l 1,5,-1
 361 -122 l 1,6,-1
 361 -2 l 1,7,8
 226 18 226 18 139 117 c 128,-1,9
 52 216 52 216 52 362.5 c 128,-1,10
 52 509 52 509 158 612.5 c 128,-1,11
 264 716 264 716 420 716 c 128,-1,0
 576 716 576 716 682 612.5 c 128,-1,1
361 220 m 1,12,-1
 479 220 l 1,13,-1
 479 108 l 1,14,15
 562 128 562 128 614.5 196.5 c 128,-1,16
 667 265 667 265 667 362.5 c 128,-1,17
 667 460 667 460 595.5 534 c 128,-1,18
 524 608 524 608 420 608 c 128,-1,19
 316 608 316 608 244.5 534 c 128,-1,20
 173 460 173 460 173 362.5 c 128,-1,21
 173 265 173 265 225.5 196.5 c 128,-1,22
 278 128 278 128 361 108 c 1,23,-1
 361 220 l 1,12,-1
EndSplineSet
EndChar

StartChar: R
Encoding: 82 82 55
Width: 728
GlyphClass: 2
Flags: W
LayerCount: 2
Fore
SplineSet
655 472 m 0,0,1
 655 299 655 299 504 254 c 1,2,-1
 687 0 l 1,3,-1
 537 0 l 1,4,-1
 370 235 l 1,5,-1
 215 235 l 1,6,-1
 215 0 l 1,7,-1
 97 0 l 1,8,-1
 97 699 l 1,9,-1
 357 699 l 2,10,11
 517 699 517 699 586 645 c 128,-1,12
 655 591 655 591 655 472 c 0,0,1
498 373 m 128,-1,14
 534 404 534 404 534 472.5 c 128,-1,15
 534 541 534 541 497 566.5 c 128,-1,16
 460 592 460 592 365 592 c 2,17,-1
 215 592 l 1,18,-1
 215 342 l 1,19,-1
 362 342 l 2,20,13
 462 342 462 342 498 373 c 128,-1,14
EndSplineSet
EndChar

StartChar: S
Encoding: 83 83 56
Width: 630
GlyphClass: 2
Flags: W
LayerCount: 2
Fore
SplineSet
224 586 m 128,-1,1
 191 565 191 565 191 522.5 c 128,-1,2
 191 480 191 480 224 457.5 c 128,-1,3
 257 435 257 435 364.5 409 c 128,-1,4
 472 383 472 383 526.5 336 c 128,-1,5
 581 289 581 289 581 197.5 c 128,-1,6
 581 106 581 106 512 49 c 128,-1,7
 443 -8 443 -8 331 -8 c 0,8,9
 167 -8 167 -8 40 105 c 1,10,-1
 114 194 l 1,11,12
 220 102 220 102 334 102 c 0,13,14
 391 102 391 102 424.5 126.5 c 128,-1,15
 458 151 458 151 458 191.5 c 128,-1,16
 458 232 458 232 426.5 254.5 c 128,-1,17
 395 277 395 277 318 295.5 c 128,-1,18
 241 314 241 314 201 329.5 c 128,-1,19
 161 345 161 345 130 370 c 1,20,21
 68 417 68 417 68 514 c 128,-1,22
 68 611 68 611 138.5 663.5 c 128,-1,23
 209 716 209 716 313 716 c 0,24,25
 380 716 380 716 446 694 c 128,-1,26
 512 672 512 672 560 632 c 1,27,-1
 497 543 l 1,28,29
 466 571 466 571 413 589 c 128,-1,30
 360 607 360 607 308.5 607 c 128,-1,0
 257 607 257 607 224 586 c 128,-1,1
EndSplineSet
EndChar

StartChar: T
Encoding: 84 84 57
Width: 676
GlyphClass: 2
Flags: W
LayerCount: 2
Fore
SplineSet
398 0 m 1,0,-1
 280 0 l 1,1,-1
 280 597 l 1,2,3
 230 589 230 589 181 569.5 c 128,-1,4
 132 550 132 550 108 534 c 2,5,-1
 84 519 l 1,6,-1
 18 613 l 1,7,8
 67 657 67 657 156.5 686.5 c 128,-1,9
 246 716 246 716 338 716 c 128,-1,10
 430 716 430 716 519.5 686.5 c 128,-1,11
 609 657 609 657 658 613 c 1,12,-1
 592 519 l 1,13,14
 564 541 564 541 505.5 565 c 128,-1,15
 447 589 447 589 398 597 c 1,16,-1
 398 0 l 1,0,-1
EndSplineSet
EndChar

StartChar: U
Encoding: 85 85 58
Width: 777
GlyphClass: 2
Flags: W
LayerCount: 2
Fore
SplineSet
384 104 m 128,-1,1
 466 104 466 104 514 160 c 128,-1,2
 562 216 562 216 562 312 c 2,3,-1
 562 699 l 1,4,-1
 680 699 l 1,5,-1
 680 0 l 1,6,-1
 562 0 l 1,7,-1
 562 65 l 1,8,9
 488 -7 488 -7 384 -7 c 0,10,11
 254 -7 254 -7 171 74.5 c 128,-1,12
 88 156 88 156 88 307 c 2,13,-1
 88 699 l 1,14,-1
 206 699 l 1,15,-1
 206 312 l 2,16,17
 206 216 206 216 254 160 c 128,-1,0
 302 104 302 104 384 104 c 128,-1,1
EndSplineSet
EndChar

StartChar: V
Encoding: 86 86 59
Width: 700
GlyphClass: 2
Flags: W
LayerCount: 2
Fore
SplineSet
416 0 m 1,0,-1
 284 0 l 1,1,-1
 3 699 l 1,2,-1
 135 699 l 1,3,-1
 350 177 l 1,4,-1
 565 699 l 1,5,-1
 697 699 l 1,6,-1
 416 0 l 1,0,-1
EndSplineSet
EndChar

StartChar: W
Encoding: 87 87 60
Width: 1047
GlyphClass: 2
Flags: W
LayerCount: 2
Fore
SplineSet
844 699 m 1,0,-1
 959 699 l 1,1,-1
 959 268 l 2,2,3
 959 137 959 137 894.5 64.5 c 128,-1,4
 830 -8 830 -8 709.5 -8 c 128,-1,5
 589 -8 589 -8 523 86 c 1,6,7
 454 -8 454 -8 335.5 -8 c 128,-1,8
 217 -8 217 -8 152.5 64.5 c 128,-1,9
 88 137 88 137 88 268 c 2,10,-1
 88 699 l 1,11,-1
 203 699 l 1,12,-1
 203 268 l 2,13,14
 203 190 203 190 237.5 147.5 c 128,-1,15
 272 105 272 105 334.5 105 c 128,-1,16
 397 105 397 105 430 147.5 c 128,-1,17
 463 190 463 190 463 268 c 2,18,-1
 464 699 l 1,19,-1
 582 699 l 1,20,-1
 583 268 l 2,21,22
 583 190 583 190 616 147.5 c 128,-1,23
 649 105 649 105 711.5 105 c 128,-1,24
 774 105 774 105 809 147.5 c 128,-1,25
 844 190 844 190 844 268 c 2,26,-1
 844 699 l 1,0,-1
EndSplineSet
EndChar

StartChar: X
Encoding: 88 88 61
Width: 677
GlyphClass: 2
Flags: W
LayerCount: 2
Fore
SplineSet
512 0 m 1,0,-1
 340 263 l 1,1,-1
 335 263 l 1,2,-1
 163 0 l 1,3,-1
 16 0 l 1,4,-1
 256 359 l 1,5,-1
 33 699 l 1,6,-1
 179 699 l 1,7,-1
 335 463 l 1,8,-1
 340 463 l 1,9,-1
 496 699 l 1,10,-1
 642 699 l 1,11,-1
 419 359 l 1,12,-1
 659 0 l 1,13,-1
 512 0 l 1,0,-1
EndSplineSet
EndChar

StartChar: Y
Encoding: 89 89 62
Width: 724
GlyphClass: 2
Flags: W
LayerCount: 2
Fore
SplineSet
338 -4 m 0,0,1
 420 -4 420 -4 468 52 c 128,-1,2
 516 108 516 108 516 204 c 2,3,-1
 516 231 l 1,4,5
 437 164 437 164 351 164 c 0,6,7
 223 164 223 164 149 240 c 128,-1,8
 75 316 75 316 75 468 c 2,9,-1
 75 699 l 1,10,-1
 193 699 l 1,11,-1
 193 473 l 2,12,13
 193 275 193 275 351 275 c 0,14,15
 419 275 419 275 462.5 315.5 c 128,-1,16
 506 356 506 356 516 426 c 1,17,-1
 516 700 l 1,18,-1
 634 700 l 1,19,-1
 634 199 l 2,20,21
 634 48 634 48 551 -33.5 c 128,-1,22
 468 -115 468 -115 338 -115 c 0,23,24
 243 -115 243 -115 171 -70 c 128,-1,25
 99 -25 99 -25 66 60 c 1,26,-1
 174 111 l 1,27,28
 194 56 194 56 236 26 c 128,-1,29
 278 -4 278 -4 338 -4 c 0,0,1
EndSplineSet
EndChar

StartChar: Z
Encoding: 90 90 63
Width: 675
GlyphClass: 2
Flags: W
LayerCount: 2
Fore
SplineSet
454 591 m 1,0,-1
 60 591 l 1,1,-1
 60 699 l 1,2,-1
 618 699 l 1,3,-1
 618 607 l 1,4,-1
 431 379 l 1,5,-1
 565 379 l 1,6,-1
 565 309 l 1,7,-1
 373 309 l 1,8,-1
 212 112 l 1,9,-1
 212 109 l 1,10,-1
 624 109 l 1,11,-1
 624 0 l 1,12,-1
 47 0 l 1,13,-1
 47 91 l 1,14,-1
 225 309 l 1,15,-1
 87 309 l 1,16,-1
 87 379 l 1,17,-1
 283 379 l 1,18,-1
 454 588 l 1,19,-1
 454 591 l 1,0,-1
EndSplineSet
EndChar

StartChar: bracketleft
Encoding: 91 91 64
Width: 355
GlyphClass: 2
Flags: W
LayerCount: 2
Fore
SplineSet
314 757 m 1,0,-1
 314 673 l 1,1,-1
 176 673 l 1,2,-1
 176 -56 l 1,3,-1
 314 -56 l 1,4,-1
 314 -140 l 1,5,-1
 88 -140 l 1,6,-1
 88 757 l 1,7,-1
 314 757 l 1,0,-1
EndSplineSet
EndChar

StartChar: backslash
Encoding: 92 92 65
Width: 522
GlyphClass: 2
Flags: W
LayerCount: 2
Fore
SplineSet
28 757 m 1,0,-1
 128 757 l 1,1,-1
 492 0 l 1,2,-1
 392 0 l 1,3,-1
 28 757 l 1,0,-1
EndSplineSet
EndChar

StartChar: bracketright
Encoding: 93 93 66
Width: 355
GlyphClass: 2
Flags: W
LayerCount: 2
Fore
SplineSet
41 673 m 1,0,-1
 41 757 l 1,1,-1
 267 757 l 1,2,-1
 267 -140 l 1,3,-1
 41 -140 l 1,4,-1
 41 -56 l 1,5,-1
 179 -56 l 1,6,-1
 179 673 l 1,7,-1
 41 673 l 1,0,-1
EndSplineSet
EndChar

StartChar: asciicircum
Encoding: 94 94 67
Width: 394
GlyphClass: 2
Flags: W
LayerCount: 2
Fore
SplineSet
273 742 m 1,0,-1
 196 825 l 1,1,-1
 119 742 l 1,2,-1
 22 742 l 1,3,-1
 144 898 l 1,4,-1
 246 898 l 1,5,-1
 367 742 l 1,6,-1
 273 742 l 1,0,-1
EndSplineSet
EndChar

StartChar: underscore
Encoding: 95 95 68
Width: 722
GlyphClass: 2
Flags: W
LayerCount: 2
Fore
SplineSet
72 -138 m 1,0,-1
 72 -81 l 1,1,-1
 650 -81 l 1,2,-1
 650 -138 l 1,3,-1
 72 -138 l 1,0,-1
EndSplineSet
EndChar

StartChar: grave
Encoding: 96 96 69
Width: 833
GlyphClass: 2
Flags: W
LayerCount: 2
Fore
SplineSet
540 600 m 1,0,-1
 438 600 l 1,1,-1
 316 696 l 1,2,-1
 434 745 l 1,3,-1
 540 600 l 1,0,-1
EndSplineSet
EndChar

StartChar: a
Encoding: 97 97 70
Width: 672
GlyphClass: 2
Flags: W
LayerCount: 2
Fore
SplineSet
122 68 m 128,-1,1
 47 144 47 144 47 268 c 128,-1,2
 47 392 47 392 124 466 c 128,-1,3
 201 540 201 540 306 540 c 128,-1,4
 411 540 411 540 479 440 c 1,5,-1
 479 532 l 1,6,-1
 591 532 l 1,7,-1
 591 0 l 1,8,-1
 479 0 l 1,9,-1
 479 87 l 1,10,11
 447 41 447 41 397.5 16.5 c 128,-1,12
 348 -8 348 -8 298 -8 c 0,13,0
 197 -8 197 -8 122 68 c 128,-1,1
208 139 m 128,-1,15
 257 91 257 91 323 91 c 128,-1,16
 389 91 389 91 435 139.5 c 128,-1,17
 481 188 481 188 481 264 c 128,-1,18
 481 340 481 340 435 391 c 128,-1,19
 389 442 389 442 322 442 c 128,-1,20
 255 442 255 442 207 391 c 128,-1,21
 159 340 159 340 159 263.5 c 128,-1,14
 159 187 159 187 208 139 c 128,-1,15
EndSplineSet
EndChar

StartChar: b
Encoding: 98 98 71
Width: 672
GlyphClass: 2
Flags: W
LayerCount: 2
Fore
SplineSet
549 466 m 128,-1,1
 625 392 625 392 625 269 c 128,-1,2
 625 146 625 146 549.5 69 c 128,-1,3
 474 -8 474 -8 373.5 -8 c 128,-1,4
 273 -8 273 -8 193 80 c 1,5,-1
 193 0 l 1,6,-1
 81 0 l 1,7,-1
 81 742 l 1,8,-1
 193 742 l 1,9,-1
 193 439 l 1,10,11
 259 540 259 540 366 540 c 128,-1,0
 473 540 473 540 549 466 c 128,-1,1
237 140.5 m 128,-1,13
 283 92 283 92 349 92 c 128,-1,14
 415 92 415 92 464 140 c 128,-1,15
 513 188 513 188 513 264.5 c 128,-1,16
 513 341 513 341 465 391.5 c 128,-1,17
 417 442 417 442 350 442 c 128,-1,18
 283 442 283 442 237 391.5 c 128,-1,19
 191 341 191 341 191 265 c 128,-1,12
 191 189 191 189 237 140.5 c 128,-1,13
EndSplineSet
EndChar

StartChar: c
Encoding: 99 99 72
Width: 576
GlyphClass: 2
Flags: W
LayerCount: 2
Fore
SplineSet
317 -8 m 0,0,1
 206 -8 206 -8 126 67.5 c 128,-1,2
 46 143 46 143 46 265 c 128,-1,3
 46 387 46 387 129.5 463.5 c 128,-1,4
 213 540 213 540 333 540 c 128,-1,5
 453 540 453 540 536 457 c 1,6,-1
 470 376 l 1,7,8
 401 436 401 436 331 436 c 128,-1,9
 261 436 261 436 209.5 389.5 c 128,-1,10
 158 343 158 343 158 269.5 c 128,-1,11
 158 196 158 196 209 145 c 128,-1,12
 260 94 260 94 334.5 94 c 128,-1,13
 409 94 409 94 475 162 c 1,14,-1
 541 90 l 1,15,16
 444 -8 444 -8 317 -8 c 0,0,1
EndSplineSet
EndChar

StartChar: d
Encoding: 100 100 73
Width: 672
GlyphClass: 2
Flags: W
LayerCount: 2
Fore
SplineSet
122 68 m 128,-1,1
 47 144 47 144 47 268 c 128,-1,2
 47 392 47 392 124 466 c 128,-1,3
 201 540 201 540 307.5 540 c 128,-1,4
 414 540 414 540 479 450 c 1,5,-1
 479 742 l 1,6,-1
 591 742 l 1,7,-1
 591 0 l 1,8,-1
 479 0 l 1,9,-1
 479 80 l 1,10,11
 417 -8 417 -8 298 -8 c 0,12,0
 197 -8 197 -8 122 68 c 128,-1,1
208 139 m 128,-1,14
 257 91 257 91 323 91 c 128,-1,15
 389 91 389 91 435 139.5 c 128,-1,16
 481 188 481 188 481 264 c 128,-1,17
 481 340 481 340 435 391 c 128,-1,18
 389 442 389 442 322 442 c 128,-1,19
 255 442 255 442 207 391 c 128,-1,20
 159 340 159 340 159 263.5 c 128,-1,13
 159 187 159 187 208 139 c 128,-1,14
EndSplineSet
EndChar

StartChar: e
Encoding: 101 101 74
Width: 612
GlyphClass: 2
Flags: W
LayerCount: 2
Fore
SplineSet
323 540 m 0,0,1
 432 540 432 540 504 479.5 c 128,-1,2
 576 419 576 419 577 322 c 1,3,-1
 578 320 l 1,4,-1
 190 157 l 1,5,6
 242 93 242 93 331.5 93 c 128,-1,7
 421 93 421 93 479 163 c 1,8,-1
 545 90 l 1,9,10
 450 -8 450 -8 321 -8 c 0,11,12
 208 -8 208 -8 127 67 c 128,-1,13
 46 142 46 142 46 265 c 0,14,15
 46 350 46 350 88 414.5 c 128,-1,16
 130 479 130 479 192 509.5 c 128,-1,17
 254 540 254 540 323 540 c 0,0,1
154 263 m 0,18,19
 154 250 154 250 155 244 c 1,20,-1
 450 371 l 1,21,22
 416 437 416 437 329 437 c 0,23,24
 263 437 263 437 208.5 391 c 128,-1,25
 154 345 154 345 154 263 c 0,18,19
EndSplineSet
EndChar

StartChar: f
Encoding: 102 102 75
Width: 370
GlyphClass: 2
Flags: W
LayerCount: 2
Fore
SplineSet
193 536 m 2,0,-1
 193 442 l 1,1,-1
 333 442 l 1,2,-1
 333 352 l 1,3,-1
 193 352 l 1,4,-1
 193 0 l 1,5,-1
 81 0 l 1,6,-1
 81 533 l 2,7,8
 81 619 81 619 134.5 667.5 c 128,-1,9
 188 716 188 716 271.5 716 c 128,-1,10
 355 716 355 716 414 663 c 1,11,-1
 368 573 l 1,12,13
 331 612 331 612 276 612 c 0,14,15
 193 612 193 612 193 536 c 2,0,-1
EndSplineSet
EndChar

StartChar: g
Encoding: 103 103 76
Width: 654
GlyphClass: 2
Flags: W
LayerCount: 2
Fore
SplineSet
313 -113 m 0,0,1
 461 -113 461 -113 461 78 c 2,2,-1
 461 108 l 1,3,4
 439 73 439 73 391.5 48.5 c 128,-1,5
 344 24 344 24 290 24 c 0,6,7
 184 24 184 24 116 98 c 128,-1,8
 48 172 48 172 48 282 c 128,-1,9
 48 392 48 392 116 466 c 128,-1,10
 184 540 184 540 287.5 540 c 128,-1,11
 391 540 391 540 461 468 c 1,12,-1
 461 532 l 1,13,-1
 573 532 l 1,14,-1
 573 75 l 2,15,16
 573 -64 573 -64 500.5 -138 c 128,-1,17
 428 -212 428 -212 313 -212 c 0,18,19
 225 -212 225 -212 158.5 -170 c 128,-1,20
 92 -128 92 -128 62 -50 c 1,21,-1
 160 -8 l 1,22,23
 200 -113 200 -113 313 -113 c 0,0,1
198.5 173.5 m 128,-1,25
 239 126 239 126 307.5 126 c 128,-1,26
 376 126 376 126 418.5 172 c 128,-1,27
 461 218 461 218 461 286.5 c 128,-1,28
 461 355 461 355 418 402.5 c 128,-1,29
 375 450 375 450 307 450 c 128,-1,30
 239 450 239 450 198.5 401 c 128,-1,31
 158 352 158 352 158 286.5 c 128,-1,24
 158 221 158 221 198.5 173.5 c 128,-1,25
EndSplineSet
EndChar

StartChar: h
Encoding: 104 104 77
Width: 646
GlyphClass: 2
Flags: W
LayerCount: 2
Fore
SplineSet
193 288 m 2,0,-1
 193 0 l 1,1,-1
 81 0 l 1,2,-1
 81 741 l 1,3,-1
 193 741 l 1,4,-1
 193 435 l 1,5,6
 217 484 217 484 265.5 512 c 128,-1,7
 314 540 314 540 370 540 c 0,8,9
 460 540 460 540 515.5 485 c 128,-1,10
 571 430 571 430 571 326 c 2,11,-1
 571 0 l 1,12,-1
 459 0 l 1,13,-1
 459 292 l 2,14,15
 459 439 459 439 337 439 c 0,16,17
 279 439 279 439 236 400.5 c 128,-1,18
 193 362 193 362 193 288 c 2,0,-1
EndSplineSet
EndChar

StartChar: i
Encoding: 105 105 78
Width: 274
GlyphClass: 2
Flags: W
LayerCount: 2
Fore
SplineSet
193 0 m 1,0,-1
 81 0 l 1,1,-1
 81 532 l 1,2,-1
 193 532 l 1,3,-1
 193 0 l 1,0,-1
67 688 m 128,-1,5
 67 717 67 717 88 738 c 128,-1,6
 109 759 109 759 138 759 c 128,-1,7
 167 759 167 759 188 738 c 128,-1,8
 209 717 209 717 209 688 c 128,-1,9
 209 659 209 659 188 638 c 128,-1,10
 167 617 167 617 138 617 c 128,-1,11
 109 617 109 617 88 638 c 128,-1,4
 67 659 67 659 67 688 c 128,-1,5
EndSplineSet
EndChar

StartChar: j
Encoding: 106 106 79
Width: 274
GlyphClass: 2
Flags: W
LayerCount: 2
Fore
SplineSet
81 -25 m 2,0,-1
 81 532 l 1,1,-1
 193 532 l 1,2,-1
 193 -29 l 2,3,4
 193 -113 193 -113 142.5 -162.5 c 128,-1,5
 92 -212 92 -212 20.5 -212 c 128,-1,6
 -51 -212 -51 -212 -110 -159 c 1,7,-1
 -58 -75 l 1,8,9
 -24 -108 -24 -108 10.5 -108 c 128,-1,10
 45 -108 45 -108 63 -86 c 128,-1,11
 81 -64 81 -64 81 -25 c 2,0,-1
65 688 m 128,-1,13
 65 717 65 717 86 738 c 128,-1,14
 107 759 107 759 136 759 c 128,-1,15
 165 759 165 759 186 738 c 128,-1,16
 207 717 207 717 207 688 c 128,-1,17
 207 659 207 659 186 638 c 128,-1,18
 165 617 165 617 136 617 c 128,-1,19
 107 617 107 617 86 638 c 128,-1,12
 65 659 65 659 65 688 c 128,-1,13
EndSplineSet
EndChar

StartChar: k
Encoding: 107 107 80
Width: 581
GlyphClass: 2
Flags: W
LayerCount: 2
Fore
SplineSet
193 0 m 1,0,-1
 81 0 l 1,1,-1
 81 742 l 1,2,-1
 193 742 l 1,3,-1
 193 306 l 1,4,-1
 409 532 l 1,5,-1
 553 532 l 1,6,-1
 351 321 l 1,7,-1
 568 0 l 1,8,-1
 432 0 l 1,9,-1
 274 233 l 1,10,-1
 193 151 l 1,11,-1
 193 0 l 1,0,-1
EndSplineSet
EndChar

StartChar: l
Encoding: 108 108 81
Width: 344
GlyphClass: 2
Flags: W
LayerCount: 2
Fore
SplineSet
347 38 m 1,0,1
 307 -8 307 -8 235 -8 c 128,-1,2
 163 -8 163 -8 119.5 35 c 128,-1,3
 76 78 76 78 76 162 c 2,4,-1
 76 699 l 1,5,-1
 188 699 l 1,6,-1
 188 175 l 2,7,8
 188 95 188 95 248 95 c 0,9,10
 283 95 283 95 298 120 c 1,11,-1
 347 38 l 1,0,1
EndSplineSet
EndChar

StartChar: m
Encoding: 109 109 82
Width: 1014
GlyphClass: 2
Flags: W
LayerCount: 2
Fore
SplineSet
193 288 m 2,0,-1
 193 0 l 1,1,-1
 81 0 l 1,2,-1
 81 532 l 1,3,-1
 193 532 l 1,4,-1
 193 435 l 1,5,6
 217 484 217 484 265.5 512 c 128,-1,7
 314 540 314 540 370 540 c 0,8,9
 496 540 496 540 541 436 c 1,10,11
 620 540 620 540 738 540 c 0,12,13
 828 540 828 540 883.5 485 c 128,-1,14
 939 430 939 430 939 326 c 2,15,-1
 939 0 l 1,16,-1
 827 0 l 1,17,-1
 827 292 l 2,18,19
 827 439 827 439 705 439 c 0,20,21
 648 439 648 439 605.5 402.5 c 128,-1,22
 563 366 563 366 561 296 c 1,23,-1
 561 0 l 1,24,-1
 449 0 l 1,25,-1
 449 292 l 2,26,27
 449 368 449 368 422 403.5 c 128,-1,28
 395 439 395 439 337 439 c 128,-1,29
 279 439 279 439 236 400.5 c 128,-1,30
 193 362 193 362 193 288 c 2,0,-1
EndSplineSet
EndChar

StartChar: n
Encoding: 110 110 83
Width: 646
GlyphClass: 2
Flags: W
LayerCount: 2
Fore
SplineSet
193 288 m 2,0,-1
 193 0 l 1,1,-1
 81 0 l 1,2,-1
 81 532 l 1,3,-1
 193 532 l 1,4,-1
 193 435 l 1,5,6
 220 484 220 484 267.5 512 c 128,-1,7
 315 540 315 540 370 540 c 0,8,9
 460 540 460 540 515.5 485 c 128,-1,10
 571 430 571 430 571 326 c 2,11,-1
 571 0 l 1,12,-1
 459 0 l 1,13,-1
 459 292 l 2,14,15
 459 439 459 439 337 439 c 0,16,17
 279 439 279 439 236 400.5 c 128,-1,18
 193 362 193 362 193 288 c 2,0,-1
EndSplineSet
EndChar

StartChar: o
Encoding: 111 111 84
Width: 652
GlyphClass: 2
Flags: W
LayerCount: 2
Fore
SplineSet
326 92 m 128,-1,1
 399 92 399 92 446.5 140.5 c 128,-1,2
 494 189 494 189 494 266 c 128,-1,3
 494 343 494 343 446.5 391.5 c 128,-1,4
 399 440 399 440 326 440 c 128,-1,5
 253 440 253 440 205.5 391.5 c 128,-1,6
 158 343 158 343 158 266 c 128,-1,7
 158 189 158 189 205.5 140.5 c 128,-1,0
 253 92 253 92 326 92 c 128,-1,1
326 -8 m 128,-1,9
 206 -8 206 -8 126 71.5 c 128,-1,10
 46 151 46 151 46 266 c 128,-1,11
 46 381 46 381 126 460.5 c 128,-1,12
 206 540 206 540 326 540 c 128,-1,13
 446 540 446 540 526 460.5 c 128,-1,14
 606 381 606 381 606 266 c 128,-1,15
 606 151 606 151 526 71.5 c 128,-1,8
 446 -8 446 -8 326 -8 c 128,-1,9
EndSplineSet
EndChar

StartChar: p
Encoding: 112 112 85
Width: 672
GlyphClass: 2
Flags: W
LayerCount: 2
Fore
SplineSet
549 466 m 128,-1,1
 625 392 625 392 625 269 c 128,-1,2
 625 146 625 146 549.5 69 c 128,-1,3
 474 -8 474 -8 373.5 -8 c 128,-1,4
 273 -8 273 -8 193 80 c 1,5,-1
 193 -194 l 1,6,-1
 81 -194 l 1,7,-1
 81 532 l 1,8,-1
 193 532 l 1,9,-1
 193 439 l 1,10,11
 259 540 259 540 366 540 c 128,-1,0
 473 540 473 540 549 466 c 128,-1,1
237 140.5 m 128,-1,13
 283 92 283 92 349 92 c 128,-1,14
 415 92 415 92 464 140 c 128,-1,15
 513 188 513 188 513 264.5 c 128,-1,16
 513 341 513 341 465 391.5 c 128,-1,17
 417 442 417 442 350 442 c 128,-1,18
 283 442 283 442 237 391.5 c 128,-1,19
 191 341 191 341 191 265 c 128,-1,12
 191 189 191 189 237 140.5 c 128,-1,13
EndSplineSet
EndChar

StartChar: q
Encoding: 113 113 86
Width: 672
GlyphClass: 2
Flags: W
LayerCount: 2
Fore
SplineSet
122.5 69 m 128,-1,1
 47 146 47 146 47 269 c 128,-1,2
 47 392 47 392 123 466 c 128,-1,3
 199 540 199 540 306 540 c 128,-1,4
 413 540 413 540 479 439 c 1,5,-1
 479 532 l 1,6,-1
 591 532 l 1,7,-1
 591 -194 l 1,8,-1
 479 -194 l 1,9,-1
 479 80 l 1,10,11
 399 -8 399 -8 298.5 -8 c 128,-1,0
 198 -8 198 -8 122.5 69 c 128,-1,1
208 140 m 128,-1,13
 257 92 257 92 323 92 c 128,-1,14
 389 92 389 92 435 140.5 c 128,-1,15
 481 189 481 189 481 265 c 128,-1,16
 481 341 481 341 435 391.5 c 128,-1,17
 389 442 389 442 322 442 c 128,-1,18
 255 442 255 442 207 391.5 c 128,-1,19
 159 341 159 341 159 264.5 c 128,-1,12
 159 188 159 188 208 140 c 128,-1,13
EndSplineSet
EndChar

StartChar: r
Encoding: 114 114 87
Width: 397
GlyphClass: 2
Flags: W
LayerCount: 2
Fore
SplineSet
360 427 m 0,0,1
 277 427 277 427 235 373 c 128,-1,2
 193 319 193 319 193 228 c 2,3,-1
 193 0 l 1,4,-1
 81 0 l 1,5,-1
 81 532 l 1,6,-1
 193 532 l 1,7,-1
 193 425 l 1,8,9
 220 475 220 475 266.5 507 c 128,-1,10
 313 539 313 539 365 540 c 1,11,-1
 366 427 l 1,12,13
 363 427 363 427 360 427 c 0,0,1
EndSplineSet
EndChar

StartChar: s
Encoding: 115 115 88
Width: 506
GlyphClass: 2
Flags: W
LayerCount: 2
Fore
SplineSet
405 37.5 m 128,-1,1
 350 -8 350 -8 264 -8 c 0,2,3
 206 -8 206 -8 143.5 13 c 128,-1,4
 81 34 81 34 33 72 c 1,5,-1
 87 159 l 1,6,7
 180 89 180 89 267 89 c 0,8,9
 305 89 305 89 327 106.5 c 128,-1,10
 349 124 349 124 349 151 c 0,11,12
 349 191 349 191 243 223 c 0,13,14
 235 226 235 226 231 227 c 0,15,16
 65 272 65 272 65 377 c 0,17,18
 65 451 65 451 122.5 495.5 c 128,-1,19
 180 540 180 540 272 540 c 128,-1,20
 364 540 364 540 446 486 c 1,21,-1
 404 403 l 1,22,23
 339 446 339 446 263 446 c 0,24,25
 223 446 223 446 198 431.5 c 128,-1,26
 173 417 173 417 173 388 c 0,27,28
 173 362 173 362 199 350 c 0,29,30
 217 341 217 341 249.5 333 c 128,-1,31
 282 325 282 325 307 317 c 128,-1,32
 332 309 332 309 355.5 299 c 128,-1,33
 379 289 379 289 406 271 c 0,34,35
 460 235 460 235 460 159 c 128,-1,0
 460 83 460 83 405 37.5 c 128,-1,1
EndSplineSet
EndChar

StartChar: t
Encoding: 116 116 89
Width: 387
GlyphClass: 2
Flags: W
LayerCount: 2
Fore
SplineSet
188 442 m 1,0,-1
 188 172 l 2,1,2
 188 134 188 134 208 111.5 c 128,-1,3
 228 89 228 89 264 89 c 128,-1,4
 300 89 300 89 333 124 c 1,5,-1
 379 45 l 1,6,7
 320 -8 320 -8 248.5 -8 c 128,-1,8
 177 -8 177 -8 126.5 41.5 c 128,-1,9
 76 91 76 91 76 175 c 2,10,-1
 76 699 l 1,11,-1
 188 699 l 1,12,-1
 188 532 l 1,13,-1
 328 532 l 1,14,-1
 328 442 l 1,15,-1
 188 442 l 1,0,-1
EndSplineSet
EndChar

StartChar: u
Encoding: 117 117 90
Width: 646
GlyphClass: 2
Flags: W
LayerCount: 2
Fore
SplineSet
453 244 m 2,0,-1
 453 532 l 1,1,-1
 565 532 l 1,2,-1
 565 0 l 1,3,-1
 453 0 l 1,4,-1
 453 97 l 1,5,6
 426 48 426 48 378.5 20 c 128,-1,7
 331 -8 331 -8 276 -8 c 0,8,9
 186 -8 186 -8 130.5 47 c 128,-1,10
 75 102 75 102 75 206 c 2,11,-1
 75 532 l 1,12,-1
 187 532 l 1,13,-1
 187 240 l 2,14,15
 187 93 187 93 309 93 c 0,16,17
 367 93 367 93 410 131.5 c 128,-1,18
 453 170 453 170 453 244 c 2,0,-1
EndSplineSet
EndChar

StartChar: v
Encoding: 118 118 91
Width: 572
GlyphClass: 2
Flags: W
LayerCount: 2
Fore
SplineSet
222 0 m 1,0,-1
 8 532 l 1,1,-1
 124 532 l 1,2,-1
 286 130 l 1,3,-1
 448 532 l 1,4,-1
 564 532 l 1,5,-1
 350 0 l 1,6,-1
 222 0 l 1,0,-1
EndSplineSet
EndChar

StartChar: w
Encoding: 119 119 92
Width: 912
GlyphClass: 2
Flags: W
LayerCount: 2
Fore
SplineSet
330 0 m 1,0,-1
 202 0 l 1,1,-1
 18 532 l 1,2,-1
 134 532 l 1,3,-1
 266 130 l 1,4,-1
 398 532 l 1,5,-1
 514 532 l 1,6,-1
 646 130 l 1,7,-1
 778 532 l 1,8,-1
 894 532 l 1,9,-1
 710 0 l 1,10,-1
 582 0 l 1,11,-1
 456 364 l 1,12,-1
 330 0 l 1,0,-1
EndSplineSet
EndChar

StartChar: x
Encoding: 120 120 93
Width: 558
GlyphClass: 2
Flags: W
LayerCount: 2
Fore
SplineSet
166 532 m 1,0,-1
 280 357 l 1,1,-1
 398 532 l 1,2,-1
 531 532 l 1,3,-1
 345 272 l 1,4,-1
 539 0 l 1,5,-1
 401 0 l 1,6,-1
 274 177 l 1,7,-1
 150 0 l 1,8,-1
 19 0 l 1,9,-1
 208 271 l 1,10,-1
 29 532 l 1,11,-1
 166 532 l 1,0,-1
EndSplineSet
EndChar

StartChar: y
Encoding: 121 121 94
Width: 645
GlyphClass: 2
Flags: W
LayerCount: 2
Fore
SplineSet
302 -110 m 0,0,1
 450 -110 450 -110 450 78 c 2,2,-1
 450 111 l 1,3,4
 383 42 383 42 279 42 c 0,5,6
 72 42 72 42 72 269 c 2,7,-1
 72 531 l 1,8,-1
 184 531 l 1,9,-1
 184 319 l 2,10,11
 184 226 184 226 212.5 187.5 c 128,-1,12
 241 149 241 149 310.5 149 c 128,-1,13
 380 149 380 149 412 184.5 c 128,-1,14
 444 220 444 220 450 292 c 1,15,-1
 450 532 l 1,16,-1
 562 532 l 1,17,-1
 562 75 l 2,18,19
 562 -64 562 -64 489.5 -138 c 128,-1,20
 417 -212 417 -212 302 -212 c 0,21,22
 214 -212 214 -212 147.5 -170 c 128,-1,23
 81 -128 81 -128 51 -50 c 1,24,-1
 152 -7 l 1,25,26
 191 -110 191 -110 302 -110 c 0,0,1
EndSplineSet
EndChar

StartChar: z
Encoding: 122 122 95
Width: 540
GlyphClass: 2
Flags: W
LayerCount: 2
Fore
SplineSet
74 243 m 1,0,-1
 74 293 l 1,1,-1
 209 293 l 1,2,-1
 335 434 l 1,3,-1
 64 434 l 1,4,-1
 64 530 l 1,5,-1
 480 530 l 1,6,-1
 480 429 l 1,7,-1
 357 293 l 1,8,-1
 442 293 l 1,9,-1
 442 243 l 1,10,-1
 312 243 l 1,11,-1
 181 97 l 1,12,-1
 496 97 l 1,13,-1
 496 0 l 1,14,-1
 44 0 l 1,15,-1
 44 109 l 1,16,-1
 164 243 l 1,17,-1
 74 243 l 1,0,-1
EndSplineSet
EndChar

StartChar: braceleft
Encoding: 123 123 96
Width: 336
GlyphClass: 2
Flags: W
LayerCount: 2
Fore
SplineSet
276 665 m 0,0,1
 214 665 214 665 214 608 c 2,2,-1
 214 391 l 2,3,4
 214 321 214 321 148 309 c 1,5,6
 214 298 214 298 214 228 c 2,7,-1
 214 -7 l 2,8,9
 214 -33 214 -33 228.5 -43 c 128,-1,10
 243 -53 243 -53 284 -53 c 1,11,-1
 284 -146 l 1,12,-1
 250 -146 l 2,13,14
 114 -146 114 -146 114 -14 c 2,15,-1
 114 202 l 2,16,17
 114 235 114 235 102 248.5 c 128,-1,18
 90 262 90 262 64 262 c 2,19,-1
 40 262 l 1,20,-1
 40 355 l 1,21,-1
 64 355 l 2,22,23
 90 355 90 355 102 369 c 128,-1,24
 114 383 114 383 114 417 c 2,25,-1
 114 625 l 2,26,27
 114 757 114 757 250 757 c 2,28,-1
 284 757 l 1,29,-1
 284 664 l 1,30,31
 281 665 281 665 276 665 c 0,0,1
EndSplineSet
EndChar

StartChar: bar
Encoding: 124 124 97
Width: 257
GlyphClass: 2
Flags: W
LayerCount: 2
Fore
SplineSet
87 -153 m 1,0,-1
 87 782 l 1,1,-1
 170 782 l 1,2,-1
 170 -153 l 1,3,-1
 87 -153 l 1,0,-1
EndSplineSet
EndChar

StartChar: braceright
Encoding: 125 125 98
Width: 336
GlyphClass: 2
Flags: W
LayerCount: 2
Fore
SplineSet
86 -146 m 2,0,-1
 52 -146 l 1,1,-1
 52 -53 l 1,2,3
 93 -53 93 -53 107.5 -43 c 128,-1,4
 122 -33 122 -33 122 -7 c 2,5,-1
 122 228 l 2,6,7
 122 298 122 298 188 309 c 1,8,9
 122 321 122 321 122 391 c 2,10,-1
 122 608 l 2,11,12
 122 639 122 639 105.5 652.5 c 128,-1,13
 89 666 89 666 73 666 c 2,14,-1
 70 666 l 1,15,-1
 52 664 l 1,16,-1
 52 757 l 1,17,-1
 86 757 l 2,18,19
 222 757 222 757 222 625 c 2,20,-1
 222 417 l 2,21,22
 222 383 222 383 234 369 c 128,-1,23
 246 355 246 355 272 355 c 2,24,-1
 296 355 l 1,25,-1
 296 262 l 1,26,-1
 272 262 l 2,27,28
 246 262 246 262 234 248.5 c 128,-1,29
 222 235 222 235 222 202 c 2,30,-1
 222 -14 l 2,31,32
 222 -146 222 -146 86 -146 c 2,0,-1
EndSplineSet
EndChar

StartChar: asciitilde
Encoding: 126 126 99
Width: 576
GlyphClass: 2
Flags: W
LayerCount: 2
Fore
SplineSet
258 326 m 1,0,1
 213 352 213 352 196.5 352 c 128,-1,2
 180 352 180 352 173 283 c 1,3,-1
 47 320 l 1,4,5
 54 400 54 400 94 440.5 c 128,-1,6
 134 481 134 481 197 481 c 0,7,8
 234 481 234 481 294 455 c 1,9,-1
 315 444 l 1,10,11
 369 417 369 417 379 417 c 0,12,13
 395 417 395 417 402 486 c 1,14,-1
 529 450 l 1,15,16
 522 370 522 370 482 328.5 c 128,-1,17
 442 287 442 287 378 287 c 0,18,19
 336 287 336 287 281 315 c 1,20,-1
 282 314 l 1,21,-1
 258 326 l 1,0,1
EndSplineSet
EndChar

StartChar: exclamdown
Encoding: 161 161 100
Width: 294
GlyphClass: 2
Flags: W
LayerCount: 2
Fore
SplineSet
216 -8 m 1,0,-1
 77 -8 l 1,1,-1
 77 118 l 1,2,-1
 107 479 l 1,3,-1
 187 479 l 1,4,-1
 216 118 l 1,5,-1
 216 -8 l 1,0,-1
95 586 m 128,-1,7
 73 608 73 608 73 638.5 c 128,-1,8
 73 669 73 669 95 691 c 128,-1,9
 117 713 117 713 147.5 713 c 128,-1,10
 178 713 178 713 200 691 c 128,-1,11
 222 669 222 669 222 638.5 c 128,-1,12
 222 608 222 608 200 586 c 128,-1,13
 178 564 178 564 147.5 564 c 128,-1,6
 117 564 117 564 95 586 c 128,-1,7
EndSplineSet
EndChar

StartChar: cent
Encoding: 162 162 101
Width: 586
GlyphClass: 2
Flags: W
LayerCount: 2
Fore
SplineSet
289 -122 m 1,0,-1
 289 -6 l 1,1,2
 188 5 188 5 118.5 78.5 c 128,-1,3
 49 152 49 152 49 264 c 128,-1,4
 49 376 49 376 118 449.5 c 128,-1,5
 187 523 187 523 289 537 c 1,6,-1
 289 656 l 1,7,-1
 353 656 l 1,8,-1
 353 539 l 1,9,10
 466 530 466 530 539 457 c 1,11,-1
 473 376 l 1,12,13
 412 428 412 428 353 434 c 1,14,-1
 353 95 l 1,15,16
 419 102 419 102 478 162 c 1,17,-1
 544 90 l 1,18,19
 461 5 461 5 353 -6 c 1,20,-1
 353 -122 l 1,21,-1
 289 -122 l 1,0,-1
197.5 373.5 m 128,-1,23
 161 330 161 330 161 268.5 c 128,-1,24
 161 207 161 207 196.5 161 c 128,-1,25
 232 115 232 115 289 100 c 1,26,-1
 289 430 l 1,27,22
 234 417 234 417 197.5 373.5 c 128,-1,23
EndSplineSet
EndChar

StartChar: sterling
Encoding: 163 163 102
Width: 616
GlyphClass: 2
Flags: W
LayerCount: 2
Fore
SplineSet
263 516 m 2,0,-1
 263 385 l 1,1,-1
 430 385 l 1,2,-1
 430 287 l 1,3,-1
 263 287 l 1,4,-1
 263 105 l 1,5,-1
 561 105 l 1,6,-1
 561 0 l 1,7,-1
 63 0 l 1,8,-1
 63 105 l 1,9,-1
 145 105 l 1,10,-1
 145 287 l 1,11,-1
 59 287 l 1,12,-1
 59 385 l 1,13,-1
 145 385 l 1,14,-1
 145 510 l 2,15,16
 145 631 145 631 206 686.5 c 128,-1,17
 267 742 267 742 366 742 c 0,18,19
 497 742 497 742 563 630 c 1,20,-1
 480 564 l 1,21,22
 439 632 439 632 374 632 c 0,23,24
 326 632 326 632 294.5 604.5 c 128,-1,25
 263 577 263 577 263 516 c 2,0,-1
EndSplineSet
EndChar

StartChar: currency
Encoding: 164 164 103
Width: 755
GlyphClass: 2
Flags: W
LayerCount: 2
Fore
SplineSet
150 152 m 1,0,1
 97 224 97 224 97 316 c 128,-1,2
 97 408 97 408 148 478 c 1,3,-1
 60 566 l 1,4,-1
 131 636 l 1,5,-1
 221 547 l 1,6,7
 289 591 289 591 376 591 c 128,-1,8
 463 591 463 591 534 546 c 1,9,-1
 624 636 l 1,10,-1
 695 566 l 1,11,-1
 606 477 l 1,12,13
 657 405 657 405 657 315.5 c 128,-1,14
 657 226 657 226 603 153 c 1,15,-1
 695 62 l 1,16,-1
 625 -8 l 1,17,-1
 530 85 l 1,18,19
 463 43 463 43 377 43 c 128,-1,20
 291 43 291 43 224 85 c 1,21,-1
 130 -8 l 1,22,-1
 60 62 l 1,23,-1
 150 152 l 1,0,1
377 149 m 128,-1,25
 447 149 447 149 493 196 c 128,-1,26
 539 243 539 243 539 317 c 128,-1,27
 539 391 539 391 493 437.5 c 128,-1,28
 447 484 447 484 377 484 c 128,-1,29
 307 484 307 484 261 437.5 c 128,-1,30
 215 391 215 391 215 317 c 128,-1,31
 215 243 215 243 261 196 c 128,-1,24
 307 149 307 149 377 149 c 128,-1,25
EndSplineSet
EndChar

StartChar: yen
Encoding: 165 165 104
Width: 715
GlyphClass: 2
Flags: W
LayerCount: 2
Fore
SplineSet
102 212 m 1,0,-1
 292 212 l 1,1,-1
 292 266 l 1,2,-1
 288 272 l 1,3,-1
 102 272 l 1,4,-1
 102 360 l 1,5,-1
 236 360 l 1,6,-1
 35 699 l 1,7,-1
 164 699 l 1,8,-1
 353 378 l 1,9,-1
 360 378 l 1,10,-1
 556 699 l 1,11,-1
 683 699 l 1,12,-1
 475 360 l 1,13,-1
 606 360 l 1,14,-1
 606 272 l 1,15,-1
 421 272 l 1,16,-1
 418 266 l 1,17,-1
 418 212 l 1,18,-1
 606 212 l 1,19,-1
 606 124 l 1,20,-1
 417 124 l 1,21,-1
 417 0 l 1,22,-1
 292 0 l 1,23,-1
 292 124 l 1,24,-1
 102 124 l 1,25,-1
 102 212 l 1,0,-1
EndSplineSet
EndChar

StartChar: brokenbar
Encoding: 166 166 105
Width: 276
GlyphClass: 2
Flags: W
LayerCount: 2
Fore
SplineSet
91 430 m 1,0,-1
 91 757 l 1,1,-1
 185 757 l 1,2,-1
 185 430 l 1,3,-1
 91 430 l 1,0,-1
91 -24 m 1,4,-1
 91 303 l 1,5,-1
 185 303 l 1,6,-1
 185 -24 l 1,7,-1
 91 -24 l 1,4,-1
EndSplineSet
EndChar

StartChar: section
Encoding: 167 167 106
Width: 610
GlyphClass: 2
Flags: W
LayerCount: 2
Fore
SplineSet
145 317 m 0,0,1
 145 270 145 270 203.5 239 c 128,-1,2
 262 208 262 208 353 208 c 0,3,4
 405 208 405 208 439.5 230 c 128,-1,5
 474 252 474 252 474 284.5 c 128,-1,6
 474 317 474 317 451 338 c 128,-1,7
 428 359 428 359 392 370 c 0,8,9
 320 391 320 391 264.5 391 c 128,-1,10
 209 391 209 391 177 371.5 c 128,-1,11
 145 352 145 352 145 317 c 0,0,1
228.5 627 m 128,-1,13
 202 606 202 606 202 572.5 c 128,-1,14
 202 539 202 539 231 519 c 128,-1,15
 260 499 260 499 362.5 474.5 c 128,-1,16
 465 450 465 450 516 411 c 128,-1,17
 567 372 567 372 567 299 c 0,18,19
 567 249 567 249 535 208.5 c 128,-1,20
 503 168 503 168 435 152 c 1,21,22
 481 135 481 135 504 100 c 128,-1,23
 527 65 527 65 527 28 c 0,24,25
 527 -41 527 -41 468.5 -89.5 c 128,-1,26
 410 -138 410 -138 312 -138 c 0,27,28
 169 -138 169 -138 59 -40 c 1,29,-1
 123 36 l 1,30,31
 221 -45 221 -45 315 -45 c 0,32,33
 422 -45 422 -45 422 23 c 0,34,35
 422 55 422 55 388.5 76 c 128,-1,36
 355 97 355 97 257.5 125.5 c 128,-1,37
 160 154 160 154 105.5 194.5 c 128,-1,38
 51 235 51 235 51 313 c 0,39,40
 51 361 51 361 84 401 c 128,-1,41
 117 441 117 441 176 452 c 1,42,43
 95 484 95 484 95 564 c 128,-1,44
 95 644 95 644 153.5 693 c 128,-1,45
 212 742 212 742 303 742 c 0,46,47
 368 742 368 742 417 726 c 128,-1,48
 466 710 466 710 517 673 c 1,49,-1
 460 593 l 1,50,51
 386 648 386 648 301 648 c 0,52,12
 255 648 255 648 228.5 627 c 128,-1,13
EndSplineSet
EndChar

StartChar: dieresis
Encoding: 168 168 107
Width: 610
GlyphClass: 2
Flags: W
LayerCount: 2
Fore
SplineSet
183.5 619 m 128,-1,1
 166 637 166 637 166 662.5 c 128,-1,2
 166 688 166 688 184 706 c 128,-1,3
 202 724 202 724 227.5 724 c 128,-1,4
 253 724 253 724 271 706.5 c 128,-1,5
 289 689 289 689 289 663.5 c 128,-1,6
 289 638 289 638 270.5 619.5 c 128,-1,7
 252 601 252 601 226.5 601 c 128,-1,0
 201 601 201 601 183.5 619 c 128,-1,1
369 619 m 128,-1,9
 351 637 351 637 351 662.5 c 128,-1,10
 351 688 351 688 369 706 c 128,-1,11
 387 724 387 724 412.5 724 c 128,-1,12
 438 724 438 724 456 706.5 c 128,-1,13
 474 689 474 689 474 663.5 c 128,-1,14
 474 638 474 638 456 619.5 c 128,-1,15
 438 601 438 601 412.5 601 c 128,-1,8
 387 601 387 601 369 619 c 128,-1,9
EndSplineSet
EndChar

StartChar: copyright
Encoding: 169 169 108
Width: 832
GlyphClass: 2
Flags: W
LayerCount: 2
Fore
SplineSet
778 351 m 128,-1,1
 778 202 778 202 672 95 c 128,-1,2
 566 -12 566 -12 415 -12 c 128,-1,3
 264 -12 264 -12 159 94 c 128,-1,4
 54 200 54 200 54 349 c 128,-1,5
 54 498 54 498 160 605 c 128,-1,6
 266 712 266 712 416 712 c 128,-1,7
 566 712 566 712 672 606 c 128,-1,0
 778 500 778 500 778 351 c 128,-1,1
734 350 m 128,-1,9
 734 481 734 481 642.5 574 c 128,-1,10
 551 667 551 667 418 667 c 128,-1,11
 285 667 285 667 193 573.5 c 128,-1,12
 101 480 101 480 101 348.5 c 128,-1,13
 101 217 101 217 192 124 c 128,-1,14
 283 31 283 31 416 31 c 128,-1,15
 549 31 549 31 641.5 125 c 128,-1,8
 734 219 734 219 734 350 c 128,-1,9
583 224 m 1,16,17
 515 153 515 153 428 153 c 128,-1,18
 341 153 341 153 283 207.5 c 128,-1,19
 225 262 225 262 225 351 c 128,-1,20
 225 440 225 440 285 495 c 128,-1,21
 345 550 345 550 434 550 c 128,-1,22
 523 550 523 550 580 490 c 1,23,-1
 532 431 l 1,24,25
 480 475 480 475 430 475 c 128,-1,26
 380 475 380 475 342.5 441.5 c 128,-1,27
 305 408 305 408 305 354.5 c 128,-1,28
 305 301 305 301 342.5 264 c 128,-1,29
 380 227 380 227 434.5 227 c 128,-1,30
 489 227 489 227 535 276 c 1,31,-1
 583 224 l 1,16,17
EndSplineSet
EndChar

StartChar: ordfeminine
Encoding: 170 170 109
Width: 352
GlyphClass: 2
Flags: W
LayerCount: 2
Fore
SplineSet
97 497.5 m 128,-1,1
 62 533 62 533 62 590 c 128,-1,2
 62 647 62 647 97.5 681.5 c 128,-1,3
 133 716 133 716 182 716 c 128,-1,4
 231 716 231 716 262 670 c 1,5,-1
 262 713 l 1,6,-1
 314 713 l 1,7,-1
 314 466 l 1,8,-1
 262 466 l 1,9,-1
 262 506 l 1,10,11
 230 462 230 462 181 462 c 128,-1,0
 132 462 132 462 97 497.5 c 128,-1,1
136.5 530.5 m 128,-1,13
 159 508 159 508 189.5 508 c 128,-1,14
 220 508 220 508 241.5 530.5 c 128,-1,15
 263 553 263 553 263 588.5 c 128,-1,16
 263 624 263 624 241.5 647.5 c 128,-1,17
 220 671 220 671 189 671 c 128,-1,18
 158 671 158 671 136 647.5 c 128,-1,19
 114 624 114 624 114 588.5 c 128,-1,12
 114 553 114 553 136.5 530.5 c 128,-1,13
EndSplineSet
EndChar

StartChar: guillemotleft
Encoding: 171 171 110
Width: 547
GlyphClass: 2
Flags: W
LayerCount: 2
Fore
SplineSet
283 416 m 1,0,-1
 168 240 l 1,1,-1
 283 64 l 1,2,-1
 175 64 l 1,3,-1
 56 240 l 1,4,-1
 175 416 l 1,5,-1
 283 416 l 1,0,-1
481 416 m 1,6,-1
 366 240 l 1,7,-1
 481 64 l 1,8,-1
 373 64 l 1,9,-1
 254 240 l 1,10,-1
 373 416 l 1,11,-1
 481 416 l 1,6,-1
EndSplineSet
EndChar

StartChar: logicalnot
Encoding: 172 172 111
Width: 828
GlyphClass: 2
Flags: W
LayerCount: 2
Fore
SplineSet
67 445 m 1,0,-1
 736 445 l 1,1,-1
 736 88 l 1,2,-1
 654 88 l 1,3,-1
 654 357 l 1,4,-1
 67 357 l 1,5,-1
 67 445 l 1,0,-1
EndSplineSet
EndChar

StartChar: registered
Encoding: 174 174 112
Width: 832
GlyphClass: 2
Flags: W
LayerCount: 2
Fore
SplineSet
778 351 m 128,-1,1
 778 202 778 202 672 95 c 128,-1,2
 566 -12 566 -12 415 -12 c 128,-1,3
 264 -12 264 -12 159 94 c 128,-1,4
 54 200 54 200 54 349 c 128,-1,5
 54 498 54 498 160 605 c 128,-1,6
 266 712 266 712 416 712 c 128,-1,7
 566 712 566 712 672 606 c 128,-1,0
 778 500 778 500 778 351 c 128,-1,1
734 350 m 128,-1,9
 734 481 734 481 642.5 574 c 128,-1,10
 551 667 551 667 418 667 c 128,-1,11
 285 667 285 667 193 573.5 c 128,-1,12
 101 480 101 480 101 348.5 c 128,-1,13
 101 217 101 217 192 124 c 128,-1,14
 283 31 283 31 416 31 c 128,-1,15
 549 31 549 31 641.5 125 c 128,-1,8
 734 219 734 219 734 350 c 128,-1,9
591 420 m 0,16,17
 591 323 591 323 506 298 c 1,18,-1
 610 157 l 1,19,-1
 526 157 l 1,20,-1
 432 288 l 1,21,-1
 346 288 l 1,22,-1
 346 157 l 1,23,-1
 278 157 l 1,24,-1
 278 548 l 1,25,-1
 425 548 l 2,26,27
 514 548 514 548 552.5 517.5 c 128,-1,28
 591 487 591 487 591 420 c 0,16,17
503.5 365 m 128,-1,30
 524 382 524 382 524 420.5 c 128,-1,31
 524 459 524 459 503 474 c 128,-1,32
 482 489 482 489 429 489 c 2,33,-1
 346 489 l 1,34,-1
 346 348 l 1,35,-1
 427 348 l 2,36,29
 483 348 483 348 503.5 365 c 128,-1,30
EndSplineSet
EndChar

StartChar: macron
Encoding: 175 175 113
Width: 424
GlyphClass: 2
Flags: W
LayerCount: 2
Fore
SplineSet
366 687 m 1,0,-1
 366 600 l 1,1,-1
 59 600 l 1,2,-1
 59 687 l 1,3,-1
 366 687 l 1,0,-1
EndSplineSet
EndChar

StartChar: degree
Encoding: 176 176 114
Width: 416
GlyphClass: 2
Flags: W
LayerCount: 2
Fore
SplineSet
208 715 m 128,-1,1
 272 715 272 715 317 670 c 128,-1,2
 362 625 362 625 362 561 c 128,-1,3
 362 497 362 497 317 452.5 c 128,-1,4
 272 408 272 408 208 408 c 128,-1,5
 144 408 144 408 99 452.5 c 128,-1,6
 54 497 54 497 54 561 c 128,-1,7
 54 625 54 625 99 670 c 128,-1,0
 144 715 144 715 208 715 c 128,-1,1
135.5 489 m 128,-1,9
 165 459 165 459 207.5 459 c 128,-1,10
 250 459 250 459 279.5 489 c 128,-1,11
 309 519 309 519 309 561 c 128,-1,12
 309 603 309 603 279.5 632.5 c 128,-1,13
 250 662 250 662 207.5 662 c 128,-1,14
 165 662 165 662 135.5 632.5 c 128,-1,15
 106 603 106 603 106 561 c 128,-1,8
 106 519 106 519 135.5 489 c 128,-1,9
EndSplineSet
EndChar

StartChar: plusminus
Encoding: 177 177 115
Width: 568
GlyphClass: 2
Flags: W
LayerCount: 2
Fore
SplineSet
239 276 m 1,0,-1
 239 411 l 1,1,-1
 48 411 l 1,2,-1
 48 505 l 1,3,-1
 239 505 l 1,4,-1
 239 638 l 1,5,-1
 329 638 l 1,6,-1
 329 505 l 1,7,-1
 520 505 l 1,8,-1
 520 411 l 1,9,-1
 329 411 l 1,10,-1
 329 276 l 1,11,-1
 239 276 l 1,0,-1
48 220 m 1,12,-1
 520 220 l 1,13,-1
 520 136 l 1,14,-1
 48 136 l 1,15,-1
 48 220 l 1,12,-1
EndSplineSet
EndChar

StartChar: twosuperior
Encoding: 178 178 116
Width: 419
GlyphClass: 2
Flags: W
LayerCount: 2
Fore
SplineSet
253.5 547 m 128,-1,1
 271 571 271 571 271 595.5 c 128,-1,2
 271 620 271 620 252.5 637 c 128,-1,3
 234 654 234 654 205 654 c 0,4,5
 154 654 154 654 121 603 c 1,6,-1
 66 635 l 1,7,8
 119 716 119 716 206 716 c 0,9,10
 260 716 260 716 298.5 683.5 c 128,-1,11
 337 651 337 651 337 595 c 0,12,13
 337 564 337 564 320.5 535.5 c 128,-1,14
 304 507 304 507 260 461 c 2,15,-1
 165 364 l 1,16,-1
 350 364 l 1,17,-1
 350 298 l 1,18,-1
 71 298 l 1,19,-1
 71 356 l 1,20,-1
 194 481 l 2,21,0
 236 523 236 523 253.5 547 c 128,-1,1
EndSplineSet
EndChar

StartChar: threesuperior
Encoding: 179 179 117
Width: 396
GlyphClass: 2
Flags: W
LayerCount: 2
Fore
SplineSet
77 577 m 1,0,-1
 77 639 l 1,1,-1
 319 639 l 1,2,-1
 319 585 l 1,3,-1
 219 473 l 1,4,5
 276 472 276 472 307.5 437.5 c 128,-1,6
 339 403 339 403 339 356 c 0,7,8
 339 292 339 292 296.5 256 c 128,-1,9
 254 220 254 220 186.5 220 c 128,-1,10
 119 220 119 220 54 264 c 1,11,-1
 84 320 l 1,12,13
 135 284 135 284 180 284 c 0,14,15
 273 284 273 284 273 352 c 0,16,17
 273 382 273 382 247.5 400.5 c 128,-1,18
 222 419 222 419 185.5 419 c 128,-1,19
 149 419 149 419 130 413 c 1,20,-1
 130 466 l 1,21,-1
 226 577 l 1,22,-1
 77 577 l 1,0,-1
EndSplineSet
EndChar

StartChar: acute
Encoding: 180 180 118
Width: 833
GlyphClass: 2
Flags: W
LayerCount: 2
Fore
SplineSet
440 628 m 1,0,-1
 338 628 l 1,1,-1
 444 773 l 1,2,-1
 562 724 l 1,3,-1
 440 628 l 1,0,-1
EndSplineSet
EndChar

StartChar: mu
Encoding: 181 181 119
Width: 642
GlyphClass: 2
Flags: W
LayerCount: 2
Fore
SplineSet
86 -194 m 1,0,-1
 86 532 l 1,1,-1
 198 532 l 1,2,-1
 198 240 l 2,3,4
 198 93 198 93 320 93 c 0,5,6
 378 93 378 93 421 131.5 c 128,-1,7
 464 170 464 170 464 244 c 2,8,-1
 464 532 l 1,9,-1
 576 532 l 1,10,-1
 576 0 l 1,11,-1
 464 0 l 1,12,-1
 464 97 l 1,13,14
 437 48 437 48 389.5 20 c 128,-1,15
 342 -8 342 -8 290 -8 c 128,-1,16
 238 -8 238 -8 198 9 c 1,17,-1
 198 -194 l 1,18,-1
 86 -194 l 1,0,-1
EndSplineSet
EndChar

StartChar: paragraph
Encoding: 182 182 120
Width: 671
GlyphClass: 2
Flags: W
LayerCount: 2
Fore
SplineSet
35 556 m 0,0,1
 35 641 35 641 94 699 c 128,-1,2
 153 757 153 757 273 757 c 2,3,-1
 572 757 l 1,4,-1
 572 -112 l 1,5,-1
 479 -112 l 1,6,-1
 479 662 l 1,7,-1
 367 662 l 1,8,-1
 367 -112 l 1,9,-1
 277 -112 l 1,10,-1
 277 367 l 1,11,12
 253 364 253 364 231 364 c 0,13,14
 176 364 176 364 135 383 c 128,-1,15
 94 402 94 402 74 432 c 0,16,17
 35 490 35 490 35 556 c 0,0,1
EndSplineSet
EndChar

StartChar: periodcentered
Encoding: 183 183 121
Width: 291
GlyphClass: 2
Flags: W
LayerCount: 2
Fore
SplineSet
71 319 m 128,-1,1
 71 350 71 350 92.5 371.5 c 128,-1,2
 114 393 114 393 145 393 c 128,-1,3
 176 393 176 393 198 371.5 c 128,-1,4
 220 350 220 350 220 319 c 128,-1,5
 220 288 220 288 198 266 c 128,-1,6
 176 244 176 244 145 244 c 128,-1,7
 114 244 114 244 92.5 266 c 128,-1,0
 71 288 71 288 71 319 c 128,-1,1
EndSplineSet
EndChar

StartChar: cedilla
Encoding: 184 184 122
Width: 281
GlyphClass: 2
Flags: W
LayerCount: 2
Fore
SplineSet
235 -117 m 0,0,1
 235 -155 235 -155 204 -183.5 c 128,-1,2
 173 -212 173 -212 125.5 -212 c 128,-1,3
 78 -212 78 -212 42 -190 c 1,4,-1
 68 -133 l 1,5,6
 87 -143 87 -143 106.5 -143 c 128,-1,7
 126 -143 126 -143 137 -131.5 c 128,-1,8
 148 -120 148 -120 148 -104 c 128,-1,9
 148 -88 148 -88 136.5 -75.5 c 128,-1,10
 125 -63 125 -63 107.5 -63 c 128,-1,11
 90 -63 90 -63 78 -68 c 1,12,-1
 114 0 l 1,13,-1
 185 0 l 1,14,-1
 165 -38 l 1,15,16
 235 -47 235 -47 235 -117 c 0,0,1
EndSplineSet
EndChar

StartChar: onesuperior
Encoding: 185 185 123
Width: 268
GlyphClass: 2
Flags: W
LayerCount: 2
Fore
SplineSet
41 640 m 1,0,-1
 189 640 l 1,1,-1
 189 290 l 1,2,-1
 124 290 l 1,3,-1
 124 579 l 1,4,-1
 41 579 l 1,5,-1
 41 640 l 1,0,-1
EndSplineSet
EndChar

StartChar: ordmasculine
Encoding: 186 186 124
Width: 378
GlyphClass: 2
Flags: W
LayerCount: 2
Fore
SplineSet
189 504 m 128,-1,1
 224 504 224 504 246.5 527 c 128,-1,2
 269 550 269 550 269 586.5 c 128,-1,3
 269 623 269 623 246.5 646 c 128,-1,4
 224 669 224 669 189 669 c 128,-1,5
 154 669 154 669 131.5 646 c 128,-1,6
 109 623 109 623 109 586.5 c 128,-1,7
 109 550 109 550 131.5 527 c 128,-1,0
 154 504 154 504 189 504 c 128,-1,1
189 456 m 128,-1,9
 132 456 132 456 94 493.5 c 128,-1,10
 56 531 56 531 56 586 c 128,-1,11
 56 641 56 641 94 678.5 c 128,-1,12
 132 716 132 716 189 716 c 128,-1,13
 246 716 246 716 284 678.5 c 128,-1,14
 322 641 322 641 322 586 c 128,-1,15
 322 531 322 531 284 493.5 c 128,-1,8
 246 456 246 456 189 456 c 128,-1,9
EndSplineSet
EndChar

StartChar: guillemotright
Encoding: 187 187 125
Width: 547
GlyphClass: 2
Flags: W
LayerCount: 2
Fore
SplineSet
379 240 m 1,0,-1
 264 416 l 1,1,-1
 372 416 l 1,2,-1
 491 240 l 1,3,-1
 372 64 l 1,4,-1
 264 64 l 1,5,-1
 379 240 l 1,0,-1
181 240 m 1,6,-1
 66 416 l 1,7,-1
 174 416 l 1,8,-1
 293 240 l 1,9,-1
 174 64 l 1,10,-1
 66 64 l 1,11,-1
 181 240 l 1,6,-1
EndSplineSet
EndChar

StartChar: onequarter
Encoding: 188 188 126
Width: 863
GlyphClass: 2
Flags: W
LayerCount: 2
Fore
SplineSet
591 757 m 1,0,-1
 663 757 l 1,1,-1
 290 -8 l 1,2,-1
 218 -8 l 1,3,-1
 591 757 l 1,0,-1
709 166 m 1,4,-1
 709 241 l 1,5,-1
 774 241 l 1,6,-1
 774 166 l 1,7,-1
 824 166 l 1,8,-1
 824 103 l 1,9,-1
 774 103 l 1,10,-1
 774 0 l 1,11,-1
 709 0 l 1,12,-1
 709 103 l 1,13,-1
 534 103 l 1,14,-1
 534 164 l 1,15,-1
 683 409 l 1,16,-1
 759 409 l 1,17,-1
 611 166 l 1,18,-1
 709 166 l 1,4,-1
35 640 m 1,19,-1
 183 640 l 1,20,-1
 183 290 l 1,21,-1
 118 290 l 1,22,-1
 118 579 l 1,23,-1
 35 579 l 1,24,-1
 35 640 l 1,19,-1
EndSplineSet
EndChar

StartChar: onehalf
Encoding: 189 189 127
Width: 928
GlyphClass: 2
Flags: W
LayerCount: 2
Fore
SplineSet
623 757 m 1,0,-1
 695 757 l 1,1,-1
 322 -8 l 1,2,-1
 250 -8 l 1,3,-1
 623 757 l 1,0,-1
787.5 249 m 128,-1,5
 805 273 805 273 805 297.5 c 128,-1,6
 805 322 805 322 786.5 339 c 128,-1,7
 768 356 768 356 739 356 c 0,8,9
 690 356 690 356 655 305 c 1,10,-1
 601 337 l 1,11,12
 654 418 654 418 740 418 c 0,13,14
 794 418 794 418 833 385.5 c 128,-1,15
 872 353 872 353 872 297 c 0,16,17
 872 266 872 266 855.5 237 c 128,-1,18
 839 208 839 208 795 163 c 2,19,-1
 699 66 l 1,20,-1
 884 66 l 1,21,-1
 884 0 l 1,22,-1
 605 0 l 1,23,-1
 605 58 l 1,24,-1
 729 183 l 2,25,4
 770 225 770 225 787.5 249 c 128,-1,5
35 640 m 1,26,-1
 183 640 l 1,27,-1
 183 290 l 1,28,-1
 118 290 l 1,29,-1
 118 579 l 1,30,-1
 35 579 l 1,31,-1
 35 640 l 1,26,-1
EndSplineSet
EndChar

StartChar: threequarters
Encoding: 190 190 128
Width: 901
GlyphClass: 2
Flags: W
LayerCount: 2
Fore
SplineSet
632 757 m 1,0,-1
 704 757 l 1,1,-1
 331 -8 l 1,2,-1
 259 -8 l 1,3,-1
 632 757 l 1,0,-1
750 166 m 1,4,-1
 750 241 l 1,5,-1
 815 241 l 1,6,-1
 815 166 l 1,7,-1
 865 166 l 1,8,-1
 865 103 l 1,9,-1
 815 103 l 1,10,-1
 815 0 l 1,11,-1
 750 0 l 1,12,-1
 750 103 l 1,13,-1
 575 103 l 1,14,-1
 575 164 l 1,15,-1
 724 409 l 1,16,-1
 800 409 l 1,17,-1
 652 166 l 1,18,-1
 750 166 l 1,4,-1
63 577 m 1,19,-1
 63 639 l 1,20,-1
 305 639 l 1,21,-1
 305 585 l 1,22,-1
 205 473 l 1,23,24
 262 472 262 472 293.5 437.5 c 128,-1,25
 325 403 325 403 325 356 c 0,26,27
 325 292 325 292 282.5 256 c 128,-1,28
 240 220 240 220 172.5 220 c 128,-1,29
 105 220 105 220 40 264 c 1,30,-1
 70 320 l 1,31,32
 121 284 121 284 166 284 c 0,33,34
 259 284 259 284 259 352 c 0,35,36
 259 382 259 382 233.5 400.5 c 128,-1,37
 208 419 208 419 171.5 419 c 128,-1,38
 135 419 135 419 116 413 c 1,39,-1
 116 466 l 1,40,-1
 212 577 l 1,41,-1
 63 577 l 1,19,-1
EndSplineSet
EndChar

StartChar: questiondown
Encoding: 191 191 129
Width: 508
GlyphClass: 2
Flags: W
LayerCount: 2
Fore
SplineSet
206 490 m 1,0,-1
 319 490 l 1,1,-1
 319 429 l 2,2,3
 319 389 319 389 309.5 369.5 c 128,-1,4
 300 350 300 350 268 318 c 2,5,-1
 195 245 l 1,6,7
 172 220 172 220 172 183 c 128,-1,8
 172 146 172 146 196 121.5 c 128,-1,9
 220 97 220 97 258 97 c 128,-1,10
 296 97 296 97 321.5 120.5 c 128,-1,11
 347 144 347 144 351 183 c 1,12,-1
 472 183 l 1,13,14
 462 94 462 94 402.5 43.5 c 128,-1,15
 343 -7 343 -7 254 -7 c 128,-1,16
 165 -7 165 -7 109 41.5 c 128,-1,17
 53 90 53 90 53 177 c 0,18,19
 53 237 53 237 86 277 c 0,20,21
 105 301 105 301 115 311 c 128,-1,22
 125 321 125 321 141.5 336.5 c 128,-1,23
 158 352 158 352 169.5 363.5 c 128,-1,24
 181 375 181 375 188 384 c 0,25,26
 206 405 206 405 206 445 c 2,27,-1
 206 490 l 1,0,-1
315 690.5 m 128,-1,29
 338 669 338 669 338 638.5 c 128,-1,30
 338 608 338 608 315.5 586 c 128,-1,31
 293 564 293 564 261.5 564 c 128,-1,32
 230 564 230 564 207 585.5 c 128,-1,33
 184 607 184 607 184 637.5 c 128,-1,34
 184 668 184 668 206.5 690 c 128,-1,35
 229 712 229 712 260.5 712 c 128,-1,28
 292 712 292 712 315 690.5 c 128,-1,29
EndSplineSet
EndChar

StartChar: Agrave
Encoding: 192 192 130
Width: 767
GlyphClass: 2
Flags: W
LayerCount: 2
Fore
SplineSet
88 0 m 1,0,-1
 88 402 l 2,1,2
 88 556 88 556 166 636 c 128,-1,3
 244 716 244 716 383.5 716 c 128,-1,4
 523 716 523 716 600.5 637 c 128,-1,5
 678 558 678 558 678 408 c 2,6,-1
 678 0 l 1,7,-1
 559 0 l 1,8,-1
 559 173 l 1,9,-1
 206 173 l 1,10,-1
 206 0 l 1,11,-1
 88 0 l 1,0,-1
206 407 m 2,12,-1
 206 283 l 1,13,-1
 559 283 l 1,14,-1
 559 402 l 2,15,16
 559 499 559 499 512 552 c 128,-1,17
 465 605 465 605 382 605 c 128,-1,18
 299 605 299 605 252.5 554 c 128,-1,19
 206 503 206 503 206 407 c 2,12,-1
463 757 m 1,20,-1
 361 757 l 1,21,-1
 239 853 l 1,22,-1
 357 902 l 1,23,-1
 463 757 l 1,20,-1
EndSplineSet
EndChar

StartChar: Aacute
Encoding: 193 193 131
Width: 767
GlyphClass: 2
Flags: W
LayerCount: 2
Fore
SplineSet
428 758 m 1,0,-1
 326 758 l 1,1,-1
 432 903 l 1,2,-1
 550 854 l 1,3,-1
 428 758 l 1,0,-1
88 0 m 1,4,-1
 88 402 l 2,5,6
 88 556 88 556 166 636 c 128,-1,7
 244 716 244 716 383.5 716 c 128,-1,8
 523 716 523 716 600.5 637 c 128,-1,9
 678 558 678 558 678 408 c 2,10,-1
 678 0 l 1,11,-1
 559 0 l 1,12,-1
 559 173 l 1,13,-1
 206 173 l 1,14,-1
 206 0 l 1,15,-1
 88 0 l 1,4,-1
206 407 m 2,16,-1
 206 283 l 1,17,-1
 559 283 l 1,18,-1
 559 402 l 2,19,20
 559 499 559 499 512 552 c 128,-1,21
 465 605 465 605 382 605 c 128,-1,22
 299 605 299 605 252.5 554 c 128,-1,23
 206 503 206 503 206 407 c 2,16,-1
EndSplineSet
EndChar

StartChar: Acircumflex
Encoding: 194 194 132
Width: 767
GlyphClass: 2
Flags: W
LayerCount: 2
Fore
SplineSet
88 0 m 1,0,-1
 88 402 l 2,1,2
 88 556 88 556 166 636 c 128,-1,3
 244 716 244 716 383.5 716 c 128,-1,4
 523 716 523 716 600.5 637 c 128,-1,5
 678 558 678 558 678 408 c 2,6,-1
 678 0 l 1,7,-1
 559 0 l 1,8,-1
 559 173 l 1,9,-1
 206 173 l 1,10,-1
 206 0 l 1,11,-1
 88 0 l 1,0,-1
206 407 m 2,12,-1
 206 283 l 1,13,-1
 559 283 l 1,14,-1
 559 402 l 2,15,16
 559 499 559 499 512 552 c 128,-1,17
 465 605 465 605 382 605 c 128,-1,18
 299 605 299 605 252.5 554 c 128,-1,19
 206 503 206 503 206 407 c 2,12,-1
330 891 m 1,20,-1
 434 891 l 1,21,-1
 556 757 l 1,22,-1
 459 757 l 1,23,-1
 382 813 l 1,24,-1
 305 757 l 1,25,-1
 208 757 l 1,26,-1
 330 891 l 1,20,-1
EndSplineSet
EndChar

StartChar: Atilde
Encoding: 195 195 133
Width: 767
GlyphClass: 2
Flags: W
LayerCount: 2
Fore
SplineSet
88 0 m 1,0,-1
 88 402 l 2,1,2
 88 556 88 556 166 636 c 128,-1,3
 244 716 244 716 383.5 716 c 128,-1,4
 523 716 523 716 600.5 637 c 128,-1,5
 678 558 678 558 678 408 c 2,6,-1
 678 0 l 1,7,-1
 559 0 l 1,8,-1
 559 173 l 1,9,-1
 206 173 l 1,10,-1
 206 0 l 1,11,-1
 88 0 l 1,0,-1
206 407 m 2,12,-1
 206 283 l 1,13,-1
 559 283 l 1,14,-1
 559 402 l 2,15,16
 559 499 559 499 512 552 c 128,-1,17
 465 605 465 605 382 605 c 128,-1,18
 299 605 299 605 252.5 554 c 128,-1,19
 206 503 206 503 206 407 c 2,12,-1
460 754 m 0,20,21
 434 754 434 754 387.5 777.5 c 128,-1,22
 341 801 341 801 328 801 c 0,23,24
 295 801 295 801 294 757 c 1,25,-1
 220 757 l 1,26,27
 220 815 220 815 243.5 851 c 128,-1,28
 267 887 267 887 309 887 c 0,29,30
 336 887 336 887 384 863.5 c 128,-1,31
 432 840 432 840 447 840 c 0,32,33
 477 840 477 840 477 884 c 1,34,-1
 552 884 l 1,35,36
 549 754 549 754 460 754 c 0,20,21
EndSplineSet
EndChar

StartChar: Adieresis
Encoding: 196 196 134
Width: 767
GlyphClass: 2
Flags: W
LayerCount: 2
Fore
SplineSet
88 0 m 1,0,-1
 88 402 l 2,1,2
 88 556 88 556 166 636 c 128,-1,3
 244 716 244 716 383.5 716 c 128,-1,4
 523 716 523 716 600.5 637 c 128,-1,5
 678 558 678 558 678 408 c 2,6,-1
 678 0 l 1,7,-1
 559 0 l 1,8,-1
 559 173 l 1,9,-1
 206 173 l 1,10,-1
 206 0 l 1,11,-1
 88 0 l 1,0,-1
206 407 m 2,12,-1
 206 283 l 1,13,-1
 559 283 l 1,14,-1
 559 402 l 2,15,16
 559 499 559 499 512 552 c 128,-1,17
 465 605 465 605 382 605 c 128,-1,18
 299 605 299 605 252.5 554 c 128,-1,19
 206 503 206 503 206 407 c 2,12,-1
251.5 771 m 128,-1,21
 234 789 234 789 234 814.5 c 128,-1,22
 234 840 234 840 252 858 c 128,-1,23
 270 876 270 876 295.5 876 c 128,-1,24
 321 876 321 876 339 858.5 c 128,-1,25
 357 841 357 841 357 815.5 c 128,-1,26
 357 790 357 790 338.5 771.5 c 128,-1,27
 320 753 320 753 294.5 753 c 128,-1,20
 269 753 269 753 251.5 771 c 128,-1,21
437 771 m 128,-1,29
 419 789 419 789 419 814.5 c 128,-1,30
 419 840 419 840 437 858 c 128,-1,31
 455 876 455 876 480.5 876 c 128,-1,32
 506 876 506 876 524 858.5 c 128,-1,33
 542 841 542 841 542 815.5 c 128,-1,34
 542 790 542 790 524 771.5 c 128,-1,35
 506 753 506 753 480.5 753 c 128,-1,28
 455 753 455 753 437 771 c 128,-1,29
EndSplineSet
EndChar

StartChar: Aring
Encoding: 197 197 135
Width: 770
GlyphClass: 2
Flags: W
LayerCount: 2
Fore
SplineSet
461 854.5 m 128,-1,1
 494 823 494 823 494 780.5 c 128,-1,2
 494 738 494 738 462 709 c 1,3,4
 566 688 566 688 623 612 c 128,-1,5
 680 536 680 536 680 408 c 2,6,-1
 680 0 l 1,7,-1
 561 0 l 1,8,-1
 561 173 l 1,9,-1
 208 173 l 1,10,-1
 208 0 l 1,11,-1
 90 0 l 1,12,-1
 90 402 l 2,13,14
 90 533 90 533 147 610.5 c 128,-1,15
 204 688 204 688 308 709 c 1,16,17
 277 738 277 738 277 780.5 c 128,-1,18
 277 823 277 823 309.5 854.5 c 128,-1,19
 342 886 342 886 385 886 c 128,-1,0
 428 886 428 886 461 854.5 c 128,-1,1
208 407 m 2,20,-1
 208 283 l 1,21,-1
 561 283 l 1,22,-1
 561 402 l 2,23,24
 561 499 561 499 514 552 c 128,-1,25
 467 605 467 605 384 605 c 128,-1,26
 301 605 301 605 254.5 554 c 128,-1,27
 208 503 208 503 208 407 c 2,20,-1
425 741.5 m 128,-1,29
 440 757 440 757 440 781.5 c 128,-1,30
 440 806 440 806 425 821.5 c 128,-1,31
 410 837 410 837 385.5 837 c 128,-1,32
 361 837 361 837 345.5 821.5 c 128,-1,33
 330 806 330 806 330 781.5 c 128,-1,34
 330 757 330 757 345.5 741.5 c 128,-1,35
 361 726 361 726 385.5 726 c 128,-1,28
 410 726 410 726 425 741.5 c 128,-1,29
EndSplineSet
EndChar

StartChar: AE
Encoding: 198 198 136
Width: 1040
GlyphClass: 2
Flags: W
LayerCount: 2
Fore
SplineSet
974 699 m 1,0,-1
 974 589 l 1,1,-1
 601 589 l 1,2,-1
 601 397 l 1,3,-1
 936 397 l 1,4,-1
 936 294 l 1,5,-1
 601 294 l 1,6,-1
 601 110 l 1,7,-1
 986 110 l 1,8,-1
 986 0 l 1,9,-1
 472 0 l 1,10,-1
 472 159 l 1,11,-1
 219 159 l 1,12,-1
 134 0 l 1,13,-1
 -11 0 l 1,14,-1
 355 699 l 1,15,-1
 974 699 l 1,0,-1
472 272 m 1,16,-1
 472 589 l 1,17,-1
 443 589 l 1,18,-1
 276 272 l 1,19,-1
 472 272 l 1,16,-1
EndSplineSet
EndChar

StartChar: Ccedilla
Encoding: 199 199 137
Width: 736
GlyphClass: 2
Flags: W
LayerCount: 2
Fore
SplineSet
416 107 m 0,0,1
 477 107 477 107 521 127.5 c 128,-1,2
 565 148 565 148 613 193 c 1,3,-1
 689 115 l 1,4,5
 585 -1 585 -1 435 -7 c 1,6,-1
 419 -38 l 1,7,8
 489 -47 489 -47 489 -117 c 0,9,10
 489 -155 489 -155 458 -183.5 c 128,-1,11
 427 -212 427 -212 379.5 -212 c 128,-1,12
 332 -212 332 -212 296 -190 c 1,13,-1
 322 -133 l 1,14,15
 341 -143 341 -143 360.5 -143 c 128,-1,16
 380 -143 380 -143 391 -131.5 c 128,-1,17
 402 -120 402 -120 402 -104 c 128,-1,18
 402 -88 402 -88 390.5 -75.5 c 128,-1,19
 379 -63 379 -63 361.5 -63 c 128,-1,20
 344 -63 344 -63 332 -68 c 1,21,-1
 365 -5 l 1,22,23
 228 12 228 12 140 111 c 128,-1,24
 52 210 52 210 52 359 c 128,-1,25
 52 508 52 508 158.5 612 c 128,-1,26
 265 716 265 716 427.5 716 c 128,-1,27
 590 716 590 716 699 596 c 1,28,-1
 624 514 l 1,29,30
 574 562 574 562 529.5 581 c 128,-1,31
 485 600 485 600 425 600 c 0,32,33
 319 600 319 600 247 531.5 c 128,-1,34
 175 463 175 463 175 356.5 c 128,-1,35
 175 250 175 250 246.5 178.5 c 128,-1,36
 318 107 318 107 416 107 c 0,0,1
EndSplineSet
EndChar

StartChar: Egrave
Encoding: 200 200 138
Width: 581
GlyphClass: 2
Flags: W
LayerCount: 2
Fore
SplineSet
413 757 m 1,0,-1
 311 757 l 1,1,-1
 189 853 l 1,2,-1
 307 902 l 1,3,-1
 413 757 l 1,0,-1
341 600 m 0,4,5
 210 600 210 600 210 522 c 0,6,7
 210 421 210 421 377 421 c 2,8,-1
 472 421 l 1,9,-1
 472 315 l 1,10,11
 409 315 409 315 371.5 315 c 128,-1,12
 334 315 334 315 305.5 313 c 128,-1,13
 277 311 277 311 263 307.5 c 128,-1,14
 249 304 249 304 228.5 296 c 128,-1,15
 208 288 208 288 198 277 c 0,16,17
 172 248 172 248 172 208 c 0,18,19
 172 107 172 107 338 107 c 0,20,21
 390 107 390 107 439.5 119.5 c 128,-1,22
 489 132 489 132 517 149 c 1,23,-1
 549 43 l 1,24,25
 456 -7 456 -7 325.5 -7 c 128,-1,26
 195 -7 195 -7 122.5 48 c 128,-1,27
 50 103 50 103 50 205 c 0,28,29
 50 321 50 321 165 376 c 1,30,31
 84 433 84 433 84 533 c 0,32,33
 84 614 84 614 150.5 665 c 128,-1,34
 217 716 217 716 329 716 c 0,35,36
 375 716 375 716 427.5 706 c 128,-1,37
 480 696 480 696 513 680 c 1,38,-1
 489 568 l 1,39,40
 416 600 416 600 341 600 c 0,4,5
EndSplineSet
EndChar

StartChar: Eacute
Encoding: 201 201 139
Width: 581
GlyphClass: 2
Flags: W
LayerCount: 2
Fore
SplineSet
348 758 m 1,0,-1
 246 758 l 1,1,-1
 352 903 l 1,2,-1
 470 854 l 1,3,-1
 348 758 l 1,0,-1
341 600 m 0,4,5
 210 600 210 600 210 522 c 0,6,7
 210 421 210 421 377 421 c 2,8,-1
 472 421 l 1,9,-1
 472 315 l 1,10,11
 409 315 409 315 371.5 315 c 128,-1,12
 334 315 334 315 305.5 313 c 128,-1,13
 277 311 277 311 263 307.5 c 128,-1,14
 249 304 249 304 228.5 296 c 128,-1,15
 208 288 208 288 198 277 c 0,16,17
 172 248 172 248 172 208 c 0,18,19
 172 107 172 107 338 107 c 0,20,21
 390 107 390 107 439.5 119.5 c 128,-1,22
 489 132 489 132 517 149 c 1,23,-1
 549 43 l 1,24,25
 456 -7 456 -7 325.5 -7 c 128,-1,26
 195 -7 195 -7 122.5 48 c 128,-1,27
 50 103 50 103 50 205 c 0,28,29
 50 321 50 321 165 376 c 1,30,31
 84 433 84 433 84 533 c 0,32,33
 84 614 84 614 150.5 665 c 128,-1,34
 217 716 217 716 329 716 c 0,35,36
 375 716 375 716 427.5 706 c 128,-1,37
 480 696 480 696 513 680 c 1,38,-1
 489 568 l 1,39,40
 416 600 416 600 341 600 c 0,4,5
EndSplineSet
EndChar

StartChar: Ecircumflex
Encoding: 202 202 140
Width: 581
GlyphClass: 2
Flags: W
LayerCount: 2
Fore
SplineSet
341 600 m 0,0,1
 210 600 210 600 210 522 c 0,2,3
 210 421 210 421 377 421 c 2,4,-1
 472 421 l 1,5,-1
 472 315 l 1,6,7
 409 315 409 315 371.5 315 c 128,-1,8
 334 315 334 315 305.5 313 c 128,-1,9
 277 311 277 311 263 307.5 c 128,-1,10
 249 304 249 304 228.5 296 c 128,-1,11
 208 288 208 288 198 277 c 0,12,13
 172 248 172 248 172 208 c 0,14,15
 172 107 172 107 338 107 c 0,16,17
 390 107 390 107 439.5 119.5 c 128,-1,18
 489 132 489 132 517 149 c 1,19,-1
 549 43 l 1,20,21
 456 -7 456 -7 325.5 -7 c 128,-1,22
 195 -7 195 -7 122.5 48 c 128,-1,23
 50 103 50 103 50 205 c 0,24,25
 50 321 50 321 165 376 c 1,26,27
 84 433 84 433 84 533 c 0,28,29
 84 614 84 614 150.5 665 c 128,-1,30
 217 716 217 716 329 716 c 0,31,32
 375 716 375 716 427.5 706 c 128,-1,33
 480 696 480 696 513 680 c 1,34,-1
 489 568 l 1,35,36
 416 600 416 600 341 600 c 0,0,1
258 891 m 1,37,-1
 362 891 l 1,38,-1
 484 757 l 1,39,-1
 387 757 l 1,40,-1
 310 813 l 1,41,-1
 233 757 l 1,42,-1
 136 757 l 1,43,-1
 258 891 l 1,37,-1
EndSplineSet
EndChar

StartChar: Edieresis
Encoding: 203 203 141
Width: 581
GlyphClass: 2
Flags: W
LayerCount: 2
Fore
SplineSet
188.5 771 m 128,-1,1
 171 789 171 789 171 814.5 c 128,-1,2
 171 840 171 840 188.5 858 c 128,-1,3
 206 876 206 876 232 876 c 128,-1,4
 258 876 258 876 276 858.5 c 128,-1,5
 294 841 294 841 294 815.5 c 128,-1,6
 294 790 294 790 276 771.5 c 128,-1,7
 258 753 258 753 232 753 c 128,-1,0
 206 753 206 753 188.5 771 c 128,-1,1
374 771 m 128,-1,9
 356 789 356 789 356 814.5 c 128,-1,10
 356 840 356 840 374 858 c 128,-1,11
 392 876 392 876 417.5 876 c 128,-1,12
 443 876 443 876 461 858.5 c 128,-1,13
 479 841 479 841 479 815.5 c 128,-1,14
 479 790 479 790 460.5 771.5 c 128,-1,15
 442 753 442 753 417 753 c 128,-1,8
 392 753 392 753 374 771 c 128,-1,9
341 600 m 0,16,17
 210 600 210 600 210 522 c 0,18,19
 210 421 210 421 377 421 c 2,20,-1
 472 421 l 1,21,-1
 472 315 l 1,22,23
 409 315 409 315 371.5 315 c 128,-1,24
 334 315 334 315 305.5 313 c 128,-1,25
 277 311 277 311 263 307.5 c 128,-1,26
 249 304 249 304 228.5 296 c 128,-1,27
 208 288 208 288 198 277 c 0,28,29
 172 248 172 248 172 208 c 0,30,31
 172 107 172 107 338 107 c 0,32,33
 390 107 390 107 439.5 119.5 c 128,-1,34
 489 132 489 132 517 149 c 1,35,-1
 549 43 l 1,36,37
 456 -7 456 -7 325.5 -7 c 128,-1,38
 195 -7 195 -7 122.5 48 c 128,-1,39
 50 103 50 103 50 205 c 0,40,41
 50 321 50 321 165 376 c 1,42,43
 84 433 84 433 84 533 c 0,44,45
 84 614 84 614 150.5 665 c 128,-1,46
 217 716 217 716 329 716 c 0,47,48
 375 716 375 716 427.5 706 c 128,-1,49
 480 696 480 696 513 680 c 1,50,-1
 489 568 l 1,51,52
 416 600 416 600 341 600 c 0,16,17
EndSplineSet
EndChar

StartChar: Igrave
Encoding: 204 204 142
Width: 484
GlyphClass: 2
Flags: W
LayerCount: 2
Fore
SplineSet
324 757 m 1,0,-1
 222 757 l 1,1,-1
 100 853 l 1,2,-1
 218 902 l 1,3,-1
 324 757 l 1,0,-1
432 99 m 1,4,-1
 432 -7 l 1,5,-1
 52 -7 l 1,6,-1
 52 99 l 1,7,-1
 180 99 l 1,8,-1
 180 593 l 1,9,-1
 52 593 l 1,10,-1
 52 699 l 1,11,-1
 432 699 l 1,12,-1
 432 593 l 1,13,-1
 298 593 l 1,14,-1
 298 99 l 1,15,-1
 432 99 l 1,4,-1
EndSplineSet
EndChar

StartChar: Iacute
Encoding: 205 205 143
Width: 484
GlyphClass: 2
Flags: W
LayerCount: 2
Fore
SplineSet
287 758 m 1,0,-1
 185 758 l 1,1,-1
 291 903 l 1,2,-1
 409 854 l 1,3,-1
 287 758 l 1,0,-1
432 99 m 1,4,-1
 432 -7 l 1,5,-1
 52 -7 l 1,6,-1
 52 99 l 1,7,-1
 180 99 l 1,8,-1
 180 593 l 1,9,-1
 52 593 l 1,10,-1
 52 699 l 1,11,-1
 432 699 l 1,12,-1
 432 593 l 1,13,-1
 298 593 l 1,14,-1
 298 99 l 1,15,-1
 432 99 l 1,4,-1
EndSplineSet
EndChar

StartChar: Icircumflex
Encoding: 206 206 144
Width: 484
GlyphClass: 2
Flags: W
LayerCount: 2
Fore
SplineSet
432 99 m 1,0,-1
 432 -7 l 1,1,-1
 52 -7 l 1,2,-1
 52 99 l 1,3,-1
 180 99 l 1,4,-1
 180 593 l 1,5,-1
 52 593 l 1,6,-1
 52 699 l 1,7,-1
 432 699 l 1,8,-1
 432 593 l 1,9,-1
 298 593 l 1,10,-1
 298 99 l 1,11,-1
 432 99 l 1,0,-1
187 891 m 1,12,-1
 291 891 l 1,13,-1
 413 757 l 1,14,-1
 316 757 l 1,15,-1
 239 813 l 1,16,-1
 162 757 l 1,17,-1
 65 757 l 1,18,-1
 187 891 l 1,12,-1
EndSplineSet
EndChar

StartChar: Idieresis
Encoding: 207 207 145
Width: 484
GlyphClass: 2
Flags: W
LayerCount: 2
Fore
SplineSet
432 99 m 1,0,-1
 432 -7 l 1,1,-1
 52 -7 l 1,2,-1
 52 99 l 1,3,-1
 180 99 l 1,4,-1
 180 593 l 1,5,-1
 52 593 l 1,6,-1
 52 699 l 1,7,-1
 432 699 l 1,8,-1
 432 593 l 1,9,-1
 298 593 l 1,10,-1
 298 99 l 1,11,-1
 432 99 l 1,0,-1
103.5 771 m 128,-1,13
 86 789 86 789 86 814.5 c 128,-1,14
 86 840 86 840 104 858 c 128,-1,15
 122 876 122 876 147.5 876 c 128,-1,16
 173 876 173 876 191 858.5 c 128,-1,17
 209 841 209 841 209 815.5 c 128,-1,18
 209 790 209 790 190.5 771.5 c 128,-1,19
 172 753 172 753 146.5 753 c 128,-1,12
 121 753 121 753 103.5 771 c 128,-1,13
289 771 m 128,-1,21
 271 789 271 789 271 814.5 c 128,-1,22
 271 840 271 840 289 858 c 128,-1,23
 307 876 307 876 332.5 876 c 128,-1,24
 358 876 358 876 376 858.5 c 128,-1,25
 394 841 394 841 394 815.5 c 128,-1,26
 394 790 394 790 376 771.5 c 128,-1,27
 358 753 358 753 332.5 753 c 128,-1,20
 307 753 307 753 289 771 c 128,-1,21
EndSplineSet
EndChar

StartChar: Eth
Encoding: 208 208 146
Width: 790
GlyphClass: 2
Flags: W
LayerCount: 2
Fore
SplineSet
26 294 m 1,0,-1
 26 399 l 1,1,-1
 105 399 l 1,2,-1
 105 699 l 1,3,-1
 345 699 l 2,4,5
 533 699 533 699 634 607.5 c 128,-1,6
 735 516 735 516 735 353 c 128,-1,7
 735 190 735 190 637 95 c 128,-1,8
 539 0 539 0 337 0 c 2,9,-1
 105 0 l 1,10,-1
 105 294 l 1,11,-1
 26 294 l 1,0,-1
616 350 m 0,12,13
 616 590 616 590 341 590 c 2,14,-1
 223 590 l 1,15,-1
 223 399 l 1,16,-1
 473 399 l 1,17,-1
 473 294 l 1,18,-1
 223 294 l 1,19,-1
 223 111 l 1,20,-1
 354 111 l 2,21,22
 481 111 481 111 548.5 171.5 c 128,-1,23
 616 232 616 232 616 350 c 0,12,13
EndSplineSet
EndChar

StartChar: Ntilde
Encoding: 209 209 147
Width: 778
GlyphClass: 2
Flags: W
LayerCount: 2
Fore
SplineSet
472 754 m 0,0,1
 446 754 446 754 399.5 777.5 c 128,-1,2
 353 801 353 801 340 801 c 0,3,4
 307 801 307 801 306 757 c 1,5,-1
 232 757 l 1,6,7
 232 815 232 815 255.5 851 c 128,-1,8
 279 887 279 887 321 887 c 0,9,10
 348 887 348 887 396 863.5 c 128,-1,11
 444 840 444 840 459 840 c 0,12,13
 489 840 489 840 489 884 c 1,14,-1
 564 884 l 1,15,16
 561 754 561 754 472 754 c 0,0,1
527.5 550 m 128,-1,18
 484 605 484 605 402 605 c 128,-1,19
 320 605 320 605 267.5 548.5 c 128,-1,20
 215 492 215 492 215 397 c 2,21,-1
 215 0 l 1,22,-1
 97 0 l 1,23,-1
 97 699 l 1,24,-1
 215 699 l 1,25,-1
 215 633 l 1,26,27
 256 674 256 674 310.5 694.5 c 128,-1,28
 365 715 365 715 418 715 c 0,29,30
 534 715 534 715 611.5 634 c 128,-1,31
 689 553 689 553 689 411 c 2,32,-1
 689 0 l 1,33,-1
 571 0 l 1,34,-1
 571 397 l 2,35,17
 571 495 571 495 527.5 550 c 128,-1,18
EndSplineSet
EndChar

StartChar: Ograve
Encoding: 210 210 148
Width: 840
GlyphClass: 2
Flags: W
LayerCount: 2
Fore
SplineSet
496 757 m 1,0,-1
 394 757 l 1,1,-1
 272 853 l 1,2,-1
 390 902 l 1,3,-1
 496 757 l 1,0,-1
420 608 m 128,-1,5
 316 608 316 608 244.5 534 c 128,-1,6
 173 460 173 460 173 354.5 c 128,-1,7
 173 249 173 249 244.5 175 c 128,-1,8
 316 101 316 101 420 101 c 128,-1,9
 524 101 524 101 595.5 175 c 128,-1,10
 667 249 667 249 667 354.5 c 128,-1,11
 667 460 667 460 595.5 534 c 128,-1,4
 524 608 524 608 420 608 c 128,-1,5
420 -7 m 128,-1,13
 264 -7 264 -7 158 96.5 c 128,-1,14
 52 200 52 200 52 354.5 c 128,-1,15
 52 509 52 509 158 612.5 c 128,-1,16
 264 716 264 716 420 716 c 128,-1,17
 576 716 576 716 682 612.5 c 128,-1,18
 788 509 788 509 788 354.5 c 128,-1,19
 788 200 788 200 682 96.5 c 128,-1,12
 576 -7 576 -7 420 -7 c 128,-1,13
EndSplineSet
EndChar

StartChar: Oacute
Encoding: 211 211 149
Width: 840
GlyphClass: 2
Flags: W
LayerCount: 2
Fore
SplineSet
420 608 m 128,-1,1
 316 608 316 608 244.5 534 c 128,-1,2
 173 460 173 460 173 354.5 c 128,-1,3
 173 249 173 249 244.5 175 c 128,-1,4
 316 101 316 101 420 101 c 128,-1,5
 524 101 524 101 595.5 175 c 128,-1,6
 667 249 667 249 667 354.5 c 128,-1,7
 667 460 667 460 595.5 534 c 128,-1,0
 524 608 524 608 420 608 c 128,-1,1
420 -7 m 128,-1,9
 264 -7 264 -7 158 96.5 c 128,-1,10
 52 200 52 200 52 354.5 c 128,-1,11
 52 509 52 509 158 612.5 c 128,-1,12
 264 716 264 716 420 716 c 128,-1,13
 576 716 576 716 682 612.5 c 128,-1,14
 788 509 788 509 788 354.5 c 128,-1,15
 788 200 788 200 682 96.5 c 128,-1,8
 576 -7 576 -7 420 -7 c 128,-1,9
438 757 m 1,16,-1
 336 757 l 1,17,-1
 442 902 l 1,18,-1
 560 853 l 1,19,-1
 438 757 l 1,16,-1
EndSplineSet
EndChar

StartChar: Ocircumflex
Encoding: 212 212 150
Width: 840
GlyphClass: 2
Flags: W
LayerCount: 2
Fore
SplineSet
420 608 m 128,-1,1
 316 608 316 608 244.5 534 c 128,-1,2
 173 460 173 460 173 354.5 c 128,-1,3
 173 249 173 249 244.5 175 c 128,-1,4
 316 101 316 101 420 101 c 128,-1,5
 524 101 524 101 595.5 175 c 128,-1,6
 667 249 667 249 667 354.5 c 128,-1,7
 667 460 667 460 595.5 534 c 128,-1,0
 524 608 524 608 420 608 c 128,-1,1
420 -7 m 128,-1,9
 264 -7 264 -7 158 96.5 c 128,-1,10
 52 200 52 200 52 354.5 c 128,-1,11
 52 509 52 509 158 612.5 c 128,-1,12
 264 716 264 716 420 716 c 128,-1,13
 576 716 576 716 682 612.5 c 128,-1,14
 788 509 788 509 788 354.5 c 128,-1,15
 788 200 788 200 682 96.5 c 128,-1,8
 576 -7 576 -7 420 -7 c 128,-1,9
366 891 m 1,16,-1
 470 891 l 1,17,-1
 592 757 l 1,18,-1
 495 757 l 1,19,-1
 418 813 l 1,20,-1
 341 757 l 1,21,-1
 244 757 l 1,22,-1
 366 891 l 1,16,-1
EndSplineSet
EndChar

StartChar: Otilde
Encoding: 213 213 151
Width: 840
GlyphClass: 2
Flags: W
LayerCount: 2
Fore
SplineSet
420 608 m 128,-1,1
 316 608 316 608 244.5 534 c 128,-1,2
 173 460 173 460 173 354.5 c 128,-1,3
 173 249 173 249 244.5 175 c 128,-1,4
 316 101 316 101 420 101 c 128,-1,5
 524 101 524 101 595.5 175 c 128,-1,6
 667 249 667 249 667 354.5 c 128,-1,7
 667 460 667 460 595.5 534 c 128,-1,0
 524 608 524 608 420 608 c 128,-1,1
420 -7 m 128,-1,9
 264 -7 264 -7 158 96.5 c 128,-1,10
 52 200 52 200 52 354.5 c 128,-1,11
 52 509 52 509 158 612.5 c 128,-1,12
 264 716 264 716 420 716 c 128,-1,13
 576 716 576 716 682 612.5 c 128,-1,14
 788 509 788 509 788 354.5 c 128,-1,15
 788 200 788 200 682 96.5 c 128,-1,8
 576 -7 576 -7 420 -7 c 128,-1,9
492 754 m 0,16,17
 466 754 466 754 419.5 777.5 c 128,-1,18
 373 801 373 801 360 801 c 0,19,20
 327 801 327 801 326 757 c 1,21,-1
 252 757 l 1,22,23
 252 815 252 815 275.5 851 c 128,-1,24
 299 887 299 887 341 887 c 0,25,26
 368 887 368 887 416 863.5 c 128,-1,27
 464 840 464 840 479 840 c 0,28,29
 509 840 509 840 509 884 c 1,30,-1
 584 884 l 1,31,32
 581 754 581 754 492 754 c 0,16,17
EndSplineSet
EndChar

StartChar: Odieresis
Encoding: 214 214 152
Width: 840
GlyphClass: 2
Flags: W
LayerCount: 2
Fore
SplineSet
278.5 771 m 128,-1,1
 261 789 261 789 261 814.5 c 128,-1,2
 261 840 261 840 278.5 858 c 128,-1,3
 296 876 296 876 322 876 c 128,-1,4
 348 876 348 876 366 858.5 c 128,-1,5
 384 841 384 841 384 815.5 c 128,-1,6
 384 790 384 790 366 771.5 c 128,-1,7
 348 753 348 753 322 753 c 128,-1,0
 296 753 296 753 278.5 771 c 128,-1,1
464 771 m 128,-1,9
 446 789 446 789 446 814.5 c 128,-1,10
 446 840 446 840 464 858 c 128,-1,11
 482 876 482 876 507.5 876 c 128,-1,12
 533 876 533 876 551 858.5 c 128,-1,13
 569 841 569 841 569 815.5 c 128,-1,14
 569 790 569 790 550.5 771.5 c 128,-1,15
 532 753 532 753 507 753 c 128,-1,8
 482 753 482 753 464 771 c 128,-1,9
420 608 m 128,-1,17
 316 608 316 608 244.5 534 c 128,-1,18
 173 460 173 460 173 354.5 c 128,-1,19
 173 249 173 249 244.5 175 c 128,-1,20
 316 101 316 101 420 101 c 128,-1,21
 524 101 524 101 595.5 175 c 128,-1,22
 667 249 667 249 667 354.5 c 128,-1,23
 667 460 667 460 595.5 534 c 128,-1,16
 524 608 524 608 420 608 c 128,-1,17
420 -7 m 128,-1,25
 264 -7 264 -7 158 96.5 c 128,-1,26
 52 200 52 200 52 354.5 c 128,-1,27
 52 509 52 509 158 612.5 c 128,-1,28
 264 716 264 716 420 716 c 128,-1,29
 576 716 576 716 682 612.5 c 128,-1,30
 788 509 788 509 788 354.5 c 128,-1,31
 788 200 788 200 682 96.5 c 128,-1,24
 576 -7 576 -7 420 -7 c 128,-1,25
EndSplineSet
EndChar

StartChar: multiply
Encoding: 215 215 153
Width: 565
GlyphClass: 2
Flags: W
LayerCount: 2
Fore
SplineSet
283 443 m 1,0,-1
 453 614 l 1,1,-1
 516 550 l 1,2,-1
 347 381 l 1,3,-1
 517 210 l 1,4,-1
 454 146 l 1,5,-1
 283 317 l 1,6,-1
 112 146 l 1,7,-1
 48 210 l 1,8,-1
 219 381 l 1,9,-1
 49 550 l 1,10,-1
 113 614 l 1,11,-1
 283 443 l 1,0,-1
EndSplineSet
EndChar

StartChar: Oslash
Encoding: 216 216 154
Width: 840
GlyphClass: 2
Flags: W
LayerCount: 2
Fore
SplineSet
788 355 m 0,0,1
 788 200 788 200 682 96.5 c 128,-1,2
 576 -7 576 -7 420 -7 c 0,3,4
 367 -7 367 -7 319 5 c 1,5,-1
 262 -117 l 1,6,-1
 162 -117 l 1,7,-1
 235 39 l 1,8,9
 150 85 150 85 101 168.5 c 128,-1,10
 52 252 52 252 52 355 c 0,11,12
 52 509 52 509 158 612.5 c 128,-1,13
 264 716 264 716 420 716 c 0,14,15
 481 716 481 716 541 697 c 1,16,-1
 595 811 l 1,17,-1
 695 811 l 1,18,-1
 624 658 l 1,19,20
 700 610 700 610 744 530.5 c 128,-1,21
 788 451 788 451 788 355 c 0,0,1
420 608 m 0,22,23
 316 608 316 608 244.5 534 c 128,-1,24
 173 460 173 460 173 354 c 0,25,26
 173 289 173 289 202.5 233 c 128,-1,27
 232 177 232 177 283 142 c 1,28,-1
 495 596 l 1,29,30
 459 608 459 608 420 608 c 0,22,23
667 354 m 0,31,32
 667 476 667 476 575 553 c 1,33,-1
 366 106 l 1,34,35
 394 101 394 101 420 101 c 0,36,37
 524 101 524 101 595.5 175 c 128,-1,38
 667 249 667 249 667 354 c 0,31,32
EndSplineSet
EndChar

StartChar: Ugrave
Encoding: 217 217 155
Width: 777
GlyphClass: 2
Flags: W
LayerCount: 2
Fore
SplineSet
490 757 m 1,0,-1
 388 757 l 1,1,-1
 266 853 l 1,2,-1
 384 902 l 1,3,-1
 490 757 l 1,0,-1
384 104 m 128,-1,5
 466 104 466 104 514 160 c 128,-1,6
 562 216 562 216 562 312 c 2,7,-1
 562 699 l 1,8,-1
 680 699 l 1,9,-1
 680 0 l 1,10,-1
 562 0 l 1,11,-1
 562 65 l 1,12,13
 488 -7 488 -7 384 -7 c 0,14,15
 254 -7 254 -7 171 74.5 c 128,-1,16
 88 156 88 156 88 307 c 2,17,-1
 88 699 l 1,18,-1
 206 699 l 1,19,-1
 206 312 l 2,20,21
 206 216 206 216 254 160 c 128,-1,4
 302 104 302 104 384 104 c 128,-1,5
EndSplineSet
EndChar

StartChar: Uacute
Encoding: 218 218 156
Width: 777
GlyphClass: 2
Flags: W
LayerCount: 2
Fore
SplineSet
395 758 m 1,0,-1
 293 758 l 1,1,-1
 399 903 l 1,2,-1
 517 854 l 1,3,-1
 395 758 l 1,0,-1
384 104 m 128,-1,5
 466 104 466 104 514 160 c 128,-1,6
 562 216 562 216 562 312 c 2,7,-1
 562 699 l 1,8,-1
 680 699 l 1,9,-1
 680 0 l 1,10,-1
 562 0 l 1,11,-1
 562 65 l 1,12,13
 488 -7 488 -7 384 -7 c 0,14,15
 254 -7 254 -7 171 74.5 c 128,-1,16
 88 156 88 156 88 307 c 2,17,-1
 88 699 l 1,18,-1
 206 699 l 1,19,-1
 206 312 l 2,20,21
 206 216 206 216 254 160 c 128,-1,4
 302 104 302 104 384 104 c 128,-1,5
EndSplineSet
EndChar

StartChar: Ucircumflex
Encoding: 219 219 157
Width: 777
GlyphClass: 2
Flags: W
LayerCount: 2
Fore
SplineSet
384 104 m 128,-1,1
 466 104 466 104 514 160 c 128,-1,2
 562 216 562 216 562 312 c 2,3,-1
 562 699 l 1,4,-1
 680 699 l 1,5,-1
 680 0 l 1,6,-1
 562 0 l 1,7,-1
 562 65 l 1,8,9
 488 -7 488 -7 384 -7 c 0,10,11
 254 -7 254 -7 171 74.5 c 128,-1,12
 88 156 88 156 88 307 c 2,13,-1
 88 699 l 1,14,-1
 206 699 l 1,15,-1
 206 312 l 2,16,17
 206 216 206 216 254 160 c 128,-1,0
 302 104 302 104 384 104 c 128,-1,1
336 891 m 1,18,-1
 440 891 l 1,19,-1
 562 757 l 1,20,-1
 465 757 l 1,21,-1
 388 813 l 1,22,-1
 311 757 l 1,23,-1
 214 757 l 1,24,-1
 336 891 l 1,18,-1
EndSplineSet
EndChar

StartChar: Udieresis
Encoding: 220 220 158
Width: 777
GlyphClass: 2
Flags: W
LayerCount: 2
Fore
SplineSet
257.5 771 m 128,-1,1
 240 789 240 789 240 814.5 c 128,-1,2
 240 840 240 840 258 858 c 128,-1,3
 276 876 276 876 301.5 876 c 128,-1,4
 327 876 327 876 345 858.5 c 128,-1,5
 363 841 363 841 363 815.5 c 128,-1,6
 363 790 363 790 344.5 771.5 c 128,-1,7
 326 753 326 753 300.5 753 c 128,-1,0
 275 753 275 753 257.5 771 c 128,-1,1
443 771 m 128,-1,9
 425 789 425 789 425 814.5 c 128,-1,10
 425 840 425 840 443 858 c 128,-1,11
 461 876 461 876 486.5 876 c 128,-1,12
 512 876 512 876 530 858.5 c 128,-1,13
 548 841 548 841 548 815.5 c 128,-1,14
 548 790 548 790 530 771.5 c 128,-1,15
 512 753 512 753 486.5 753 c 128,-1,8
 461 753 461 753 443 771 c 128,-1,9
384 104 m 128,-1,17
 466 104 466 104 514 160 c 128,-1,18
 562 216 562 216 562 312 c 2,19,-1
 562 699 l 1,20,-1
 680 699 l 1,21,-1
 680 0 l 1,22,-1
 562 0 l 1,23,-1
 562 65 l 1,24,25
 488 -7 488 -7 384 -7 c 0,26,27
 254 -7 254 -7 171 74.5 c 128,-1,28
 88 156 88 156 88 307 c 2,29,-1
 88 699 l 1,30,-1
 206 699 l 1,31,-1
 206 312 l 2,32,33
 206 216 206 216 254 160 c 128,-1,16
 302 104 302 104 384 104 c 128,-1,17
EndSplineSet
EndChar

StartChar: Yacute
Encoding: 221 221 159
Width: 624
GlyphClass: 2
Flags: W
LayerCount: 2
Fore
SplineSet
338 -4 m 0,0,1
 420 -4 420 -4 468 52 c 128,-1,2
 516 108 516 108 516 204 c 2,3,-1
 516 231 l 1,4,5
 437 164 437 164 351 164 c 0,6,7
 223 164 223 164 149 240 c 128,-1,8
 75 316 75 316 75 468 c 2,9,-1
 75 699 l 1,10,-1
 193 699 l 1,11,-1
 193 473 l 2,12,13
 193 275 193 275 351 275 c 0,14,15
 419 275 419 275 462.5 315.5 c 128,-1,16
 506 356 506 356 516 426 c 1,17,-1
 516 700 l 1,18,-1
 634 700 l 1,19,-1
 634 199 l 2,20,21
 634 48 634 48 551 -33.5 c 128,-1,22
 468 -115 468 -115 338 -115 c 0,23,24
 243 -115 243 -115 171 -70 c 128,-1,25
 99 -25 99 -25 66 60 c 1,26,-1
 174 111 l 1,27,28
 194 56 194 56 236 26 c 128,-1,29
 278 -4 278 -4 338 -4 c 0,0,1
389 742 m 1,30,-1
 287 742 l 1,31,-1
 393 887 l 1,32,-1
 511 838 l 1,33,-1
 389 742 l 1,30,-1
EndSplineSet
EndChar

StartChar: Thorn
Encoding: 222 222 160
Width: 686
GlyphClass: 2
Flags: W
LayerCount: 2
Fore
SplineSet
642 369 m 0,0,1
 642 236 642 236 563 176.5 c 128,-1,2
 484 117 484 117 329 117 c 2,3,-1
 215 117 l 1,4,-1
 215 0 l 1,5,-1
 97 0 l 1,6,-1
 97 699 l 1,7,-1
 215 699 l 1,8,-1
 215 611 l 1,9,-1
 327 611 l 2,10,11
 642 611 642 611 642 369 c 0,0,1
481 262.5 m 128,-1,13
 521 301 521 301 521 372 c 128,-1,14
 521 443 521 443 472 473.5 c 128,-1,15
 423 504 423 504 325 504 c 2,16,-1
 215 504 l 1,17,-1
 215 224 l 1,18,-1
 342 224 l 2,19,12
 441 224 441 224 481 262.5 c 128,-1,13
EndSplineSet
EndChar

StartChar: germandbls
Encoding: 223 223 161
Width: 651
GlyphClass: 2
Flags: W
LayerCount: 2
Fore
SplineSet
412 460.5 m 128,-1,1
 447 495 447 495 447 540.5 c 128,-1,2
 447 586 447 586 420.5 619 c 128,-1,3
 394 652 394 652 337 652 c 0,4,5
 261 652 261 652 230 605 c 128,-1,6
 199 558 199 558 199 466 c 2,7,-1
 199 0 l 1,8,-1
 81 0 l 1,9,-1
 81 456 l 2,10,11
 81 528 81 528 87.5 557.5 c 128,-1,12
 94 587 94 587 102.5 613 c 128,-1,13
 111 639 111 639 123 657.5 c 128,-1,14
 135 676 135 676 154 696 c 128,-1,15
 173 716 173 716 196 728 c 0,16,17
 250 757 250 757 322 757 c 128,-1,18
 394 757 394 757 443 737 c 128,-1,19
 492 717 492 717 516 684 c 0,20,21
 561 624 561 624 561 554 c 0,22,23
 561 451 561 451 457 386 c 1,24,25
 531 378 531 378 568 326 c 128,-1,26
 605 274 605 274 605 206 c 0,27,28
 605 112 605 112 539 56 c 128,-1,29
 473 0 473 0 350 0 c 2,30,-1
 309 0 l 1,31,-1
 309 98 l 1,32,-1
 331 98 l 2,33,34
 406 98 406 98 446.5 122.5 c 128,-1,35
 487 147 487 147 487 206.5 c 128,-1,36
 487 266 487 266 447 294.5 c 128,-1,37
 407 323 407 323 340 323 c 0,38,39
 317 323 317 323 305 322 c 1,40,-1
 305 415 l 1,41,0
 377 426 377 426 412 460.5 c 128,-1,1
EndSplineSet
EndChar

StartChar: agrave
Encoding: 224 224 162
Width: 672
GlyphClass: 2
Flags: W
LayerCount: 2
Fore
SplineSet
122 68 m 128,-1,1
 47 144 47 144 47 268 c 128,-1,2
 47 392 47 392 124 466 c 128,-1,3
 201 540 201 540 306 540 c 128,-1,4
 411 540 411 540 479 440 c 1,5,-1
 479 532 l 1,6,-1
 591 532 l 1,7,-1
 591 0 l 1,8,-1
 479 0 l 1,9,-1
 479 87 l 1,10,11
 447 41 447 41 397.5 16.5 c 128,-1,12
 348 -8 348 -8 298 -8 c 0,13,0
 197 -8 197 -8 122 68 c 128,-1,1
208 139 m 128,-1,15
 257 91 257 91 323 91 c 128,-1,16
 389 91 389 91 435 139.5 c 128,-1,17
 481 188 481 188 481 264 c 128,-1,18
 481 340 481 340 435 391 c 128,-1,19
 389 442 389 442 322 442 c 128,-1,20
 255 442 255 442 207 391 c 128,-1,21
 159 340 159 340 159 263.5 c 128,-1,14
 159 187 159 187 208 139 c 128,-1,15
425 600 m 1,22,-1
 323 600 l 1,23,-1
 201 696 l 1,24,-1
 319 745 l 1,25,-1
 425 600 l 1,22,-1
EndSplineSet
EndChar

StartChar: aacute
Encoding: 225 225 163
Width: 672
GlyphClass: 2
Flags: W
LayerCount: 2
Fore
SplineSet
352 600 m 1,0,-1
 250 600 l 1,1,-1
 356 745 l 1,2,-1
 474 696 l 1,3,-1
 352 600 l 1,0,-1
122 68 m 128,-1,5
 47 144 47 144 47 268 c 128,-1,6
 47 392 47 392 124 466 c 128,-1,7
 201 540 201 540 306 540 c 128,-1,8
 411 540 411 540 479 440 c 1,9,-1
 479 532 l 1,10,-1
 591 532 l 1,11,-1
 591 0 l 1,12,-1
 479 0 l 1,13,-1
 479 87 l 1,14,15
 447 41 447 41 397.5 16.5 c 128,-1,16
 348 -8 348 -8 298 -8 c 0,17,4
 197 -8 197 -8 122 68 c 128,-1,5
208 139 m 128,-1,19
 257 91 257 91 323 91 c 128,-1,20
 389 91 389 91 435 139.5 c 128,-1,21
 481 188 481 188 481 264 c 128,-1,22
 481 340 481 340 435 391 c 128,-1,23
 389 442 389 442 322 442 c 128,-1,24
 255 442 255 442 207 391 c 128,-1,25
 159 340 159 340 159 263.5 c 128,-1,18
 159 187 159 187 208 139 c 128,-1,19
EndSplineSet
EndChar

StartChar: acircumflex
Encoding: 226 226 164
Width: 672
GlyphClass: 2
Flags: W
LayerCount: 2
Fore
SplineSet
266 734 m 1,0,-1
 370 734 l 1,1,-1
 492 600 l 1,2,-1
 395 600 l 1,3,-1
 318 656 l 1,4,-1
 241 600 l 1,5,-1
 144 600 l 1,6,-1
 266 734 l 1,0,-1
122 68 m 128,-1,8
 47 144 47 144 47 268 c 128,-1,9
 47 392 47 392 124 466 c 128,-1,10
 201 540 201 540 306 540 c 128,-1,11
 411 540 411 540 479 440 c 1,12,-1
 479 532 l 1,13,-1
 591 532 l 1,14,-1
 591 0 l 1,15,-1
 479 0 l 1,16,-1
 479 87 l 1,17,18
 447 41 447 41 397.5 16.5 c 128,-1,19
 348 -8 348 -8 298 -8 c 0,20,7
 197 -8 197 -8 122 68 c 128,-1,8
208 139 m 128,-1,22
 257 91 257 91 323 91 c 128,-1,23
 389 91 389 91 435 139.5 c 128,-1,24
 481 188 481 188 481 264 c 128,-1,25
 481 340 481 340 435 391 c 128,-1,26
 389 442 389 442 322 442 c 128,-1,27
 255 442 255 442 207 391 c 128,-1,28
 159 340 159 340 159 263.5 c 128,-1,21
 159 187 159 187 208 139 c 128,-1,22
EndSplineSet
EndChar

StartChar: atilde
Encoding: 227 227 165
Width: 672
GlyphClass: 2
Flags: W
LayerCount: 2
Fore
SplineSet
122 68 m 128,-1,1
 47 144 47 144 47 268 c 128,-1,2
 47 392 47 392 124 466 c 128,-1,3
 201 540 201 540 306 540 c 128,-1,4
 411 540 411 540 479 440 c 1,5,-1
 479 532 l 1,6,-1
 591 532 l 1,7,-1
 591 0 l 1,8,-1
 479 0 l 1,9,-1
 479 87 l 1,10,11
 447 41 447 41 397.5 16.5 c 128,-1,12
 348 -8 348 -8 298 -8 c 0,13,0
 197 -8 197 -8 122 68 c 128,-1,1
208 139 m 128,-1,15
 257 91 257 91 323 91 c 128,-1,16
 389 91 389 91 435 139.5 c 128,-1,17
 481 188 481 188 481 264 c 128,-1,18
 481 340 481 340 435 391 c 128,-1,19
 389 442 389 442 322 442 c 128,-1,20
 255 442 255 442 207 391 c 128,-1,21
 159 340 159 340 159 263.5 c 128,-1,14
 159 187 159 187 208 139 c 128,-1,15
386 597 m 0,22,23
 360 597 360 597 313.5 620.5 c 128,-1,24
 267 644 267 644 254 644 c 0,25,26
 221 644 221 644 220 600 c 1,27,-1
 146 600 l 1,28,29
 146 658 146 658 169.5 694 c 128,-1,30
 193 730 193 730 235 730 c 0,31,32
 262 730 262 730 310 706.5 c 128,-1,33
 358 683 358 683 373 683 c 0,34,35
 403 683 403 683 403 727 c 1,36,-1
 478 727 l 1,37,38
 475 597 475 597 386 597 c 0,22,23
EndSplineSet
EndChar

StartChar: adieresis
Encoding: 228 228 166
Width: 672
GlyphClass: 2
Flags: W
LayerCount: 2
Fore
SplineSet
122 68 m 128,-1,1
 47 144 47 144 47 268 c 128,-1,2
 47 392 47 392 124 466 c 128,-1,3
 201 540 201 540 306 540 c 128,-1,4
 411 540 411 540 479 440 c 1,5,-1
 479 532 l 1,6,-1
 591 532 l 1,7,-1
 591 0 l 1,8,-1
 479 0 l 1,9,-1
 479 87 l 1,10,11
 447 41 447 41 397.5 16.5 c 128,-1,12
 348 -8 348 -8 298 -8 c 0,13,0
 197 -8 197 -8 122 68 c 128,-1,1
208 139 m 128,-1,15
 257 91 257 91 323 91 c 128,-1,16
 389 91 389 91 435 139.5 c 128,-1,17
 481 188 481 188 481 264 c 128,-1,18
 481 340 481 340 435 391 c 128,-1,19
 389 442 389 442 322 442 c 128,-1,20
 255 442 255 442 207 391 c 128,-1,21
 159 340 159 340 159 263.5 c 128,-1,14
 159 187 159 187 208 139 c 128,-1,15
187 662 m 128,-1,23
 187 688 187 688 204.5 705.5 c 128,-1,24
 222 723 222 723 248 723 c 128,-1,25
 274 723 274 723 292 705.5 c 128,-1,26
 310 688 310 688 310 662 c 128,-1,27
 310 636 310 636 292 618 c 128,-1,28
 274 600 274 600 248 600 c 128,-1,29
 222 600 222 600 204.5 618 c 128,-1,22
 187 636 187 636 187 662 c 128,-1,23
390 618 m 128,-1,31
 372 636 372 636 372 661.5 c 128,-1,32
 372 687 372 687 390 705 c 128,-1,33
 408 723 408 723 433.5 723 c 128,-1,34
 459 723 459 723 477 705.5 c 128,-1,35
 495 688 495 688 495 662 c 128,-1,36
 495 636 495 636 476.5 618 c 128,-1,37
 458 600 458 600 433 600 c 128,-1,30
 408 600 408 600 390 618 c 128,-1,31
EndSplineSet
EndChar

StartChar: aring
Encoding: 229 229 167
Width: 672
GlyphClass: 2
Flags: W
LayerCount: 2
Fore
SplineSet
122 68 m 128,-1,1
 47 144 47 144 47 268 c 128,-1,2
 47 392 47 392 124 466 c 128,-1,3
 201 540 201 540 306 540 c 128,-1,4
 411 540 411 540 479 440 c 1,5,-1
 479 532 l 1,6,-1
 591 532 l 1,7,-1
 591 0 l 1,8,-1
 479 0 l 1,9,-1
 479 87 l 1,10,11
 447 41 447 41 397.5 16.5 c 128,-1,12
 348 -8 348 -8 298 -8 c 0,13,0
 197 -8 197 -8 122 68 c 128,-1,1
208 139 m 128,-1,15
 257 91 257 91 323 91 c 128,-1,16
 389 91 389 91 435 139.5 c 128,-1,17
 481 188 481 188 481 264 c 128,-1,18
 481 340 481 340 435 391 c 128,-1,19
 389 442 389 442 322 442 c 128,-1,20
 255 442 255 442 207 391 c 128,-1,21
 159 340 159 340 159 263.5 c 128,-1,14
 159 187 159 187 208 139 c 128,-1,15
427 687 m 128,-1,23
 427 645 427 645 394 614 c 128,-1,24
 361 583 361 583 318 583 c 128,-1,25
 275 583 275 583 242.5 614 c 128,-1,26
 210 645 210 645 210 687 c 128,-1,27
 210 729 210 729 242.5 760.5 c 128,-1,28
 275 792 275 792 318 792 c 128,-1,29
 361 792 361 792 394 760.5 c 128,-1,22
 427 729 427 729 427 687 c 128,-1,23
358 647.5 m 128,-1,31
 373 663 373 663 373 687.5 c 128,-1,32
 373 712 373 712 358 727.5 c 128,-1,33
 343 743 343 743 318.5 743 c 128,-1,34
 294 743 294 743 278.5 727.5 c 128,-1,35
 263 712 263 712 263 687.5 c 128,-1,36
 263 663 263 663 278.5 647.5 c 128,-1,37
 294 632 294 632 318.5 632 c 128,-1,30
 343 632 343 632 358 647.5 c 128,-1,31
EndSplineSet
EndChar

StartChar: ae
Encoding: 230 230 168
Width: 952
GlyphClass: 2
Flags: W
LayerCount: 2
Fore
SplineSet
910 230 m 1,0,-1
 513 230 l 1,1,2
 514 166 514 166 559.5 127 c 128,-1,3
 605 88 605 88 668 88 c 0,4,5
 758 88 758 88 810 151 c 1,6,-1
 874 81 l 1,7,8
 788 -8 788 -8 658.5 -8 c 128,-1,9
 529 -8 529 -8 456 88 c 1,10,11
 376 -8 376 -8 243 -8 c 0,12,13
 159 -8 159 -8 100 39.5 c 128,-1,14
 41 87 41 87 41 165 c 128,-1,15
 41 243 41 243 98.5 280 c 128,-1,16
 156 317 156 317 256 317 c 2,17,-1
 401 317 l 1,18,-1
 401 341 l 2,19,20
 401 447 401 447 283 447 c 0,21,22
 209 447 209 447 129 393 c 1,23,-1
 79 463 l 1,24,25
 176 540 176 540 299 540 c 128,-1,26
 422 540 422 540 476 466 c 1,27,28
 548 540 548 540 657.5 540 c 128,-1,29
 767 540 767 540 838.5 474.5 c 128,-1,30
 910 409 910 409 910 294 c 2,31,-1
 910 230 l 1,0,-1
400 198 m 2,32,-1
 400 230 l 1,33,-1
 274 230 l 2,34,35
 181 230 181 230 162 202 c 0,36,37
 153 188 153 188 153 167 c 0,38,39
 153 128 153 128 183 107.5 c 128,-1,40
 213 87 213 87 266.5 87 c 128,-1,41
 320 87 320 87 360 117 c 128,-1,42
 400 147 400 147 400 198 c 2,32,-1
757 411.5 m 128,-1,44
 720 444 720 444 663 444 c 128,-1,45
 606 444 606 444 562.5 410 c 128,-1,46
 519 376 519 376 514 317 c 1,47,-1
 798 316 l 1,48,43
 794 379 794 379 757 411.5 c 128,-1,44
EndSplineSet
EndChar

StartChar: ccedilla
Encoding: 231 231 169
Width: 577
GlyphClass: 2
Flags: W
LayerCount: 2
Fore
SplineSet
409 -117 m 0,0,1
 409 -155 409 -155 378 -183.5 c 128,-1,2
 347 -212 347 -212 299.5 -212 c 128,-1,3
 252 -212 252 -212 216 -190 c 1,4,-1
 242 -133 l 1,5,6
 261 -143 261 -143 280.5 -143 c 128,-1,7
 300 -143 300 -143 311 -131.5 c 128,-1,8
 322 -120 322 -120 322 -104 c 128,-1,9
 322 -88 322 -88 310.5 -75.5 c 128,-1,10
 299 -63 299 -63 281.5 -63 c 128,-1,11
 264 -63 264 -63 252 -68 c 1,12,-1
 285 -6 l 1,13,14
 184 6 184 6 115.5 79.5 c 128,-1,15
 47 153 47 153 47 270 c 128,-1,16
 47 387 47 387 130.5 463.5 c 128,-1,17
 214 540 214 540 334 540 c 128,-1,18
 454 540 454 540 537 457 c 1,19,-1
 471 376 l 1,20,21
 402 436 402 436 332 436 c 128,-1,22
 262 436 262 436 210.5 389.5 c 128,-1,23
 159 343 159 343 159 269.5 c 128,-1,24
 159 196 159 196 209.5 145 c 128,-1,25
 260 94 260 94 335 94 c 128,-1,26
 410 94 410 94 476 162 c 1,27,-1
 542 90 l 1,28,29
 460 8 460 8 356 -5 c 1,30,-1
 339 -38 l 1,31,32
 409 -47 409 -47 409 -117 c 0,0,1
EndSplineSet
EndChar

StartChar: egrave
Encoding: 232 232 170
Width: 612
GlyphClass: 2
Flags: W
LayerCount: 2
Fore
SplineSet
323 540 m 0,0,1
 432 540 432 540 504 479.5 c 128,-1,2
 576 419 576 419 577 322 c 1,3,-1
 578 320 l 1,4,-1
 190 157 l 1,5,6
 242 93 242 93 331.5 93 c 128,-1,7
 421 93 421 93 479 163 c 1,8,-1
 545 90 l 1,9,10
 450 -8 450 -8 321 -8 c 0,11,12
 208 -8 208 -8 127 67 c 128,-1,13
 46 142 46 142 46 265 c 0,14,15
 46 350 46 350 88 414.5 c 128,-1,16
 130 479 130 479 192 509.5 c 128,-1,17
 254 540 254 540 323 540 c 0,0,1
154 263 m 0,18,19
 154 250 154 250 155 244 c 1,20,-1
 450 371 l 1,21,22
 416 437 416 437 329 437 c 0,23,24
 263 437 263 437 208.5 391 c 128,-1,25
 154 345 154 345 154 263 c 0,18,19
406 600 m 1,26,-1
 304 600 l 1,27,-1
 182 696 l 1,28,-1
 300 745 l 1,29,-1
 406 600 l 1,26,-1
EndSplineSet
EndChar

StartChar: eacute
Encoding: 233 233 171
Width: 612
GlyphClass: 2
Flags: W
LayerCount: 2
Fore
SplineSet
323 540 m 0,0,1
 432 540 432 540 504 479.5 c 128,-1,2
 576 419 576 419 577 322 c 1,3,-1
 578 320 l 1,4,-1
 190 157 l 1,5,6
 242 93 242 93 331.5 93 c 128,-1,7
 421 93 421 93 479 163 c 1,8,-1
 545 90 l 1,9,10
 450 -8 450 -8 321 -8 c 0,11,12
 208 -8 208 -8 127 67 c 128,-1,13
 46 142 46 142 46 265 c 0,14,15
 46 350 46 350 88 414.5 c 128,-1,16
 130 479 130 479 192 509.5 c 128,-1,17
 254 540 254 540 323 540 c 0,0,1
154 263 m 0,18,19
 154 250 154 250 155 244 c 1,20,-1
 450 371 l 1,21,22
 416 437 416 437 329 437 c 0,23,24
 263 437 263 437 208.5 391 c 128,-1,25
 154 345 154 345 154 263 c 0,18,19
343 600 m 1,26,-1
 241 600 l 1,27,-1
 347 745 l 1,28,-1
 465 696 l 1,29,-1
 343 600 l 1,26,-1
EndSplineSet
EndChar

StartChar: ecircumflex
Encoding: 234 234 172
Width: 612
GlyphClass: 2
Flags: W
LayerCount: 2
Fore
SplineSet
323 540 m 0,0,1
 432 540 432 540 504 479.5 c 128,-1,2
 576 419 576 419 577 322 c 1,3,-1
 578 320 l 1,4,-1
 190 157 l 1,5,6
 242 93 242 93 331.5 93 c 128,-1,7
 421 93 421 93 479 163 c 1,8,-1
 545 90 l 1,9,10
 450 -8 450 -8 321 -8 c 0,11,12
 208 -8 208 -8 127 67 c 128,-1,13
 46 142 46 142 46 265 c 0,14,15
 46 350 46 350 88 414.5 c 128,-1,16
 130 479 130 479 192 509.5 c 128,-1,17
 254 540 254 540 323 540 c 0,0,1
154 263 m 0,18,19
 154 250 154 250 155 244 c 1,20,-1
 450 371 l 1,21,22
 416 437 416 437 329 437 c 0,23,24
 263 437 263 437 208.5 391 c 128,-1,25
 154 345 154 345 154 263 c 0,18,19
259 734 m 1,26,-1
 363 734 l 1,27,-1
 485 600 l 1,28,-1
 388 600 l 1,29,-1
 311 656 l 1,30,-1
 234 600 l 1,31,-1
 137 600 l 1,32,-1
 259 734 l 1,26,-1
EndSplineSet
EndChar

StartChar: edieresis
Encoding: 235 235 173
Width: 612
GlyphClass: 2
Flags: W
LayerCount: 2
Fore
SplineSet
323 540 m 0,0,1
 432 540 432 540 504 479.5 c 128,-1,2
 576 419 576 419 577 322 c 1,3,-1
 578 320 l 1,4,-1
 190 157 l 1,5,6
 242 93 242 93 331.5 93 c 128,-1,7
 421 93 421 93 479 163 c 1,8,-1
 545 90 l 1,9,10
 450 -8 450 -8 321 -8 c 0,11,12
 208 -8 208 -8 127 67 c 128,-1,13
 46 142 46 142 46 265 c 0,14,15
 46 350 46 350 88 414.5 c 128,-1,16
 130 479 130 479 192 509.5 c 128,-1,17
 254 540 254 540 323 540 c 0,0,1
154 263 m 0,18,19
 154 250 154 250 155 244 c 1,20,-1
 450 371 l 1,21,22
 416 437 416 437 329 437 c 0,23,24
 263 437 263 437 208.5 391 c 128,-1,25
 154 345 154 345 154 263 c 0,18,19
158 662 m 128,-1,27
 158 688 158 688 176 705.5 c 128,-1,28
 194 723 194 723 219.5 723 c 128,-1,29
 245 723 245 723 263 705.5 c 128,-1,30
 281 688 281 688 281 662 c 128,-1,31
 281 636 281 636 262.5 618 c 128,-1,32
 244 600 244 600 218.5 600 c 128,-1,33
 193 600 193 600 175.5 618 c 128,-1,26
 158 636 158 636 158 662 c 128,-1,27
361 618 m 128,-1,35
 343 636 343 636 343 661.5 c 128,-1,36
 343 687 343 687 361 705 c 128,-1,37
 379 723 379 723 404.5 723 c 128,-1,38
 430 723 430 723 448 705.5 c 128,-1,39
 466 688 466 688 466 662 c 128,-1,40
 466 636 466 636 448 618 c 128,-1,41
 430 600 430 600 404.5 600 c 128,-1,34
 379 600 379 600 361 618 c 128,-1,35
EndSplineSet
EndChar

StartChar: igrave
Encoding: 236 236 174
Width: 274
GlyphClass: 2
Flags: W
LayerCount: 2
Fore
SplineSet
200 600 m 1,0,-1
 98 600 l 1,1,-1
 -24 696 l 1,2,-1
 94 745 l 1,3,-1
 200 600 l 1,0,-1
81 532 m 1,4,-1
 193 532 l 1,5,-1
 193 0 l 1,6,-1
 81 0 l 1,7,-1
 81 532 l 1,4,-1
EndSplineSet
EndChar

StartChar: iacute
Encoding: 237 237 175
Width: 274
GlyphClass: 2
Flags: W
LayerCount: 2
Fore
SplineSet
190 600 m 1,0,-1
 96 600 l 1,1,-1
 202 740 l 1,2,-1
 312 691 l 1,3,-1
 190 600 l 1,0,-1
81 532 m 1,4,-1
 193 532 l 1,5,-1
 193 0 l 1,6,-1
 81 0 l 1,7,-1
 81 532 l 1,4,-1
EndSplineSet
EndChar

StartChar: icircumflex
Encoding: 238 238 176
Width: 274
GlyphClass: 2
Flags: W
LayerCount: 2
Fore
SplineSet
81 532 m 1,0,-1
 193 532 l 1,1,-1
 193 0 l 1,2,-1
 81 0 l 1,3,-1
 81 532 l 1,0,-1
90 734 m 1,4,-1
 194 734 l 1,5,-1
 316 600 l 1,6,-1
 219 600 l 1,7,-1
 142 656 l 1,8,-1
 65 600 l 1,9,-1
 -32 600 l 1,10,-1
 90 734 l 1,4,-1
EndSplineSet
EndChar

StartChar: idieresis
Encoding: 239 239 177
Width: 274
GlyphClass: 2
Flags: W
LayerCount: 2
Fore
SplineSet
-8 662 m 128,-1,1
 -8 688 -8 688 10 705.5 c 128,-1,2
 28 723 28 723 53.5 723 c 128,-1,3
 79 723 79 723 97 705.5 c 128,-1,4
 115 688 115 688 115 662 c 128,-1,5
 115 636 115 636 96.5 618 c 128,-1,6
 78 600 78 600 52.5 600 c 128,-1,7
 27 600 27 600 9.5 618 c 128,-1,0
 -8 636 -8 636 -8 662 c 128,-1,1
195 618 m 128,-1,9
 177 636 177 636 177 661.5 c 128,-1,10
 177 687 177 687 195 705 c 128,-1,11
 213 723 213 723 238.5 723 c 128,-1,12
 264 723 264 723 282 705.5 c 128,-1,13
 300 688 300 688 300 662 c 128,-1,14
 300 636 300 636 282 618 c 128,-1,15
 264 600 264 600 238.5 600 c 128,-1,8
 213 600 213 600 195 618 c 128,-1,9
81 532 m 1,16,-1
 193 532 l 1,17,-1
 193 0 l 1,18,-1
 81 0 l 1,19,-1
 81 532 l 1,16,-1
EndSplineSet
EndChar

StartChar: eth
Encoding: 240 240 178
Width: 596
GlyphClass: 2
Flags: W
LayerCount: 2
Fore
SplineSet
399 437 m 1,0,1
 361 500 361 500 276 585 c 1,2,-1
 183 526 l 1,3,-1
 126 580 l 1,4,-1
 220 640 l 1,5,6
 218 643 218 643 147 702 c 1,7,-1
 242 757 l 1,8,9
 278 729 278 729 315 694 c 1,10,-1
 400 748 l 1,11,-1
 459 694 l 1,12,-1
 371 637 l 1,13,14
 547 446 547 446 547 267 c 0,15,16
 547 144 547 144 482 68 c 128,-1,17
 417 -8 417 -8 305 -8 c 128,-1,18
 193 -8 193 -8 121.5 59 c 128,-1,19
 50 126 50 126 50 231.5 c 128,-1,20
 50 337 50 337 120 404.5 c 128,-1,21
 190 472 190 472 289 472 c 0,22,23
 360 472 360 472 397 435 c 1,24,-1
 399 437 l 1,0,1
197.5 131.5 m 128,-1,26
 236 90 236 90 298.5 90 c 128,-1,27
 361 90 361 90 399.5 131.5 c 128,-1,28
 438 173 438 173 438 231.5 c 128,-1,29
 438 290 438 290 399.5 332 c 128,-1,30
 361 374 361 374 298.5 374 c 128,-1,31
 236 374 236 374 197.5 332 c 128,-1,32
 159 290 159 290 159 231.5 c 128,-1,25
 159 173 159 173 197.5 131.5 c 128,-1,26
EndSplineSet
EndChar

StartChar: ntilde
Encoding: 241 241 179
Width: 646
GlyphClass: 2
Flags: W
LayerCount: 2
Fore
SplineSet
193 288 m 2,0,-1
 193 0 l 1,1,-1
 81 0 l 1,2,-1
 81 532 l 1,3,-1
 193 532 l 1,4,-1
 193 435 l 1,5,6
 220 484 220 484 267.5 512 c 128,-1,7
 315 540 315 540 370 540 c 0,8,9
 460 540 460 540 515.5 485 c 128,-1,10
 571 430 571 430 571 326 c 2,11,-1
 571 0 l 1,12,-1
 459 0 l 1,13,-1
 459 292 l 2,14,15
 459 439 459 439 337 439 c 0,16,17
 279 439 279 439 236 400.5 c 128,-1,18
 193 362 193 362 193 288 c 2,0,-1
405 597 m 0,19,20
 379 597 379 597 332.5 620.5 c 128,-1,21
 286 644 286 644 273 644 c 0,22,23
 240 644 240 644 239 600 c 1,24,-1
 165 600 l 1,25,26
 165 658 165 658 188.5 694 c 128,-1,27
 212 730 212 730 254 730 c 0,28,29
 281 730 281 730 329 706.5 c 128,-1,30
 377 683 377 683 392 683 c 0,31,32
 422 683 422 683 422 727 c 1,33,-1
 497 727 l 1,34,35
 494 597 494 597 405 597 c 0,19,20
EndSplineSet
EndChar

StartChar: ograve
Encoding: 242 242 180
Width: 652
GlyphClass: 2
Flags: W
LayerCount: 2
Fore
SplineSet
395 600 m 1,0,-1
 293 600 l 1,1,-1
 171 696 l 1,2,-1
 289 745 l 1,3,-1
 395 600 l 1,0,-1
326 92 m 128,-1,5
 399 92 399 92 446.5 140.5 c 128,-1,6
 494 189 494 189 494 266 c 128,-1,7
 494 343 494 343 446.5 391.5 c 128,-1,8
 399 440 399 440 326 440 c 128,-1,9
 253 440 253 440 205.5 391.5 c 128,-1,10
 158 343 158 343 158 266 c 128,-1,11
 158 189 158 189 205.5 140.5 c 128,-1,4
 253 92 253 92 326 92 c 128,-1,5
326 -8 m 128,-1,13
 206 -8 206 -8 126 71.5 c 128,-1,14
 46 151 46 151 46 266 c 128,-1,15
 46 381 46 381 126 460.5 c 128,-1,16
 206 540 206 540 326 540 c 128,-1,17
 446 540 446 540 526 460.5 c 128,-1,18
 606 381 606 381 606 266 c 128,-1,19
 606 151 606 151 526 71.5 c 128,-1,12
 446 -8 446 -8 326 -8 c 128,-1,13
EndSplineSet
EndChar

StartChar: oacute
Encoding: 243 243 181
Width: 652
GlyphClass: 2
Flags: W
LayerCount: 2
Fore
SplineSet
326 92 m 128,-1,1
 399 92 399 92 446.5 140.5 c 128,-1,2
 494 189 494 189 494 266 c 128,-1,3
 494 343 494 343 446.5 391.5 c 128,-1,4
 399 440 399 440 326 440 c 128,-1,5
 253 440 253 440 205.5 391.5 c 128,-1,6
 158 343 158 343 158 266 c 128,-1,7
 158 189 158 189 205.5 140.5 c 128,-1,0
 253 92 253 92 326 92 c 128,-1,1
326 -8 m 128,-1,9
 206 -8 206 -8 126 71.5 c 128,-1,10
 46 151 46 151 46 266 c 128,-1,11
 46 381 46 381 126 460.5 c 128,-1,12
 206 540 206 540 326 540 c 128,-1,13
 446 540 446 540 526 460.5 c 128,-1,14
 606 381 606 381 606 266 c 128,-1,15
 606 151 606 151 526 71.5 c 128,-1,8
 446 -8 446 -8 326 -8 c 128,-1,9
377 600 m 1,16,-1
 275 600 l 1,17,-1
 381 745 l 1,18,-1
 499 696 l 1,19,-1
 377 600 l 1,16,-1
EndSplineSet
EndChar

StartChar: ocircumflex
Encoding: 244 244 182
Width: 652
GlyphClass: 2
Flags: W
LayerCount: 2
Fore
SplineSet
326 92 m 128,-1,1
 399 92 399 92 446.5 140.5 c 128,-1,2
 494 189 494 189 494 266 c 128,-1,3
 494 343 494 343 446.5 391.5 c 128,-1,4
 399 440 399 440 326 440 c 128,-1,5
 253 440 253 440 205.5 391.5 c 128,-1,6
 158 343 158 343 158 266 c 128,-1,7
 158 189 158 189 205.5 140.5 c 128,-1,0
 253 92 253 92 326 92 c 128,-1,1
326 -8 m 128,-1,9
 206 -8 206 -8 126 71.5 c 128,-1,10
 46 151 46 151 46 266 c 128,-1,11
 46 381 46 381 126 460.5 c 128,-1,12
 206 540 206 540 326 540 c 128,-1,13
 446 540 446 540 526 460.5 c 128,-1,14
 606 381 606 381 606 266 c 128,-1,15
 606 151 606 151 526 71.5 c 128,-1,8
 446 -8 446 -8 326 -8 c 128,-1,9
275 734 m 1,16,-1
 379 734 l 1,17,-1
 501 600 l 1,18,-1
 404 600 l 1,19,-1
 327 656 l 1,20,-1
 250 600 l 1,21,-1
 153 600 l 1,22,-1
 275 734 l 1,16,-1
EndSplineSet
EndChar

StartChar: otilde
Encoding: 245 245 183
Width: 652
GlyphClass: 2
Flags: W
LayerCount: 2
Fore
SplineSet
326 92 m 128,-1,1
 399 92 399 92 446.5 140.5 c 128,-1,2
 494 189 494 189 494 266 c 128,-1,3
 494 343 494 343 446.5 391.5 c 128,-1,4
 399 440 399 440 326 440 c 128,-1,5
 253 440 253 440 205.5 391.5 c 128,-1,6
 158 343 158 343 158 266 c 128,-1,7
 158 189 158 189 205.5 140.5 c 128,-1,0
 253 92 253 92 326 92 c 128,-1,1
326 -8 m 128,-1,9
 206 -8 206 -8 126 71.5 c 128,-1,10
 46 151 46 151 46 266 c 128,-1,11
 46 381 46 381 126 460.5 c 128,-1,12
 206 540 206 540 326 540 c 128,-1,13
 446 540 446 540 526 460.5 c 128,-1,14
 606 381 606 381 606 266 c 128,-1,15
 606 151 606 151 526 71.5 c 128,-1,8
 446 -8 446 -8 326 -8 c 128,-1,9
400 597 m 0,16,17
 374 597 374 597 327.5 620.5 c 128,-1,18
 281 644 281 644 268 644 c 0,19,20
 235 644 235 644 234 600 c 1,21,-1
 160 600 l 1,22,23
 160 658 160 658 183.5 694 c 128,-1,24
 207 730 207 730 249 730 c 0,25,26
 276 730 276 730 324 706.5 c 128,-1,27
 372 683 372 683 387 683 c 0,28,29
 417 683 417 683 417 727 c 1,30,-1
 492 727 l 1,31,32
 489 597 489 597 400 597 c 0,16,17
EndSplineSet
EndChar

StartChar: odieresis
Encoding: 246 246 184
Width: 652
GlyphClass: 2
Flags: W
LayerCount: 2
Fore
SplineSet
168 662 m 128,-1,1
 168 688 168 688 186 705.5 c 128,-1,2
 204 723 204 723 229.5 723 c 128,-1,3
 255 723 255 723 273 705.5 c 128,-1,4
 291 688 291 688 291 662 c 128,-1,5
 291 636 291 636 272.5 618 c 128,-1,6
 254 600 254 600 228.5 600 c 128,-1,7
 203 600 203 600 185.5 618 c 128,-1,0
 168 636 168 636 168 662 c 128,-1,1
371 618 m 128,-1,9
 353 636 353 636 353 661.5 c 128,-1,10
 353 687 353 687 371 705 c 128,-1,11
 389 723 389 723 414.5 723 c 128,-1,12
 440 723 440 723 458 705.5 c 128,-1,13
 476 688 476 688 476 662 c 128,-1,14
 476 636 476 636 458 618 c 128,-1,15
 440 600 440 600 414.5 600 c 128,-1,8
 389 600 389 600 371 618 c 128,-1,9
326 92 m 128,-1,17
 399 92 399 92 446.5 140.5 c 128,-1,18
 494 189 494 189 494 266 c 128,-1,19
 494 343 494 343 446.5 391.5 c 128,-1,20
 399 440 399 440 326 440 c 128,-1,21
 253 440 253 440 205.5 391.5 c 128,-1,22
 158 343 158 343 158 266 c 128,-1,23
 158 189 158 189 205.5 140.5 c 128,-1,16
 253 92 253 92 326 92 c 128,-1,17
326 -8 m 128,-1,25
 206 -8 206 -8 126 71.5 c 128,-1,26
 46 151 46 151 46 266 c 128,-1,27
 46 381 46 381 126 460.5 c 128,-1,28
 206 540 206 540 326 540 c 128,-1,29
 446 540 446 540 526 460.5 c 128,-1,30
 606 381 606 381 606 266 c 128,-1,31
 606 151 606 151 526 71.5 c 128,-1,24
 446 -8 446 -8 326 -8 c 128,-1,25
EndSplineSet
EndChar

StartChar: divide
Encoding: 247 247 185
Width: 568
GlyphClass: 2
Flags: W
LayerCount: 2
Fore
SplineSet
210 211 m 128,-1,1
 210 242 210 242 231.5 263.5 c 128,-1,2
 253 285 253 285 284 285 c 128,-1,3
 315 285 315 285 337 263.5 c 128,-1,4
 359 242 359 242 359 211 c 128,-1,5
 359 180 359 180 337 158 c 128,-1,6
 315 136 315 136 284 136 c 128,-1,7
 253 136 253 136 231.5 158 c 128,-1,0
 210 180 210 180 210 211 c 128,-1,1
210 566 m 128,-1,9
 210 597 210 597 231.5 618.5 c 128,-1,10
 253 640 253 640 284 640 c 128,-1,11
 315 640 315 640 337 618.5 c 128,-1,12
 359 597 359 597 359 566 c 128,-1,13
 359 535 359 535 337 513 c 128,-1,14
 315 491 315 491 284 491 c 128,-1,15
 253 491 253 491 231.5 513 c 128,-1,8
 210 535 210 535 210 566 c 128,-1,9
48 434 m 1,16,-1
 520 434 l 1,17,-1
 520 340 l 1,18,-1
 48 340 l 1,19,-1
 48 434 l 1,16,-1
EndSplineSet
EndChar

StartChar: oslash
Encoding: 248 248 186
Width: 652
GlyphClass: 2
Flags: W
LayerCount: 2
Fore
SplineSet
326 -8 m 0,0,1
 298 -8 298 -8 261 -1 c 1,2,-1
 213 -105 l 1,3,-1
 113 -105 l 1,4,-1
 177 32 l 1,5,6
 116 68 116 68 81 130 c 128,-1,7
 46 192 46 192 46 266 c 0,8,9
 46 381 46 381 126 460.5 c 128,-1,10
 206 540 206 540 326 540 c 0,11,12
 370 540 370 540 409 528 c 1,13,-1
 453 622 l 1,14,-1
 553 622 l 1,15,-1
 491 490 l 1,16,17
 545 452 545 452 575.5 393.5 c 128,-1,18
 606 335 606 335 606 266 c 0,19,20
 606 151 606 151 526 71.5 c 128,-1,21
 446 -8 446 -8 326 -8 c 0,0,1
205.5 391.5 m 128,-1,23
 158 343 158 343 158 259.5 c 128,-1,24
 158 176 158 176 221 126 c 1,25,-1
 366 436 l 1,26,27
 349 440 349 440 326 440 c 0,28,22
 253 440 253 440 205.5 391.5 c 128,-1,23
326 92 m 0,29,30
 399 92 399 92 446.5 140.5 c 128,-1,31
 494 189 494 189 494 267 c 128,-1,32
 494 345 494 345 445 392 c 1,33,-1
 305 93 l 1,34,35
 312 92 312 92 326 92 c 0,29,30
EndSplineSet
EndChar

StartChar: ugrave
Encoding: 249 249 187
Width: 646
GlyphClass: 2
Flags: W
LayerCount: 2
Fore
SplineSet
393 600 m 1,0,-1
 291 600 l 1,1,-1
 169 696 l 1,2,-1
 287 745 l 1,3,-1
 393 600 l 1,0,-1
453 244 m 2,4,-1
 453 532 l 1,5,-1
 565 532 l 1,6,-1
 565 0 l 1,7,-1
 453 0 l 1,8,-1
 453 97 l 1,9,10
 426 48 426 48 378.5 20 c 128,-1,11
 331 -8 331 -8 276 -8 c 0,12,13
 186 -8 186 -8 130.5 47 c 128,-1,14
 75 102 75 102 75 206 c 2,15,-1
 75 532 l 1,16,-1
 187 532 l 1,17,-1
 187 240 l 2,18,19
 187 93 187 93 309 93 c 0,20,21
 367 93 367 93 410 131.5 c 128,-1,22
 453 170 453 170 453 244 c 2,4,-1
EndSplineSet
EndChar

StartChar: uacute
Encoding: 250 250 188
Width: 646
GlyphClass: 2
Flags: W
LayerCount: 2
Fore
SplineSet
453 244 m 2,0,-1
 453 532 l 1,1,-1
 565 532 l 1,2,-1
 565 0 l 1,3,-1
 453 0 l 1,4,-1
 453 97 l 1,5,6
 426 48 426 48 378.5 20 c 128,-1,7
 331 -8 331 -8 276 -8 c 0,8,9
 186 -8 186 -8 130.5 47 c 128,-1,10
 75 102 75 102 75 206 c 2,11,-1
 75 532 l 1,12,-1
 187 532 l 1,13,-1
 187 240 l 2,14,15
 187 93 187 93 309 93 c 0,16,17
 367 93 367 93 410 131.5 c 128,-1,18
 453 170 453 170 453 244 c 2,0,-1
350 602 m 1,19,-1
 248 602 l 1,20,-1
 354 747 l 1,21,-1
 472 698 l 1,22,-1
 350 602 l 1,19,-1
EndSplineSet
EndChar

StartChar: ucircumflex
Encoding: 251 251 189
Width: 646
GlyphClass: 2
Flags: W
LayerCount: 2
Fore
SplineSet
453 244 m 2,0,-1
 453 532 l 1,1,-1
 565 532 l 1,2,-1
 565 0 l 1,3,-1
 453 0 l 1,4,-1
 453 97 l 1,5,6
 426 48 426 48 378.5 20 c 128,-1,7
 331 -8 331 -8 276 -8 c 0,8,9
 186 -8 186 -8 130.5 47 c 128,-1,10
 75 102 75 102 75 206 c 2,11,-1
 75 532 l 1,12,-1
 187 532 l 1,13,-1
 187 240 l 2,14,15
 187 93 187 93 309 93 c 0,16,17
 367 93 367 93 410 131.5 c 128,-1,18
 453 170 453 170 453 244 c 2,0,-1
270 734 m 1,19,-1
 374 734 l 1,20,-1
 496 600 l 1,21,-1
 399 600 l 1,22,-1
 322 656 l 1,23,-1
 245 600 l 1,24,-1
 148 600 l 1,25,-1
 270 734 l 1,19,-1
EndSplineSet
EndChar

StartChar: udieresis
Encoding: 252 252 190
Width: 646
GlyphClass: 2
Flags: W
LayerCount: 2
Fore
SplineSet
162 662 m 128,-1,1
 162 688 162 688 180 705.5 c 128,-1,2
 198 723 198 723 223.5 723 c 128,-1,3
 249 723 249 723 267 705.5 c 128,-1,4
 285 688 285 688 285 662 c 128,-1,5
 285 636 285 636 266.5 618 c 128,-1,6
 248 600 248 600 222.5 600 c 128,-1,7
 197 600 197 600 179.5 618 c 128,-1,0
 162 636 162 636 162 662 c 128,-1,1
365 618 m 128,-1,9
 347 636 347 636 347 661.5 c 128,-1,10
 347 687 347 687 365 705 c 128,-1,11
 383 723 383 723 408.5 723 c 128,-1,12
 434 723 434 723 452 705.5 c 128,-1,13
 470 688 470 688 470 662 c 128,-1,14
 470 636 470 636 452 618 c 128,-1,15
 434 600 434 600 408.5 600 c 128,-1,8
 383 600 383 600 365 618 c 128,-1,9
453 244 m 2,16,-1
 453 532 l 1,17,-1
 565 532 l 1,18,-1
 565 0 l 1,19,-1
 453 0 l 1,20,-1
 453 97 l 1,21,22
 426 48 426 48 378.5 20 c 128,-1,23
 331 -8 331 -8 276 -8 c 0,24,25
 186 -8 186 -8 130.5 47 c 128,-1,26
 75 102 75 102 75 206 c 2,27,-1
 75 532 l 1,28,-1
 187 532 l 1,29,-1
 187 240 l 2,30,31
 187 93 187 93 309 93 c 0,32,33
 367 93 367 93 410 131.5 c 128,-1,34
 453 170 453 170 453 244 c 2,16,-1
EndSplineSet
EndChar

StartChar: yacute
Encoding: 253 253 191
Width: 574
GlyphClass: 2
Flags: W
LayerCount: 2
Fore
SplineSet
302 -110 m 0,0,1
 450 -110 450 -110 450 78 c 2,2,-1
 450 111 l 1,3,4
 383 42 383 42 279 42 c 0,5,6
 72 42 72 42 72 269 c 2,7,-1
 72 531 l 1,8,-1
 184 531 l 1,9,-1
 184 319 l 2,10,11
 184 226 184 226 212.5 187.5 c 128,-1,12
 241 149 241 149 310.5 149 c 128,-1,13
 380 149 380 149 412 184.5 c 128,-1,14
 444 220 444 220 450 292 c 1,15,-1
 450 532 l 1,16,-1
 562 532 l 1,17,-1
 562 75 l 2,18,19
 562 -64 562 -64 489.5 -138 c 128,-1,20
 417 -212 417 -212 302 -212 c 0,21,22
 214 -212 214 -212 147.5 -170 c 128,-1,23
 81 -128 81 -128 51 -50 c 1,24,-1
 152 -7 l 1,25,26
 191 -110 191 -110 302 -110 c 0,0,1
332 628 m 1,27,-1
 230 628 l 1,28,-1
 336 773 l 1,29,-1
 454 724 l 1,30,-1
 332 628 l 1,27,-1
EndSplineSet
EndChar

StartChar: thorn
Encoding: 254 254 192
Width: 672
GlyphClass: 2
Flags: W
LayerCount: 2
Fore
SplineSet
553 462 m 128,-1,1
 625 384 625 384 625 264.5 c 128,-1,2
 625 145 625 145 553.5 68.5 c 128,-1,3
 482 -8 482 -8 363 -8 c 0,4,5
 281 -8 281 -8 220 44 c 0,6,7
 206 56 206 56 200 64 c 2,8,-1
 193 73 l 1,9,-1
 193 -194 l 1,10,-1
 81 -194 l 1,11,-1
 81 742 l 1,12,-1
 193 742 l 1,13,-1
 193 459 l 1,14,15
 196 462 196 462 200.5 467.5 c 128,-1,16
 205 473 205 473 222 487 c 128,-1,17
 239 501 239 501 258 512 c 0,18,19
 308 540 308 540 365 540 c 0,20,0
 481 540 481 540 553 462 c 128,-1,1
458.5 143.5 m 128,-1,22
 505 196 505 196 505 266.5 c 128,-1,23
 505 337 505 337 459 389.5 c 128,-1,24
 413 442 413 442 345 442 c 128,-1,25
 277 442 277 442 234 390 c 128,-1,26
 191 338 191 338 191 266 c 128,-1,27
 191 194 191 194 234 142.5 c 128,-1,28
 277 91 277 91 344.5 91 c 128,-1,21
 412 91 412 91 458.5 143.5 c 128,-1,22
EndSplineSet
EndChar

StartChar: ydieresis
Encoding: 255 255 193
Width: 574
GlyphClass: 2
Flags: W
LayerCount: 2
Fore
SplineSet
302 -110 m 0,0,1
 450 -110 450 -110 450 78 c 2,2,-1
 450 111 l 1,3,4
 383 42 383 42 279 42 c 0,5,6
 72 42 72 42 72 269 c 2,7,-1
 72 531 l 1,8,-1
 184 531 l 1,9,-1
 184 319 l 2,10,11
 184 226 184 226 212.5 187.5 c 128,-1,12
 241 149 241 149 310.5 149 c 128,-1,13
 380 149 380 149 412 184.5 c 128,-1,14
 444 220 444 220 450 292 c 1,15,-1
 450 532 l 1,16,-1
 562 532 l 1,17,-1
 562 75 l 2,18,19
 562 -64 562 -64 489.5 -138 c 128,-1,20
 417 -212 417 -212 302 -212 c 0,21,22
 214 -212 214 -212 147.5 -170 c 128,-1,23
 81 -128 81 -128 51 -50 c 1,24,-1
 152 -7 l 1,25,26
 191 -110 191 -110 302 -110 c 0,0,1
138 662 m 128,-1,28
 138 688 138 688 156 705.5 c 128,-1,29
 174 723 174 723 199.5 723 c 128,-1,30
 225 723 225 723 243 705.5 c 128,-1,31
 261 688 261 688 261 662 c 128,-1,32
 261 636 261 636 242.5 618 c 128,-1,33
 224 600 224 600 198.5 600 c 128,-1,34
 173 600 173 600 155.5 618 c 128,-1,27
 138 636 138 636 138 662 c 128,-1,28
341 618 m 128,-1,36
 323 636 323 636 323 661.5 c 128,-1,37
 323 687 323 687 341 705 c 128,-1,38
 359 723 359 723 384.5 723 c 128,-1,39
 410 723 410 723 428 705.5 c 128,-1,40
 446 688 446 688 446 662 c 128,-1,41
 446 636 446 636 428 618 c 128,-1,42
 410 600 410 600 384.5 600 c 128,-1,35
 359 600 359 600 341 618 c 128,-1,36
EndSplineSet
EndChar

StartChar: hbar
Encoding: 295 295 194
Width: 646
GlyphClass: 2
Flags: W
LayerCount: 2
Fore
SplineSet
351 661 m 1,0,-1
 351 574 l 1,1,-1
 193 574 l 1,2,-1
 193 435 l 1,3,4
 217 484 217 484 265.5 512 c 128,-1,5
 314 540 314 540 370 540 c 0,6,7
 460 540 460 540 515.5 485 c 128,-1,8
 571 430 571 430 571 326 c 2,9,-1
 571 0 l 1,10,-1
 459 0 l 1,11,-1
 459 292 l 2,12,13
 459 439 459 439 337 439 c 0,14,15
 279 439 279 439 236 400.5 c 128,-1,16
 193 362 193 362 193 288 c 2,17,-1
 193 0 l 1,18,-1
 81 0 l 1,19,-1
 81 574 l 1,20,-1
 44 574 l 1,21,-1
 44 661 l 1,22,-1
 81 661 l 1,23,-1
 81 741 l 1,24,-1
 193 741 l 1,25,-1
 193 661 l 1,26,-1
 351 661 l 1,0,-1
EndSplineSet
EndChar

StartChar: Itilde
Encoding: 296 296 195
Width: 484
GlyphClass: 2
Flags: W
LayerCount: 2
Fore
SplineSet
432 99 m 1,0,-1
 432 -7 l 1,1,-1
 52 -7 l 1,2,-1
 52 99 l 1,3,-1
 180 99 l 1,4,-1
 180 593 l 1,5,-1
 52 593 l 1,6,-1
 52 699 l 1,7,-1
 432 699 l 1,8,-1
 432 593 l 1,9,-1
 298 593 l 1,10,-1
 298 99 l 1,11,-1
 432 99 l 1,0,-1
315 754 m 0,12,13
 289 754 289 754 242.5 777.5 c 128,-1,14
 196 801 196 801 183 801 c 0,15,16
 150 801 150 801 149 757 c 1,17,-1
 75 757 l 1,18,19
 75 815 75 815 98.5 851 c 128,-1,20
 122 887 122 887 164 887 c 0,21,22
 191 887 191 887 239 863.5 c 128,-1,23
 287 840 287 840 302 840 c 0,24,25
 332 840 332 840 332 884 c 1,26,-1
 407 884 l 1,27,28
 404 754 404 754 315 754 c 0,12,13
EndSplineSet
EndChar

StartChar: itilde
Encoding: 297 297 196
Width: 274
GlyphClass: 2
Flags: W
LayerCount: 2
Fore
SplineSet
81 532 m 1,0,-1
 193 532 l 1,1,-1
 193 0 l 1,2,-1
 81 0 l 1,3,-1
 81 532 l 1,0,-1
220 597 m 0,4,5
 194 597 194 597 147.5 620.5 c 128,-1,6
 101 644 101 644 88 644 c 0,7,8
 55 644 55 644 54 600 c 1,9,-1
 -20 600 l 1,10,11
 -20 658 -20 658 3.5 694 c 128,-1,12
 27 730 27 730 69 730 c 0,13,14
 96 730 96 730 144 706.5 c 128,-1,15
 192 683 192 683 207 683 c 0,16,17
 237 683 237 683 237 727 c 1,18,-1
 312 727 l 1,19,20
 309 597 309 597 220 597 c 0,4,5
EndSplineSet
EndChar

StartChar: dotlessi
Encoding: 305 305 197
Width: 274
GlyphClass: 2
Flags: W
LayerCount: 2
Fore
SplineSet
81 532 m 1,0,-1
 193 532 l 1,1,-1
 193 0 l 1,2,-1
 81 0 l 1,3,-1
 81 532 l 1,0,-1
EndSplineSet
EndChar

StartChar: ij
Encoding: 307 307 198
Width: 603
GlyphClass: 2
Flags: W
LayerCount: 2
Fore
SplineSet
193 0 m 1,0,-1
 81 0 l 1,1,-1
 81 532 l 1,2,-1
 193 532 l 1,3,-1
 193 0 l 1,0,-1
67 688 m 128,-1,5
 67 717 67 717 88 738 c 128,-1,6
 109 759 109 759 138 759 c 128,-1,7
 167 759 167 759 188 738 c 128,-1,8
 209 717 209 717 209 688 c 128,-1,9
 209 659 209 659 188 638 c 128,-1,10
 167 617 167 617 138 617 c 128,-1,11
 109 617 109 617 88 638 c 128,-1,4
 67 659 67 659 67 688 c 128,-1,5
410 -25 m 2,12,-1
 410 532 l 1,13,-1
 522 532 l 1,14,-1
 522 -29 l 2,15,16
 522 -113 522 -113 471.5 -162.5 c 128,-1,17
 421 -212 421 -212 349.5 -212 c 128,-1,18
 278 -212 278 -212 219 -159 c 1,19,-1
 271 -75 l 1,20,21
 305 -108 305 -108 339.5 -108 c 128,-1,22
 374 -108 374 -108 392 -86 c 128,-1,23
 410 -64 410 -64 410 -25 c 2,12,-1
394 688 m 128,-1,25
 394 717 394 717 415 738 c 128,-1,26
 436 759 436 759 465 759 c 128,-1,27
 494 759 494 759 515 738 c 128,-1,28
 536 717 536 717 536 688 c 128,-1,29
 536 659 536 659 515 638 c 128,-1,30
 494 617 494 617 465 617 c 128,-1,31
 436 617 436 617 415 638 c 128,-1,24
 394 659 394 659 394 688 c 128,-1,25
EndSplineSet
EndChar

StartChar: Jcircumflex
Encoding: 308 308 199
Width: 551
GlyphClass: 2
Flags: W
LayerCount: 2
Fore
SplineSet
114 593 m 1,0,-1
 114 699 l 1,1,-1
 474 699 l 1,2,-1
 474 128 l 2,3,4
 474 46 474 46 438 -11 c 0,5,6
 372 -116 372 -116 237 -116 c 128,-1,7
 102 -116 102 -116 11 -15 c 1,8,-1
 81 73 l 1,9,10
 148 -2 148 -2 225 -2 c 0,11,12
 274 -2 274 -2 315 30 c 128,-1,13
 356 62 356 62 356 122 c 2,14,-1
 356 593 l 1,15,-1
 114 593 l 1,0,-1
240 891 m 1,16,-1
 344 891 l 1,17,-1
 466 757 l 1,18,-1
 369 757 l 1,19,-1
 292 813 l 1,20,-1
 215 757 l 1,21,-1
 118 757 l 1,22,-1
 240 891 l 1,16,-1
EndSplineSet
EndChar

StartChar: jcircumflex
Encoding: 309 309 200
Width: 274
GlyphClass: 2
Flags: W
LayerCount: 2
Fore
SplineSet
81 -25 m 2,0,-1
 81 532 l 1,1,-1
 193 532 l 1,2,-1
 193 -29 l 2,3,4
 193 -113 193 -113 142.5 -162.5 c 128,-1,5
 92 -212 92 -212 20.5 -212 c 128,-1,6
 -51 -212 -51 -212 -110 -159 c 1,7,-1
 -58 -75 l 1,8,9
 -24 -108 -24 -108 10.5 -108 c 128,-1,10
 45 -108 45 -108 63 -86 c 128,-1,11
 81 -64 81 -64 81 -25 c 2,0,-1
88 734 m 1,12,-1
 192 734 l 1,13,-1
 314 600 l 1,14,-1
 217 600 l 1,15,-1
 140 656 l 1,16,-1
 63 600 l 1,17,-1
 -34 600 l 1,18,-1
 88 734 l 1,12,-1
EndSplineSet
EndChar

StartChar: kcedilla
Encoding: 311 311 201
Width: 581
GlyphClass: 2
Flags: W
LayerCount: 2
Fore
SplineSet
193 0 m 1,0,-1
 81 0 l 1,1,-1
 81 742 l 1,2,-1
 193 742 l 1,3,-1
 193 306 l 1,4,-1
 409 532 l 1,5,-1
 553 532 l 1,6,-1
 351 321 l 1,7,-1
 568 0 l 1,8,-1
 432 0 l 1,9,-1
 274 233 l 1,10,-1
 193 151 l 1,11,-1
 193 0 l 1,0,-1
401 -117 m 0,12,13
 401 -155 401 -155 370 -183.5 c 128,-1,14
 339 -212 339 -212 291.5 -212 c 128,-1,15
 244 -212 244 -212 208 -190 c 1,16,-1
 234 -133 l 1,17,18
 253 -143 253 -143 272.5 -143 c 128,-1,19
 292 -143 292 -143 303 -131.5 c 128,-1,20
 314 -120 314 -120 314 -104 c 128,-1,21
 314 -88 314 -88 302.5 -75.5 c 128,-1,22
 291 -63 291 -63 273.5 -63 c 128,-1,23
 256 -63 256 -63 244 -68 c 1,24,-1
 280 0 l 1,25,-1
 351 0 l 1,26,-1
 331 -38 l 1,27,28
 401 -47 401 -47 401 -117 c 0,12,13
EndSplineSet
EndChar

StartChar: kgreenlandic
Encoding: 312 312 202
Width: 581
GlyphClass: 2
Flags: W
LayerCount: 2
Fore
SplineSet
193 0 m 1,0,-1
 81 0 l 1,1,-1
 81 532 l 1,2,-1
 193 532 l 1,3,-1
 193 306 l 1,4,-1
 409 532 l 1,5,-1
 553 532 l 1,6,-1
 351 321 l 1,7,-1
 568 0 l 1,8,-1
 432 0 l 1,9,-1
 274 233 l 1,10,-1
 193 151 l 1,11,-1
 193 0 l 1,0,-1
EndSplineSet
EndChar

StartChar: ldot
Encoding: 320 320 203
Width: 403
GlyphClass: 2
Flags: W
LayerCount: 2
Fore
SplineSet
347 38 m 1,0,1
 307 -8 307 -8 235 -8 c 128,-1,2
 163 -8 163 -8 119.5 35 c 128,-1,3
 76 78 76 78 76 162 c 2,4,-1
 76 699 l 1,5,-1
 188 699 l 1,6,-1
 188 175 l 2,7,8
 188 95 188 95 248 95 c 0,9,10
 283 95 283 95 298 120 c 1,11,-1
 347 38 l 1,0,1
264 319 m 128,-1,13
 264 350 264 350 285.5 371.5 c 128,-1,14
 307 393 307 393 338 393 c 128,-1,15
 369 393 369 393 391 371.5 c 128,-1,16
 413 350 413 350 413 319 c 128,-1,17
 413 288 413 288 391 266 c 128,-1,18
 369 244 369 244 338 244 c 128,-1,19
 307 244 307 244 285.5 266 c 128,-1,12
 264 288 264 288 264 319 c 128,-1,13
EndSplineSet
EndChar

StartChar: Lslash
Encoding: 321 321 204
Width: 578
GlyphClass: 2
Flags: W
LayerCount: 2
Fore
SplineSet
109 699 m 1,0,-1
 227 699 l 1,1,-1
 227 362 l 1,2,-1
 446 430 l 1,3,-1
 446 325 l 1,4,-1
 227 257 l 1,5,-1
 227 112 l 1,6,-1
 546 112 l 1,7,-1
 546 0 l 1,8,-1
 109 0 l 1,9,-1
 109 220 l 1,10,-1
 30 196 l 1,11,-1
 30 301 l 1,12,-1
 109 325 l 1,13,-1
 109 699 l 1,0,-1
EndSplineSet
EndChar

StartChar: lslash
Encoding: 322 322 205
Width: 320
GlyphClass: 2
Flags: W
LayerCount: 2
Fore
SplineSet
104 699 m 1,0,-1
 216 699 l 1,1,-1
 216 375 l 1,2,-1
 291 397 l 1,3,-1
 291 292 l 1,4,-1
 216 270 l 1,5,-1
 216 0 l 1,6,-1
 104 0 l 1,7,-1
 104 239 l 1,8,-1
 22 216 l 1,9,-1
 22 321 l 1,10,-1
 104 344 l 1,11,-1
 104 699 l 1,0,-1
EndSplineSet
EndChar

StartChar: Nacute
Encoding: 323 323 206
Width: 836
GlyphClass: 2
Flags: W
LayerCount: 2
Fore
SplineSet
527.5 550 m 128,-1,1
 484 605 484 605 402 605 c 128,-1,2
 320 605 320 605 267.5 548.5 c 128,-1,3
 215 492 215 492 215 397 c 2,4,-1
 215 0 l 1,5,-1
 97 0 l 1,6,-1
 97 699 l 1,7,-1
 215 699 l 1,8,-1
 215 633 l 1,9,10
 256 674 256 674 310.5 694.5 c 128,-1,11
 365 715 365 715 418 715 c 0,12,13
 534 715 534 715 611.5 634 c 128,-1,14
 689 553 689 553 689 411 c 2,15,-1
 689 0 l 1,16,-1
 571 0 l 1,17,-1
 571 397 l 2,18,0
 571 495 571 495 527.5 550 c 128,-1,1
471 787 m 1,19,-1
 369 787 l 1,20,-1
 475 932 l 1,21,-1
 593 883 l 1,22,-1
 471 787 l 1,19,-1
EndSplineSet
EndChar

StartChar: nacute
Encoding: 324 324 207
Width: 646
GlyphClass: 2
Flags: W
LayerCount: 2
Fore
SplineSet
193 288 m 2,0,-1
 193 0 l 1,1,-1
 81 0 l 1,2,-1
 81 532 l 1,3,-1
 193 532 l 1,4,-1
 193 435 l 1,5,6
 220 484 220 484 267.5 512 c 128,-1,7
 315 540 315 540 370 540 c 0,8,9
 460 540 460 540 515.5 485 c 128,-1,10
 571 430 571 430 571 326 c 2,11,-1
 571 0 l 1,12,-1
 459 0 l 1,13,-1
 459 292 l 2,14,15
 459 439 459 439 337 439 c 0,16,17
 279 439 279 439 236 400.5 c 128,-1,18
 193 362 193 362 193 288 c 2,0,-1
365 628 m 1,19,-1
 263 628 l 1,20,-1
 369 773 l 1,21,-1
 487 724 l 1,22,-1
 365 628 l 1,19,-1
EndSplineSet
EndChar

StartChar: OE
Encoding: 338 338 208
Width: 1066
GlyphClass: 2
Flags: W
LayerCount: 2
Fore
SplineSet
753 600 m 0,0,1
 622 600 622 600 622 522 c 0,2,3
 622 421 622 421 789 421 c 2,4,-1
 884 421 l 1,5,-1
 884 315 l 1,6,7
 821 315 821 315 783.5 315 c 128,-1,8
 746 315 746 315 717.5 313 c 128,-1,9
 689 311 689 311 675 307.5 c 128,-1,10
 661 304 661 304 640.5 296 c 128,-1,11
 620 288 620 288 610 277 c 0,12,13
 584 248 584 248 584 208 c 0,14,15
 584 107 584 107 750 107 c 0,16,17
 802 107 802 107 851.5 119.5 c 128,-1,18
 901 132 901 132 929 149 c 1,19,-1
 961 43 l 1,20,21
 868 -7 868 -7 739 -7 c 0,22,23
 682 -7 682 -7 632 4 c 1,24,-1
 632 0 l 1,25,-1
 409 0 l 2,26,27
 258 0 258 0 155.5 100 c 128,-1,28
 53 200 53 200 53 349.5 c 128,-1,29
 53 499 53 499 155.5 599 c 128,-1,30
 258 699 258 699 409 699 c 2,31,-1
 628 699 l 1,32,33
 677 716 677 716 732 716 c 128,-1,34
 787 716 787 716 839.5 706 c 128,-1,35
 892 696 892 696 925 680 c 1,36,-1
 901 568 l 1,37,38
 828 600 828 600 753 600 c 0,0,1
181 350 m 128,-1,40
 181 248 181 248 250.5 175.5 c 128,-1,41
 320 103 320 103 420 103 c 2,42,-1
 486 103 l 1,43,44
 462 146 462 146 462 205 c 0,45,46
 462 321 462 321 577 376 c 1,47,48
 496 433 496 433 496 533 c 0,49,50
 496 566 496 566 508 596 c 1,51,-1
 420 596 l 2,52,53
 319 596 319 596 250 524 c 128,-1,39
 181 452 181 452 181 350 c 128,-1,40
EndSplineSet
EndChar

StartChar: oe
Encoding: 339 339 209
Width: 1066
GlyphClass: 2
Flags: W
LayerCount: 2
Fore
SplineSet
771 540 m 0,0,1
 880 540 880 540 952 479.5 c 128,-1,2
 1024 419 1024 419 1025 322 c 1,3,-1
 1026 320 l 1,4,-1
 638 157 l 1,5,6
 690 93 690 93 779.5 93 c 128,-1,7
 869 93 869 93 927 163 c 1,8,-1
 993 90 l 1,9,10
 898 -8 898 -8 769 -8 c 0,11,12
 703 -8 703 -8 645 19 c 128,-1,13
 587 46 587 46 548 96 c 1,14,15
 467 -8 467 -8 326 -8 c 0,16,17
 206 -8 206 -8 126 71.5 c 128,-1,18
 46 151 46 151 46 266 c 128,-1,19
 46 381 46 381 126 460.5 c 128,-1,20
 206 540 206 540 326 540 c 0,21,22
 466 540 466 540 549 434 c 1,23,24
 589 485 589 485 648.5 512.5 c 128,-1,25
 708 540 708 540 771 540 c 0,0,1
494 258 m 1,26,-1
 494 266 l 2,27,28
 494 343 494 343 446.5 391.5 c 128,-1,29
 399 440 399 440 326 440 c 128,-1,30
 253 440 253 440 205.5 391.5 c 128,-1,31
 158 343 158 343 158 266 c 128,-1,32
 158 189 158 189 205.5 140.5 c 128,-1,33
 253 92 253 92 325 92 c 128,-1,34
 397 92 397 92 444 138 c 128,-1,35
 491 184 491 184 494 258 c 1,26,-1
604 294 m 1,36,37
 606 276 606 276 606 269 c 128,-1,38
 606 262 606 262 605.5 255 c 128,-1,39
 605 248 605 248 605 245 c 1,40,-1
 898 371 l 1,41,42
 864 437 864 437 777 437 c 0,43,44
 718 437 718 437 666.5 399.5 c 128,-1,45
 615 362 615 362 604 294 c 1,36,37
EndSplineSet
EndChar

StartChar: Racute
Encoding: 340 340 210
Width: 728
GlyphClass: 2
Flags: W
LayerCount: 2
Fore
SplineSet
655 472 m 0,0,1
 655 299 655 299 504 254 c 1,2,-1
 687 0 l 1,3,-1
 537 0 l 1,4,-1
 370 235 l 1,5,-1
 215 235 l 1,6,-1
 215 0 l 1,7,-1
 97 0 l 1,8,-1
 97 699 l 1,9,-1
 357 699 l 2,10,11
 517 699 517 699 586 645 c 128,-1,12
 655 591 655 591 655 472 c 0,0,1
498 373 m 128,-1,14
 534 404 534 404 534 472.5 c 128,-1,15
 534 541 534 541 497 566.5 c 128,-1,16
 460 592 460 592 365 592 c 2,17,-1
 215 592 l 1,18,-1
 215 342 l 1,19,-1
 362 342 l 2,20,13
 462 342 462 342 498 373 c 128,-1,14
372 787 m 1,21,-1
 270 787 l 1,22,-1
 376 932 l 1,23,-1
 494 883 l 1,24,-1
 372 787 l 1,21,-1
EndSplineSet
EndChar

StartChar: Rcommaaccent
Encoding: 342 342 211
Width: 728
GlyphClass: 2
Flags: W
LayerCount: 2
Fore
SplineSet
655 472 m 0,0,1
 655 299 655 299 504 254 c 1,2,-1
 687 0 l 1,3,-1
 537 0 l 1,4,-1
 370 235 l 1,5,-1
 215 235 l 1,6,-1
 215 0 l 1,7,-1
 97 0 l 1,8,-1
 97 699 l 1,9,-1
 357 699 l 2,10,11
 517 699 517 699 586 645 c 128,-1,12
 655 591 655 591 655 472 c 0,0,1
498 373 m 128,-1,14
 534 404 534 404 534 472.5 c 128,-1,15
 534 541 534 541 497 566.5 c 128,-1,16
 460 592 460 592 365 592 c 2,17,-1
 215 592 l 1,18,-1
 215 342 l 1,19,-1
 362 342 l 2,20,13
 462 342 462 342 498 373 c 128,-1,14
261 -250 m 1,21,-1
 326 -55 l 1,22,-1
 437 -55 l 1,23,-1
 357 -250 l 1,24,-1
 261 -250 l 1,21,-1
EndSplineSet
EndChar

StartChar: rcommaaccent
Encoding: 343 343 212
Width: 397
GlyphClass: 2
Flags: W
LayerCount: 2
Fore
SplineSet
41 -250 m 1,0,-1
 106 -55 l 1,1,-1
 217 -55 l 1,2,-1
 137 -250 l 1,3,-1
 41 -250 l 1,0,-1
360 427 m 0,4,5
 277 427 277 427 235 373 c 128,-1,6
 193 319 193 319 193 228 c 2,7,-1
 193 0 l 1,8,-1
 81 0 l 1,9,-1
 81 532 l 1,10,-1
 193 532 l 1,11,-1
 193 425 l 1,12,13
 220 475 220 475 266.5 507 c 128,-1,14
 313 539 313 539 365 540 c 1,15,-1
 366 427 l 1,16,17
 363 427 363 427 360 427 c 0,4,5
EndSplineSet
EndChar

StartChar: Rcaron
Encoding: 344 344 213
Width: 728
GlyphClass: 2
Flags: W
LayerCount: 2
Fore
SplineSet
655 472 m 0,0,1
 655 299 655 299 504 254 c 1,2,-1
 687 0 l 1,3,-1
 537 0 l 1,4,-1
 370 235 l 1,5,-1
 215 235 l 1,6,-1
 215 0 l 1,7,-1
 97 0 l 1,8,-1
 97 699 l 1,9,-1
 357 699 l 2,10,11
 517 699 517 699 586 645 c 128,-1,12
 655 591 655 591 655 472 c 0,0,1
498 373 m 128,-1,14
 534 404 534 404 534 472.5 c 128,-1,15
 534 541 534 541 497 566.5 c 128,-1,16
 460 592 460 592 365 592 c 2,17,-1
 215 592 l 1,18,-1
 215 342 l 1,19,-1
 362 342 l 2,20,13
 462 342 462 342 498 373 c 128,-1,14
396 760 m 1,21,-1
 292 760 l 1,22,-1
 170 894 l 1,23,-1
 267 894 l 1,24,-1
 344 838 l 1,25,-1
 421 894 l 1,26,-1
 518 894 l 1,27,-1
 396 760 l 1,21,-1
EndSplineSet
EndChar

StartChar: rcaron
Encoding: 345 345 214
Width: 397
GlyphClass: 2
Flags: W
LayerCount: 2
Fore
SplineSet
360 427 m 0,0,1
 277 427 277 427 235 373 c 128,-1,2
 193 319 193 319 193 228 c 2,3,-1
 193 0 l 1,4,-1
 81 0 l 1,5,-1
 81 532 l 1,6,-1
 193 532 l 1,7,-1
 193 425 l 1,8,9
 220 475 220 475 266.5 507 c 128,-1,10
 313 539 313 539 365 540 c 1,11,-1
 366 427 l 1,12,13
 363 427 363 427 360 427 c 0,0,1
268 600 m 1,14,-1
 164 600 l 1,15,-1
 42 734 l 1,16,-1
 139 734 l 1,17,-1
 216 678 l 1,18,-1
 293 734 l 1,19,-1
 390 734 l 1,20,-1
 268 600 l 1,14,-1
EndSplineSet
EndChar

StartChar: Scaron
Encoding: 352 352 215
Width: 634
GlyphClass: 2
Flags: W
LayerCount: 2
Fore
SplineSet
225 589 m 128,-1,1
 192 568 192 568 192 525.5 c 128,-1,2
 192 483 192 483 225.5 460 c 128,-1,3
 259 437 259 437 367 411 c 128,-1,4
 475 385 475 385 529.5 337.5 c 128,-1,5
 584 290 584 290 584 198 c 128,-1,6
 584 106 584 106 515 49 c 128,-1,7
 446 -8 446 -8 333 -8 c 0,8,9
 167 -8 167 -8 40 106 c 1,10,-1
 115 195 l 1,11,12
 221 103 221 103 336 103 c 0,13,14
 393 103 393 103 427 127.5 c 128,-1,15
 461 152 461 152 461 192.5 c 128,-1,16
 461 233 461 233 429 256 c 128,-1,17
 397 279 397 279 289 305 c 128,-1,18
 181 331 181 331 124.5 376 c 128,-1,19
 68 421 68 421 68 518 c 128,-1,20
 68 615 68 615 139 667.5 c 128,-1,21
 210 720 210 720 315 720 c 0,22,23
 382 720 382 720 448.5 698 c 128,-1,24
 515 676 515 676 563 636 c 1,25,-1
 500 546 l 1,26,27
 469 574 469 574 415.5 592 c 128,-1,28
 362 610 362 610 310 610 c 128,-1,0
 258 610 258 610 225 589 c 128,-1,1
368 760 m 1,29,-1
 264 760 l 1,30,-1
 142 894 l 1,31,-1
 239 894 l 1,32,-1
 316 838 l 1,33,-1
 393 894 l 1,34,-1
 490 894 l 1,35,-1
 368 760 l 1,29,-1
EndSplineSet
EndChar

StartChar: scaron
Encoding: 353 353 216
Width: 506
GlyphClass: 2
Flags: W
LayerCount: 2
Fore
SplineSet
405 37.5 m 128,-1,1
 350 -8 350 -8 264 -8 c 0,2,3
 206 -8 206 -8 143.5 13 c 128,-1,4
 81 34 81 34 33 72 c 1,5,-1
 87 159 l 1,6,7
 180 89 180 89 267 89 c 0,8,9
 305 89 305 89 327 106.5 c 128,-1,10
 349 124 349 124 349 151 c 0,11,12
 349 191 349 191 243 223 c 0,13,14
 235 226 235 226 231 227 c 0,15,16
 65 272 65 272 65 377 c 0,17,18
 65 451 65 451 122.5 495.5 c 128,-1,19
 180 540 180 540 272 540 c 128,-1,20
 364 540 364 540 446 486 c 1,21,-1
 404 403 l 1,22,23
 339 446 339 446 263 446 c 0,24,25
 223 446 223 446 198 431.5 c 128,-1,26
 173 417 173 417 173 388 c 0,27,28
 173 362 173 362 199 350 c 0,29,30
 217 341 217 341 249.5 333 c 128,-1,31
 282 325 282 325 307 317 c 128,-1,32
 332 309 332 309 355.5 299 c 128,-1,33
 379 289 379 289 406 271 c 0,34,35
 460 235 460 235 460 159 c 128,-1,0
 460 83 460 83 405 37.5 c 128,-1,1
304 600 m 1,36,-1
 200 600 l 1,37,-1
 78 734 l 1,38,-1
 175 734 l 1,39,-1
 252 678 l 1,40,-1
 329 734 l 1,41,-1
 426 734 l 1,42,-1
 304 600 l 1,36,-1
EndSplineSet
EndChar

StartChar: Zcaron
Encoding: 381 381 217
Width: 675
GlyphClass: 2
Flags: W
LayerCount: 2
Fore
SplineSet
454 591 m 1,0,-1
 60 591 l 1,1,-1
 60 699 l 1,2,-1
 618 699 l 1,3,-1
 618 607 l 1,4,-1
 431 379 l 1,5,-1
 565 379 l 1,6,-1
 565 309 l 1,7,-1
 373 309 l 1,8,-1
 212 112 l 1,9,-1
 212 109 l 1,10,-1
 624 109 l 1,11,-1
 624 0 l 1,12,-1
 47 0 l 1,13,-1
 47 91 l 1,14,-1
 225 309 l 1,15,-1
 87 309 l 1,16,-1
 87 379 l 1,17,-1
 283 379 l 1,18,-1
 454 588 l 1,19,-1
 454 591 l 1,0,-1
399 760 m 1,20,-1
 295 760 l 1,21,-1
 173 894 l 1,22,-1
 270 894 l 1,23,-1
 347 838 l 1,24,-1
 424 894 l 1,25,-1
 521 894 l 1,26,-1
 399 760 l 1,20,-1
EndSplineSet
EndChar

StartChar: zcaron
Encoding: 382 382 218
Width: 541
GlyphClass: 2
Flags: W
LayerCount: 2
Fore
SplineSet
74 243 m 1,0,-1
 74 293 l 1,1,-1
 209 293 l 1,2,-1
 335 434 l 1,3,-1
 64 434 l 1,4,-1
 64 530 l 1,5,-1
 480 530 l 1,6,-1
 480 429 l 1,7,-1
 357 293 l 1,8,-1
 442 293 l 1,9,-1
 442 243 l 1,10,-1
 312 243 l 1,11,-1
 181 97 l 1,12,-1
 496 97 l 1,13,-1
 496 0 l 1,14,-1
 44 0 l 1,15,-1
 44 109 l 1,16,-1
 164 243 l 1,17,-1
 74 243 l 1,0,-1
325 600 m 1,18,-1
 221 600 l 1,19,-1
 99 734 l 1,20,-1
 196 734 l 1,21,-1
 273 678 l 1,22,-1
 350 734 l 1,23,-1
 447 734 l 1,24,-1
 325 600 l 1,18,-1
EndSplineSet
EndChar

StartChar: florin
Encoding: 402 402 219
Width: 674
GlyphClass: 2
Flags: W
LayerCount: 2
Fore
SplineSet
289 -161 m 128,-1,1
 241 -212 241 -212 164 -212 c 128,-1,2
 87 -212 87 -212 28 -159 c 1,3,-1
 78 -75 l 1,4,5
 116 -111 116 -111 151.5 -111 c 128,-1,6
 187 -111 187 -111 208.5 -85 c 128,-1,7
 230 -59 230 -59 235 -25 c 2,8,-1
 284 325 l 1,9,-1
 215 325 l 1,10,-1
 227 418 l 1,11,-1
 296 418 l 1,12,-1
 317 574 l 2,13,14
 328 658 328 658 385.5 707.5 c 128,-1,15
 443 757 443 757 517 757 c 128,-1,16
 591 757 591 757 643 704 c 1,17,-1
 585 625 l 1,18,19
 557 660 557 660 521 660 c 128,-1,20
 485 660 485 660 461.5 637 c 128,-1,21
 438 614 438 614 433 577 c 2,22,-1
 411 418 l 1,23,-1
 554 418 l 1,24,-1
 542 325 l 1,25,-1
 399 325 l 1,26,-1
 348 -36 l 2,27,0
 337 -110 337 -110 289 -161 c 128,-1,1
EndSplineSet
EndChar

StartChar: circumflex
Encoding: 710 710 220
Width: 674
GlyphClass: 2
Flags: W
LayerCount: 2
Fore
SplineSet
288 734 m 1,0,-1
 392 734 l 1,1,-1
 514 600 l 1,2,-1
 417 600 l 1,3,-1
 340 656 l 1,4,-1
 263 600 l 1,5,-1
 166 600 l 1,6,-1
 288 734 l 1,0,-1
EndSplineSet
EndChar

StartChar: caron
Encoding: 711 711 221
Width: 548
GlyphClass: 2
Flags: W
LayerCount: 2
Fore
SplineSet
326 760 m 1,0,-1
 222 760 l 1,1,-1
 100 894 l 1,2,-1
 197 894 l 1,3,-1
 274 838 l 1,4,-1
 351 894 l 1,5,-1
 448 894 l 1,6,-1
 326 760 l 1,0,-1
EndSplineSet
EndChar

StartChar: breve
Encoding: 728 728 222
Width: 542
GlyphClass: 2
Flags: W
LayerCount: 2
Fore
SplineSet
271 578 m 128,-1,1
 198 578 198 578 151.5 617 c 128,-1,2
 105 656 105 656 100 726 c 1,3,-1
 183 726 l 1,4,5
 203 663 203 663 271 663 c 128,-1,6
 339 663 339 663 359 726 c 1,7,-1
 442 726 l 1,8,9
 437 656 437 656 390.5 617 c 128,-1,0
 344 578 344 578 271 578 c 128,-1,1
EndSplineSet
EndChar

StartChar: dotaccent
Encoding: 729 729 223
Width: 329
GlyphClass: 2
Flags: W
LayerCount: 2
Fore
SplineSet
112 686 m 128,-1,1
 112 717 112 717 133.5 738.5 c 128,-1,2
 155 760 155 760 186 760 c 128,-1,3
 217 760 217 760 239 738.5 c 128,-1,4
 261 717 261 717 261 686 c 128,-1,5
 261 655 261 655 239 633 c 128,-1,6
 217 611 217 611 186 611 c 128,-1,7
 155 611 155 611 133.5 633 c 128,-1,0
 112 655 112 655 112 686 c 128,-1,1
EndSplineSet
EndChar

StartChar: ring
Encoding: 730 730 224
Width: 377
GlyphClass: 2
Flags: W
LayerCount: 2
Fore
SplineSet
297 687 m 128,-1,1
 297 645 297 645 264 614 c 128,-1,2
 231 583 231 583 188 583 c 128,-1,3
 145 583 145 583 112.5 614 c 128,-1,4
 80 645 80 645 80 687 c 128,-1,5
 80 729 80 729 112.5 760.5 c 128,-1,6
 145 792 145 792 188 792 c 128,-1,7
 231 792 231 792 264 760.5 c 128,-1,0
 297 729 297 729 297 687 c 128,-1,1
228 647.5 m 128,-1,9
 243 663 243 663 243 687.5 c 128,-1,10
 243 712 243 712 228 727.5 c 128,-1,11
 213 743 213 743 188.5 743 c 128,-1,12
 164 743 164 743 148.5 727.5 c 128,-1,13
 133 712 133 712 133 687.5 c 128,-1,14
 133 663 133 663 148.5 647.5 c 128,-1,15
 164 632 164 632 188.5 632 c 128,-1,8
 213 632 213 632 228 647.5 c 128,-1,9
EndSplineSet
EndChar

StartChar: ogonek
Encoding: 731 731 225
Width: 215
GlyphClass: 2
Flags: W
LayerCount: 2
Fore
SplineSet
109 -49 m 2,0,1
 86 -87 86 -87 86 -116.5 c 128,-1,2
 86 -146 86 -146 111 -146 c 128,-1,3
 136 -146 136 -146 149 -122 c 1,4,-1
 197 -156 l 1,5,6
 163 -212 163 -212 106 -212 c 0,7,8
 70 -212 70 -212 44 -188 c 128,-1,9
 18 -164 18 -164 18 -124 c 128,-1,10
 18 -84 18 -84 50 -38 c 2,11,-1
 71 -8 l 1,12,-1
 134 -8 l 1,13,-1
 109 -49 l 2,0,1
EndSplineSet
EndChar

StartChar: tilde
Encoding: 732 732 226
Width: 519
GlyphClass: 2
Flags: W
LayerCount: 2
Fore
SplineSet
335 739 m 0,0,1
 309 739 309 739 262.5 762.5 c 128,-1,2
 216 786 216 786 203 786 c 0,3,4
 170 786 170 786 169 742 c 1,5,-1
 95 742 l 1,6,7
 95 800 95 800 118.5 836 c 128,-1,8
 142 872 142 872 184 872 c 0,9,10
 211 872 211 872 259 848.5 c 128,-1,11
 307 825 307 825 322 825 c 0,12,13
 352 825 352 825 352 869 c 1,14,-1
 427 869 l 1,15,16
 424 739 424 739 335 739 c 0,0,1
EndSplineSet
EndChar

StartChar: hungarumlaut
Encoding: 733 733 227
Width: 506
GlyphClass: 2
Flags: W
LayerCount: 2
Fore
SplineSet
154 601 m 1,0,-1
 52 601 l 1,1,-1
 158 746 l 1,2,-1
 276 697 l 1,3,-1
 154 601 l 1,0,-1
348 601 m 1,4,-1
 246 601 l 1,5,-1
 352 746 l 1,6,-1
 470 697 l 1,7,-1
 348 601 l 1,4,-1
EndSplineSet
EndChar

StartChar: pi
Encoding: 960 960 228
Width: 746
GlyphClass: 2
Flags: W
LayerCount: 2
Fore
SplineSet
30 373 m 0,0,1
 30 443 30 443 74.5 487.5 c 128,-1,2
 119 532 119 532 203 532 c 2,3,-1
 719 532 l 1,4,-1
 719 432 l 1,5,-1
 603 432 l 1,6,-1
 603 0 l 1,7,-1
 491 0 l 1,8,-1
 491 432 l 1,9,-1
 338 432 l 1,10,11
 334 333 334 333 313.5 200.5 c 128,-1,12
 293 68 293 68 267 0 c 1,13,-1
 156 0 l 1,14,15
 183 81 183 81 203.5 209.5 c 128,-1,16
 224 338 224 338 226 432 c 1,17,-1
 210 432 l 2,18,19
 172 432 172 432 149.5 412 c 128,-1,20
 127 392 127 392 127 366 c 128,-1,21
 127 340 127 340 135 322 c 1,22,-1
 51 287 l 1,23,24
 30 329 30 329 30 373 c 0,0,1
EndSplineSet
EndChar

StartChar: endash
Encoding: 8211 8211 229
Width: 538
GlyphClass: 2
Flags: W
LayerCount: 2
Fore
SplineSet
82 226 m 1,0,-1
 82 293 l 1,1,-1
 456 293 l 1,2,-1
 456 226 l 1,3,-1
 82 226 l 1,0,-1
EndSplineSet
EndChar

StartChar: emdash
Encoding: 8212 8212 230
Width: 725
GlyphClass: 2
Flags: W
LayerCount: 2
Fore
SplineSet
82 227 m 1,0,-1
 82 293 l 1,1,-1
 643 293 l 1,2,-1
 643 227 l 1,3,-1
 82 227 l 1,0,-1
EndSplineSet
EndChar

StartChar: quoteleft
Encoding: 8216 8216 231
Width: 216
GlyphClass: 2
Flags: W
LayerCount: 2
Fore
SplineSet
134 619 m 1,0,1
 162 601 162 601 162 570.5 c 128,-1,2
 162 540 162 540 144 522.5 c 128,-1,3
 126 505 126 505 99 505 c 128,-1,4
 72 505 72 505 53.5 522 c 128,-1,5
 35 539 35 539 35 566.5 c 128,-1,6
 35 594 35 594 53 620 c 2,7,-1
 112 705 l 1,8,-1
 173 705 l 1,9,-1
 134 619 l 1,0,1
EndSplineSet
EndChar

StartChar: quoteright
Encoding: 8217 8217 232
Width: 217
GlyphClass: 2
Flags: W
LayerCount: 2
Fore
SplineSet
73 586 m 1,0,1
 46 602 46 602 46 633.5 c 128,-1,2
 46 665 46 665 64 682.5 c 128,-1,3
 82 700 82 700 109 700 c 128,-1,4
 136 700 136 700 154.5 683 c 128,-1,5
 173 666 173 666 173 638.5 c 128,-1,6
 173 611 173 611 155 585 c 2,7,-1
 96 500 l 1,8,-1
 35 500 l 1,9,-1
 73 586 l 1,0,1
EndSplineSet
EndChar

StartChar: quotesinglbase
Encoding: 8218 8218 233
Width: 217
GlyphClass: 2
Flags: W
LayerCount: 2
Fore
SplineSet
73 5 m 1,0,1
 46 22 46 22 46 53 c 128,-1,2
 46 84 46 84 64 101.5 c 128,-1,3
 82 119 82 119 109 119 c 128,-1,4
 136 119 136 119 154.5 102 c 128,-1,5
 173 85 173 85 173 57.5 c 128,-1,6
 173 30 173 30 155 4 c 2,7,-1
 96 -81 l 1,8,-1
 35 -81 l 1,9,-1
 73 5 l 1,0,1
EndSplineSet
EndChar

StartChar: quotedblleft
Encoding: 8220 8220 234
Width: 370
GlyphClass: 2
Flags: W
LayerCount: 2
Fore
SplineSet
134 619 m 1,0,1
 162 601 162 601 162 570.5 c 128,-1,2
 162 540 162 540 144 522.5 c 128,-1,3
 126 505 126 505 99 505 c 128,-1,4
 72 505 72 505 53.5 522 c 128,-1,5
 35 539 35 539 35 566.5 c 128,-1,6
 35 594 35 594 53 620 c 2,7,-1
 112 705 l 1,8,-1
 173 705 l 1,9,-1
 134 619 l 1,0,1
287 619 m 1,10,11
 315 601 315 601 315 570.5 c 128,-1,12
 315 540 315 540 297 522.5 c 128,-1,13
 279 505 279 505 252 505 c 128,-1,14
 225 505 225 505 206.5 522 c 128,-1,15
 188 539 188 539 188 566.5 c 128,-1,16
 188 594 188 594 206 620 c 2,17,-1
 265 705 l 1,18,-1
 326 705 l 1,19,-1
 287 619 l 1,10,11
EndSplineSet
EndChar

StartChar: quotedblright
Encoding: 8221 8221 235
Width: 369
GlyphClass: 2
Flags: W
LayerCount: 2
Fore
SplineSet
73 586 m 1,0,1
 46 602 46 602 46 633.5 c 128,-1,2
 46 665 46 665 64 682.5 c 128,-1,3
 82 700 82 700 109 700 c 128,-1,4
 136 700 136 700 154.5 683 c 128,-1,5
 173 666 173 666 173 638.5 c 128,-1,6
 173 611 173 611 155 585 c 2,7,-1
 96 500 l 1,8,-1
 35 500 l 1,9,-1
 73 586 l 1,0,1
225 586 m 1,10,11
 198 602 198 602 198 633.5 c 128,-1,12
 198 665 198 665 216 682.5 c 128,-1,13
 234 700 234 700 261 700 c 128,-1,14
 288 700 288 700 306.5 683 c 128,-1,15
 325 666 325 666 325 638.5 c 128,-1,16
 325 611 325 611 307 585 c 2,17,-1
 248 500 l 1,18,-1
 187 500 l 1,19,-1
 225 586 l 1,10,11
EndSplineSet
EndChar

StartChar: quotedblbase
Encoding: 8222 8222 236
Width: 369
GlyphClass: 2
Flags: W
LayerCount: 2
Fore
SplineSet
73 5 m 1,0,1
 46 22 46 22 46 53 c 128,-1,2
 46 84 46 84 64 101.5 c 128,-1,3
 82 119 82 119 109 119 c 128,-1,4
 136 119 136 119 154.5 102 c 128,-1,5
 173 85 173 85 173 57.5 c 128,-1,6
 173 30 173 30 155 4 c 2,7,-1
 96 -81 l 1,8,-1
 35 -81 l 1,9,-1
 73 5 l 1,0,1
225 5 m 1,10,11
 198 22 198 22 198 53 c 128,-1,12
 198 84 198 84 216 101.5 c 128,-1,13
 234 119 234 119 261 119 c 128,-1,14
 288 119 288 119 306.5 102 c 128,-1,15
 325 85 325 85 325 57.5 c 128,-1,16
 325 30 325 30 307 4 c 2,17,-1
 248 -81 l 1,18,-1
 187 -81 l 1,19,-1
 225 5 l 1,10,11
EndSplineSet
EndChar

StartChar: dagger
Encoding: 8224 8224 237
Width: 523
GlyphClass: 2
Flags: W
LayerCount: 2
Fore
SplineSet
206 -194 m 1,0,-1
 206 392 l 1,1,-1
 36 392 l 1,2,-1
 36 494 l 1,3,-1
 206 494 l 1,4,-1
 206 701 l 1,5,-1
 312 701 l 1,6,-1
 312 494 l 1,7,-1
 488 494 l 1,8,-1
 488 392 l 1,9,-1
 312 392 l 1,10,-1
 312 -194 l 1,11,-1
 206 -194 l 1,0,-1
EndSplineSet
EndChar

StartChar: daggerdbl
Encoding: 8225 8225 238
Width: 517
GlyphClass: 2
Flags: W
LayerCount: 2
Fore
SplineSet
310 392 m 1,0,-1
 310 157 l 1,1,-1
 417 157 l 1,2,-1
 417 75 l 1,3,-1
 310 75 l 1,4,-1
 310 -194 l 1,5,-1
 204 -194 l 1,6,-1
 204 75 l 1,7,-1
 94 75 l 1,8,-1
 94 157 l 1,9,-1
 204 157 l 1,10,-1
 204 392 l 1,11,-1
 38 392 l 1,12,-1
 38 494 l 1,13,-1
 204 494 l 1,14,-1
 204 701 l 1,15,-1
 310 701 l 1,16,-1
 310 494 l 1,17,-1
 480 494 l 1,18,-1
 480 392 l 1,19,-1
 310 392 l 1,0,-1
EndSplineSet
EndChar

StartChar: bullet
Encoding: 8226 8226 239
Width: 428
GlyphClass: 2
Flags: W
LayerCount: 2
Fore
SplineSet
85 316 m 128,-1,1
 85 369 85 369 123 407 c 128,-1,2
 161 445 161 445 214 445 c 128,-1,3
 267 445 267 445 305 407 c 128,-1,4
 343 369 343 369 343 316 c 128,-1,5
 343 263 343 263 305 225 c 128,-1,6
 267 187 267 187 214 187 c 128,-1,7
 161 187 161 187 123 225 c 128,-1,0
 85 263 85 263 85 316 c 128,-1,1
EndSplineSet
EndChar

StartChar: ellipsis
Encoding: 8230 8230 240
Width: 698
GlyphClass: 2
Flags: W
LayerCount: 2
Fore
SplineSet
66 67 m 128,-1,1
 66 98 66 98 87.5 119.5 c 128,-1,2
 109 141 109 141 140 141 c 128,-1,3
 171 141 171 141 193 119.5 c 128,-1,4
 215 98 215 98 215 67 c 128,-1,5
 215 36 215 36 193 14 c 128,-1,6
 171 -8 171 -8 140 -8 c 128,-1,7
 109 -8 109 -8 87.5 14 c 128,-1,0
 66 36 66 36 66 67 c 128,-1,1
275 67 m 128,-1,9
 275 98 275 98 296.5 119.5 c 128,-1,10
 318 141 318 141 349 141 c 128,-1,11
 380 141 380 141 402 119.5 c 128,-1,12
 424 98 424 98 424 67 c 128,-1,13
 424 36 424 36 402 14 c 128,-1,14
 380 -8 380 -8 349 -8 c 128,-1,15
 318 -8 318 -8 296.5 14 c 128,-1,8
 275 36 275 36 275 67 c 128,-1,9
484 67 m 128,-1,17
 484 98 484 98 505.5 119.5 c 128,-1,18
 527 141 527 141 558 141 c 128,-1,19
 589 141 589 141 611 119.5 c 128,-1,20
 633 98 633 98 633 67 c 128,-1,21
 633 36 633 36 611 14 c 128,-1,22
 589 -8 589 -8 558 -8 c 128,-1,23
 527 -8 527 -8 505.5 14 c 128,-1,16
 484 36 484 36 484 67 c 128,-1,17
EndSplineSet
EndChar

StartChar: perthousand
Encoding: 8240 8240 241
Width: 1166
GlyphClass: 2
Flags: W
LayerCount: 2
Fore
SplineSet
350 554 m 128,-1,1
 350 488 350 488 306.5 441 c 128,-1,2
 263 394 263 394 198.5 394 c 128,-1,3
 134 394 134 394 91 440.5 c 128,-1,4
 48 487 48 487 48 553 c 128,-1,5
 48 619 48 619 91.5 666 c 128,-1,6
 135 713 135 713 199.5 713 c 128,-1,7
 264 713 264 713 307 666.5 c 128,-1,0
 350 620 350 620 350 554 c 128,-1,1
714 699 m 1,8,-1
 202 0 l 1,9,-1
 73 0 l 1,10,-1
 585 699 l 1,11,-1
 714 699 l 1,8,-1
256 552 m 128,-1,13
 256 582 256 582 239 602.5 c 128,-1,14
 222 623 222 623 197.5 623 c 128,-1,15
 173 623 173 623 157 602.5 c 128,-1,16
 141 582 141 582 141 552 c 128,-1,17
 141 522 141 522 158 501.5 c 128,-1,18
 175 481 175 481 199.5 481 c 128,-1,19
 224 481 224 481 240 501.5 c 128,-1,12
 256 522 256 522 256 552 c 128,-1,13
747 152 m 128,-1,21
 747 86 747 86 703.5 39 c 128,-1,22
 660 -8 660 -8 595.5 -8 c 128,-1,23
 531 -8 531 -8 488 38.5 c 128,-1,24
 445 85 445 85 445 151 c 128,-1,25
 445 217 445 217 488.5 264 c 128,-1,26
 532 311 532 311 596.5 311 c 128,-1,27
 661 311 661 311 704 264.5 c 128,-1,20
 747 218 747 218 747 152 c 128,-1,21
655 148 m 128,-1,29
 655 178 655 178 638 198.5 c 128,-1,30
 621 219 621 219 596.5 219 c 128,-1,31
 572 219 572 219 556 198.5 c 128,-1,32
 540 178 540 178 540 148 c 128,-1,33
 540 118 540 118 557 97.5 c 128,-1,34
 574 77 574 77 598.5 77 c 128,-1,35
 623 77 623 77 639 97.5 c 128,-1,28
 655 118 655 118 655 148 c 128,-1,29
1130 152 m 128,-1,37
 1130 86 1130 86 1086.5 39 c 128,-1,38
 1043 -8 1043 -8 978.5 -8 c 128,-1,39
 914 -8 914 -8 871 38.5 c 128,-1,40
 828 85 828 85 828 151 c 128,-1,41
 828 217 828 217 871.5 264 c 128,-1,42
 915 311 915 311 979.5 311 c 128,-1,43
 1044 311 1044 311 1087 264.5 c 128,-1,36
 1130 218 1130 218 1130 152 c 128,-1,37
1038 148 m 128,-1,45
 1038 178 1038 178 1021 198.5 c 128,-1,46
 1004 219 1004 219 979.5 219 c 128,-1,47
 955 219 955 219 939 198.5 c 128,-1,48
 923 178 923 178 923 148 c 128,-1,49
 923 118 923 118 940 97.5 c 128,-1,50
 957 77 957 77 981.5 77 c 128,-1,51
 1006 77 1006 77 1022 97.5 c 128,-1,44
 1038 118 1038 118 1038 148 c 128,-1,45
EndSplineSet
EndChar

StartChar: guilsinglleft
Encoding: 8249 8249 242
Width: 349
GlyphClass: 2
Flags: W
LayerCount: 2
Fore
SplineSet
283 416 m 1,0,-1
 168 240 l 1,1,-1
 283 64 l 1,2,-1
 175 64 l 1,3,-1
 56 240 l 1,4,-1
 175 416 l 1,5,-1
 283 416 l 1,0,-1
EndSplineSet
EndChar

StartChar: guilsinglright
Encoding: 8250 8250 243
Width: 349
GlyphClass: 2
Flags: W
LayerCount: 2
Fore
SplineSet
181 240 m 1,0,-1
 66 416 l 1,1,-1
 174 416 l 1,2,-1
 293 240 l 1,3,-1
 174 64 l 1,4,-1
 66 64 l 1,5,-1
 181 240 l 1,0,-1
EndSplineSet
EndChar

StartChar: fraction
Encoding: 8260 8260 244
Width: 635
GlyphClass: 2
Flags: W
LayerCount: 2
Fore
SplineSet
639 699 m 1,0,-1
 127 0 l 1,1,-1
 -2 0 l 1,2,-1
 510 699 l 1,3,-1
 639 699 l 1,0,-1
EndSplineSet
EndChar

StartChar: Euro
Encoding: 8364 8364 245
Width: 761
GlyphClass: 2
Flags: W
LayerCount: 2
Fore
SplineSet
52 393 m 1,0,-1
 52 479 l 1,1,-1
 156 479 l 1,2,3
 189 586 189 586 273 651 c 128,-1,4
 357 716 357 716 464 716 c 0,5,6
 623 716 623 716 716 601 c 1,7,-1
 645 511 l 1,8,9
 601 558 601 558 561.5 577 c 128,-1,10
 522 596 522 596 464 596 c 128,-1,11
 406 596 406 596 359.5 565.5 c 128,-1,12
 313 535 313 535 290 479 c 1,13,-1
 528 479 l 1,14,-1
 528 393 l 1,15,-1
 269 393 l 1,16,17
 268 381 268 381 268 356.5 c 128,-1,18
 268 332 268 332 271 310 c 1,19,-1
 528 310 l 1,20,-1
 528 224 l 1,21,-1
 298 224 l 1,22,23
 352 120 352 120 461 120 c 0,24,25
 515 120 515 120 553.5 140.5 c 128,-1,26
 592 161 592 161 635 205 c 1,27,-1
 706 119 l 1,28,29
 613 4 613 4 461 4 c 0,30,31
 357 4 357 4 276.5 63.5 c 128,-1,32
 196 123 196 123 161 224 c 1,33,-1
 52 224 l 1,34,-1
 52 310 l 1,35,-1
 142 310 l 1,36,37
 139 334 139 334 139 358 c 128,-1,38
 139 382 139 382 140 393 c 1,39,-1
 52 393 l 1,0,-1
EndSplineSet
EndChar

StartChar: trademark
Encoding: 8482 8482 246
Width: 1000
GlyphClass: 2
Flags: W
LayerCount: 2
Fore
SplineSet
252 636 m 1,0,-1
 252 290 l 1,1,-1
 183 290 l 1,2,-1
 183 636 l 1,3,-1
 59 636 l 1,4,-1
 59 699 l 1,5,-1
 376 699 l 1,6,-1
 376 636 l 1,7,-1
 252 636 l 1,0,-1
522 290 m 1,8,-1
 453 290 l 1,9,-1
 453 699 l 1,10,-1
 561 699 l 1,11,-1
 684 442 l 1,12,-1
 808 699 l 1,13,-1
 915 699 l 1,14,-1
 915 290 l 1,15,-1
 846 290 l 1,16,-1
 846 609 l 1,17,-1
 703 325 l 1,18,-1
 664 325 l 1,19,-1
 522 609 l 1,20,-1
 522 290 l 1,8,-1
EndSplineSet
EndChar

StartChar: Omega
Encoding: 8486 8486 247
Width: 906
GlyphClass: 2
Flags: W
LayerCount: 2
Fore
SplineSet
453 716 m 128,-1,1
 609 716 609 716 715 612.5 c 128,-1,2
 821 509 821 509 821 361.5 c 128,-1,3
 821 214 821 214 704 111 c 1,4,-1
 852 111 l 1,5,-1
 852 0 l 1,6,-1
 518 0 l 1,7,-1
 518 110 l 1,8,9
 599 132 599 132 649.5 199.5 c 128,-1,10
 700 267 700 267 700 354 c 0,11,12
 700 460 700 460 628.5 534 c 128,-1,13
 557 608 557 608 453 608 c 128,-1,14
 349 608 349 608 277.5 534 c 128,-1,15
 206 460 206 460 206 354 c 0,16,17
 206 267 206 267 256.5 199.5 c 128,-1,18
 307 132 307 132 388 110 c 1,19,-1
 388 0 l 1,20,-1
 54 0 l 1,21,-1
 54 111 l 1,22,-1
 202 111 l 1,23,24
 85 214 85 214 85 361.5 c 128,-1,25
 85 509 85 509 191 612.5 c 128,-1,0
 297 716 297 716 453 716 c 128,-1,1
EndSplineSet
EndChar

StartChar: partialdiff
Encoding: 8706 8706 248
Width: 617
GlyphClass: 2
Flags: W
LayerCount: 2
Fore
SplineSet
470 633 m 0,0,1
 511 592 511 592 534 522 c 128,-1,2
 557 452 557 452 557 367.5 c 128,-1,3
 557 283 557 283 543 219.5 c 128,-1,4
 529 156 529 156 499 103.5 c 128,-1,5
 469 51 469 51 415 21.5 c 128,-1,6
 361 -8 361 -8 288 -8 c 0,7,8
 185 -8 185 -8 116.5 63 c 128,-1,9
 48 134 48 134 48 236 c 128,-1,10
 48 338 48 338 117 391.5 c 128,-1,11
 186 445 186 445 266 445 c 0,12,13
 325 445 325 445 371 424 c 128,-1,14
 417 403 417 403 439 376 c 1,15,16
 439 477 439 477 399 548 c 0,17,18
 362 613 362 613 262 613 c 0,19,20
 232 613 232 613 202 602 c 128,-1,21
 172 591 172 591 158 580 c 2,22,-1
 143 569 l 1,23,-1
 81 646 l 1,24,25
 171 713 171 713 281 713 c 128,-1,26
 391 713 391 713 470 633 c 0,0,1
278 346 m 0,27,28
 228 346 228 346 193.5 314 c 128,-1,29
 159 282 159 282 159 226.5 c 128,-1,30
 159 171 159 171 193.5 136 c 128,-1,31
 228 101 228 101 287.5 101 c 128,-1,32
 347 101 347 101 387 141 c 128,-1,33
 427 181 427 181 435 246 c 1,34,-1
 437 272 l 1,35,36
 371 346 371 346 278 346 c 0,27,28
EndSplineSet
EndChar

StartChar: Delta
Encoding: 8710 8710 249
Width: 790
GlyphClass: 2
Flags: W
LayerCount: 2
Fore
SplineSet
452 699 m 1,0,-1
 760 0 l 1,1,-1
 30 0 l 1,2,-1
 338 699 l 1,3,-1
 452 699 l 1,0,-1
206 111 m 1,4,-1
 584 109 l 1,5,-1
 395 535 l 1,6,-1
 206 111 l 1,4,-1
EndSplineSet
EndChar

StartChar: product
Encoding: 8719 8719 250
Width: 801
GlyphClass: 2
Flags: W
LayerCount: 2
Fore
SplineSet
709 -212 m 1,0,-1
 585 -212 l 1,1,-1
 585 675 l 1,2,-1
 216 675 l 1,3,-1
 216 -212 l 1,4,-1
 92 -212 l 1,5,-1
 92 788 l 1,6,-1
 709 788 l 1,7,-1
 709 -212 l 1,0,-1
EndSplineSet
EndChar

StartChar: summation
Encoding: 8721 8721 251
Width: 703
GlyphClass: 2
Flags: W
LayerCount: 2
Fore
SplineSet
663 -212 m 1,0,-1
 37 -212 l 1,1,-1
 37 -123 l 1,2,-1
 340 294 l 1,3,-1
 50 699 l 1,4,-1
 50 788 l 1,5,-1
 643 788 l 1,6,-1
 643 675 l 1,7,-1
 229 675 l 1,8,-1
 496 295 l 1,9,-1
 210 -99 l 1,10,-1
 663 -99 l 1,11,-1
 663 -212 l 1,0,-1
EndSplineSet
EndChar

StartChar: minus
Encoding: 8722 8722 252
Width: 568
GlyphClass: 2
Flags: W
LayerCount: 2
Fore
SplineSet
48 434 m 1,0,-1
 520 434 l 1,1,-1
 520 340 l 1,2,-1
 48 340 l 1,3,-1
 48 434 l 1,0,-1
EndSplineSet
EndChar

StartChar: radical
Encoding: 8730 8730 253
Width: 717
GlyphClass: 2
Flags: W
LayerCount: 2
Fore
SplineSet
24 311 m 1,0,-1
 24 410 l 1,1,-1
 207 410 l 1,2,-1
 346 -25 l 1,3,-1
 599 757 l 1,4,-1
 712 757 l 1,5,-1
 413 -156 l 1,6,-1
 277 -156 l 1,7,-1
 125 311 l 1,8,-1
 24 311 l 1,0,-1
EndSplineSet
EndChar

StartChar: infinity
Encoding: 8734 8734 254
Width: 868
GlyphClass: 2
Flags: W
LayerCount: 2
Fore
SplineSet
630 441 m 0,0,1
 706 441 706 441 751.5 390 c 128,-1,2
 797 339 797 339 797 261.5 c 128,-1,3
 797 184 797 184 750 133 c 128,-1,4
 703 82 703 82 626 82 c 0,5,6
 564 82 564 82 517 116 c 0,7,8
 485 140 485 140 434 193 c 1,9,10
 383 140 383 140 355 119 c 0,11,12
 304 82 304 82 234.5 82 c 128,-1,13
 165 82 165 82 118 133 c 128,-1,14
 71 184 71 184 71 261.5 c 128,-1,15
 71 339 71 339 116.5 390 c 128,-1,16
 162 441 162 441 238 441 c 0,17,18
 297 441 297 441 341.5 410 c 128,-1,19
 386 379 386 379 434 322 c 1,20,21
 482 379 482 379 526.5 410 c 128,-1,22
 571 441 571 441 630 441 c 0,0,1
238 351 m 0,23,24
 204 351 204 351 183 326 c 128,-1,25
 162 301 162 301 162 263.5 c 128,-1,26
 162 226 162 226 183.5 200.5 c 128,-1,27
 205 175 205 175 241 175 c 0,28,29
 301 175 301 175 376 259 c 1,30,31
 289 351 289 351 238 351 c 0,23,24
627 175 m 0,32,33
 663 175 663 175 684.5 200.5 c 128,-1,34
 706 226 706 226 706 263.5 c 128,-1,35
 706 301 706 301 685 326 c 128,-1,36
 664 351 664 351 630 351 c 0,37,38
 579 351 579 351 492 259 c 1,39,40
 567 175 567 175 627 175 c 0,32,33
EndSplineSet
EndChar

StartChar: integral
Encoding: 8747 8747 255
Width: 388
GlyphClass: 2
Flags: W
LayerCount: 2
Fore
SplineSet
359 765 m 1,0,1
 339 775 339 775 319.5 775 c 128,-1,2
 300 775 300 775 285.5 769 c 128,-1,3
 271 763 271 763 262 749 c 128,-1,4
 253 735 253 735 247.5 721.5 c 128,-1,5
 242 708 242 708 240 682 c 0,6,7
 237 644 237 644 237 578 c 128,-1,8
 237 512 237 512 244.5 349.5 c 128,-1,9
 252 187 252 187 252 113 c 128,-1,10
 252 39 252 39 245 -5.5 c 128,-1,11
 238 -50 238 -50 221 -89 c 0,12,13
 186 -170 186 -170 89 -170 c 0,14,15
 43 -170 43 -170 13 -153 c 1,16,-1
 29 -60 l 1,17,18
 53 -72 53 -72 77.5 -72 c 128,-1,19
 102 -72 102 -72 119 -59 c 128,-1,20
 136 -46 136 -46 144 -18 c 0,21,22
 155 25 155 25 155 114 c 128,-1,23
 155 203 155 203 147 361 c 128,-1,24
 139 519 139 519 139 591 c 128,-1,25
 139 663 139 663 146.5 708 c 128,-1,26
 154 753 154 753 172 791 c 0,27,28
 210 868 210 868 311 868 c 0,29,30
 348 868 348 868 372 855 c 1,31,-1
 359 765 l 1,0,1
EndSplineSet
EndChar

StartChar: approxequal
Encoding: 8776 8776 256
Width: 692
GlyphClass: 2
Flags: W
LayerCount: 2
Fore
SplineSet
603 602 m 1,0,1
 603 512 603 512 562.5 463 c 128,-1,2
 522 414 522 414 458 414 c 0,3,4
 420 414 420 414 391.5 426 c 128,-1,5
 363 438 363 438 303 475 c 1,6,7
 270 494 270 494 248 494 c 128,-1,8
 226 494 226 494 213 477 c 128,-1,9
 200 460 200 460 195 418 c 1,10,-1
 89 418 l 1,11,12
 89 508 89 508 129.5 557 c 128,-1,13
 170 606 170 606 234 606 c 0,14,15
 271 606 271 606 300 594 c 128,-1,16
 329 582 329 582 374.5 554 c 128,-1,17
 420 526 420 526 443 526 c 128,-1,18
 466 526 466 526 479 543 c 128,-1,19
 492 560 492 560 497 602 c 1,20,-1
 603 602 l 1,0,1
603 378 m 1,21,22
 603 288 603 288 562.5 239 c 128,-1,23
 522 190 522 190 458 190 c 0,24,25
 420 190 420 190 391.5 202 c 128,-1,26
 363 214 363 214 303 251 c 1,27,28
 270 270 270 270 248 270 c 128,-1,29
 226 270 226 270 213 253 c 128,-1,30
 200 236 200 236 195 194 c 1,31,-1
 89 194 l 1,32,33
 89 284 89 284 129.5 333 c 128,-1,34
 170 382 170 382 234 382 c 0,35,36
 271 382 271 382 300 370 c 128,-1,37
 329 358 329 358 374.5 330 c 128,-1,38
 420 302 420 302 443 302 c 128,-1,39
 466 302 466 302 479 319 c 128,-1,40
 492 336 492 336 497 378 c 1,41,-1
 603 378 l 1,21,22
EndSplineSet
EndChar

StartChar: notequal
Encoding: 8800 8800 257
Width: 635
GlyphClass: 2
Flags: W
LayerCount: 2
Fore
SplineSet
64 333 m 1,0,-1
 254 333 l 1,1,-1
 300 432 l 1,2,-1
 64 432 l 1,3,-1
 64 540 l 1,4,-1
 350 540 l 1,5,-1
 425 700 l 1,6,-1
 525 700 l 1,7,-1
 450 540 l 1,8,-1
 568 540 l 1,9,-1
 568 432 l 1,10,-1
 400 432 l 1,11,-1
 354 333 l 1,12,-1
 568 333 l 1,13,-1
 568 225 l 1,14,-1
 303 225 l 1,15,-1
 229 65 l 1,16,-1
 129 65 l 1,17,-1
 203 225 l 1,18,-1
 64 225 l 1,19,-1
 64 333 l 1,0,-1
EndSplineSet
EndChar

StartChar: lessequal
Encoding: 8804 8804 258
Width: 615
GlyphClass: 2
Flags: W
LayerCount: 2
Fore
SplineSet
67 334 m 1,0,-1
 67 460 l 1,1,-1
 538 678 l 1,2,-1
 538 564 l 1,3,-1
 186 405 l 1,4,-1
 186 394 l 1,5,-1
 538 231 l 1,6,-1
 538 117 l 1,7,-1
 67 334 l 1,0,-1
67 46 m 1,8,-1
 539 46 l 1,9,-1
 539 -52 l 1,10,-1
 67 -52 l 1,11,-1
 67 46 l 1,8,-1
EndSplineSet
EndChar

StartChar: greaterequal
Encoding: 8805 8805 259
Width: 615
GlyphClass: 2
Flags: W
LayerCount: 2
Fore
SplineSet
548 460 m 1,0,-1
 548 334 l 1,1,-1
 77 117 l 1,2,-1
 77 231 l 1,3,-1
 429 394 l 1,4,-1
 429 405 l 1,5,-1
 77 564 l 1,6,-1
 77 678 l 1,7,-1
 548 460 l 1,0,-1
76 46 m 1,8,-1
 548 46 l 1,9,-1
 548 -52 l 1,10,-1
 76 -52 l 1,11,-1
 76 46 l 1,8,-1
EndSplineSet
EndChar

StartChar: lozenge
Encoding: 9674 9674 260
Width: 650
GlyphClass: 2
Flags: W
LayerCount: 2
Fore
SplineSet
91 33 m 1,0,-1
 91 468 l 1,1,-1
 559 468 l 1,2,-1
 559 33 l 1,3,-1
 91 33 l 1,0,-1
EndSplineSet
EndChar

StartChar: fi
Encoding: 64257 64257 261
Width: 683
GlyphClass: 2
Flags: W
LayerCount: 2
Fore
SplineSet
375 728 m 0,0,1
 304 728 304 728 270 685.5 c 128,-1,2
 236 643 236 643 236 583 c 2,3,-1
 236 532 l 1,4,-1
 342 532 l 1,5,-1
 342 439 l 1,6,-1
 236 439 l 1,7,-1
 236 0 l 1,8,-1
 124 0 l 1,9,-1
 124 439 l 1,10,-1
 37 439 l 1,11,-1
 37 532 l 1,12,-1
 124 532 l 1,13,-1
 124 576 l 2,14,15
 124 684 124 684 194 755.5 c 128,-1,16
 264 827 264 827 379 827 c 0,17,18
 457 827 457 827 514.5 784.5 c 128,-1,19
 572 742 572 742 596 673 c 1,20,-1
 492 625 l 1,21,22
 466 728 466 728 375 728 c 0,0,1
604 0 m 1,23,-1
 492 0 l 1,24,-1
 492 532 l 1,25,-1
 604 532 l 1,26,-1
 604 0 l 1,23,-1
EndSplineSet
EndChar

StartChar: fl
Encoding: 64258 64258 262
Width: 685
GlyphClass: 2
Flags: W
LayerCount: 2
Fore
SplineSet
699 0 m 1,0,1
 701 -45 701 -45 709 -100 c 1,2,3
 677 -105 677 -105 641 -105 c 128,-1,4
 605 -105 605 -105 572 -87.5 c 128,-1,5
 539 -70 539 -70 522 -36 c 0,6,7
 492 24 492 24 492 133 c 2,8,-1
 492 560 l 2,9,10
 492 728 492 728 369 728 c 0,11,12
 299 728 299 728 267.5 686 c 128,-1,13
 236 644 236 644 236 583 c 2,14,-1
 236 532 l 1,15,-1
 342 532 l 1,16,-1
 342 439 l 1,17,-1
 236 439 l 1,18,-1
 236 0 l 1,19,-1
 124 0 l 1,20,-1
 124 439 l 1,21,-1
 37 439 l 1,22,-1
 37 532 l 1,23,-1
 124 532 l 1,24,-1
 124 576 l 2,25,26
 124 684 124 684 191 755.5 c 128,-1,27
 258 827 258 827 373 827 c 128,-1,28
 488 827 488 827 546 757 c 128,-1,29
 604 687 604 687 604 566 c 2,30,-1
 604 80 l 2,31,32
 604 -6 604 -6 668 -6 c 0,33,34
 684 -6 684 -6 699 0 c 1,0,1
EndSplineSet
EndChar
